G75*
G70*
%OFA0B0*%
%FSLAX24Y24*%
%IPPOS*%
%LPD*%
%AMOC8*
5,1,8,0,0,1.08239X$1,22.5*
%
%ADD10C,0.0040*%
%ADD11C,0.0170*%
%ADD12C,0.0050*%
%ADD13R,0.0160X0.0340*%
%ADD14C,0.0060*%
%ADD15C,0.0001*%
%ADD16C,0.0020*%
%ADD17R,0.0059X0.0079*%
%ADD18R,0.0020X0.0020*%
%ADD19R,0.0148X0.0020*%
%ADD20R,0.0118X0.0079*%
%ADD21R,0.0089X0.0354*%
%ADD22R,0.0197X0.0079*%
%ADD23R,0.0089X0.0217*%
%ADD24R,0.0039X0.0039*%
%ADD25R,0.0098X0.0098*%
%ADD26R,0.0374X0.1299*%
%ADD27R,0.0200X0.0200*%
%ADD28R,0.0197X0.0374*%
%ADD29R,0.0730X0.1260*%
%ADD30R,0.0730X0.0340*%
%ADD31C,0.0080*%
%ADD32C,0.0100*%
%ADD33R,0.0453X0.0157*%
%ADD34R,0.0453X0.0157*%
%ADD35R,0.0453X0.0158*%
%ADD36R,0.0157X0.0453*%
%ADD37R,0.0157X0.0453*%
%ADD38R,0.0158X0.0453*%
D10*
X006057Y001886D02*
X007207Y001886D01*
X007207Y003146D02*
X006047Y003146D01*
X009046Y003138D02*
X009326Y003138D01*
X009326Y003473D02*
X009046Y003473D01*
X009046Y003921D02*
X009326Y003921D01*
X009326Y004256D02*
X009046Y004256D01*
X010623Y004248D02*
X010909Y004248D01*
X010899Y003933D02*
X010623Y003933D01*
X015345Y001500D02*
X015626Y001500D01*
X015626Y001165D02*
X015345Y001165D01*
X019088Y001010D02*
X019088Y000876D01*
X019121Y000843D01*
X019188Y000843D01*
X019221Y000876D01*
X019221Y000943D01*
X019155Y000943D01*
X019221Y001010D02*
X019188Y001043D01*
X019121Y001043D01*
X019088Y001010D01*
X019309Y001043D02*
X019442Y000843D01*
X019442Y001043D01*
X019530Y001043D02*
X019630Y001043D01*
X019663Y001010D01*
X019663Y000876D01*
X019630Y000843D01*
X019530Y000843D01*
X019530Y001043D01*
X019309Y001043D02*
X019309Y000843D01*
X020112Y000843D02*
X020112Y001043D01*
X020212Y001043D01*
X020245Y001010D01*
X020245Y000943D01*
X020212Y000910D01*
X020112Y000910D01*
X020333Y000843D02*
X020433Y000843D01*
X020466Y000876D01*
X020466Y001010D01*
X020433Y001043D01*
X020333Y001043D01*
X020333Y000843D01*
X020554Y000876D02*
X020687Y001010D01*
X020687Y000876D01*
X020654Y000843D01*
X020587Y000843D01*
X020554Y000876D01*
X020554Y001010D01*
X020587Y001043D01*
X020654Y001043D01*
X020687Y001010D01*
X021135Y001043D02*
X021135Y000843D01*
X021135Y000910D02*
X021235Y000910D01*
X021269Y000943D01*
X021269Y001010D01*
X021235Y001043D01*
X021135Y001043D01*
X021356Y001043D02*
X021456Y001043D01*
X021490Y001010D01*
X021490Y000876D01*
X021456Y000843D01*
X021356Y000843D01*
X021356Y001043D01*
X021577Y000943D02*
X021677Y000943D01*
X021711Y000910D01*
X021711Y000876D01*
X021677Y000843D01*
X021611Y000843D01*
X021577Y000876D01*
X021577Y000943D01*
X021644Y001010D01*
X021711Y001043D01*
X022120Y001043D02*
X022120Y000843D01*
X022120Y000910D02*
X022220Y000910D01*
X022253Y000943D01*
X022253Y001010D01*
X022220Y001043D01*
X022120Y001043D01*
X022341Y001043D02*
X022441Y001043D01*
X022474Y001010D01*
X022474Y000976D01*
X022441Y000943D01*
X022341Y000943D01*
X022441Y000943D02*
X022474Y000910D01*
X022474Y000876D01*
X022441Y000843D01*
X022341Y000843D01*
X022341Y001043D01*
X022561Y000943D02*
X022695Y000943D01*
X022662Y000843D02*
X022662Y001043D01*
X022561Y000943D01*
X023104Y000910D02*
X023204Y000910D01*
X023237Y000943D01*
X023237Y001010D01*
X023204Y001043D01*
X023104Y001043D01*
X023104Y000843D01*
X023325Y000843D02*
X023425Y000843D01*
X023458Y000876D01*
X023458Y000910D01*
X023425Y000943D01*
X023325Y000943D01*
X023425Y000943D02*
X023458Y000976D01*
X023458Y001010D01*
X023425Y001043D01*
X023325Y001043D01*
X023325Y000843D01*
X023546Y000876D02*
X023546Y000943D01*
X023646Y000943D01*
X023679Y000910D01*
X023679Y000876D01*
X023646Y000843D01*
X023579Y000843D01*
X023546Y000876D01*
X023546Y000943D02*
X023612Y001010D01*
X023679Y001043D01*
X023646Y003205D02*
X023579Y003205D01*
X023546Y003239D01*
X023546Y003305D02*
X023612Y003339D01*
X023646Y003339D01*
X023679Y003305D01*
X023679Y003239D01*
X023646Y003205D01*
X023546Y003305D02*
X023546Y003405D01*
X023679Y003405D01*
X023458Y003372D02*
X023458Y003339D01*
X023425Y003305D01*
X023325Y003305D01*
X023237Y003305D02*
X023204Y003272D01*
X023104Y003272D01*
X023104Y003205D02*
X023104Y003405D01*
X023204Y003405D01*
X023237Y003372D01*
X023237Y003305D01*
X023325Y003205D02*
X023425Y003205D01*
X023458Y003239D01*
X023458Y003272D01*
X023425Y003305D01*
X023458Y003372D02*
X023425Y003405D01*
X023325Y003405D01*
X023325Y003205D01*
X022695Y003372D02*
X022561Y003239D01*
X022561Y003205D01*
X022474Y003239D02*
X022474Y003372D01*
X022441Y003405D01*
X022341Y003405D01*
X022341Y003205D01*
X022441Y003205D01*
X022474Y003239D01*
X022253Y003305D02*
X022220Y003272D01*
X022120Y003272D01*
X022120Y003205D02*
X022120Y003405D01*
X022220Y003405D01*
X022253Y003372D01*
X022253Y003305D01*
X022561Y003405D02*
X022695Y003405D01*
X022695Y003372D01*
X021711Y003305D02*
X021577Y003305D01*
X021677Y003405D01*
X021677Y003205D01*
X021490Y003239D02*
X021490Y003372D01*
X021456Y003405D01*
X021356Y003405D01*
X021356Y003205D01*
X021456Y003205D01*
X021490Y003239D01*
X021269Y003305D02*
X021235Y003272D01*
X021135Y003272D01*
X021135Y003205D02*
X021135Y003405D01*
X021235Y003405D01*
X021269Y003372D01*
X021269Y003305D01*
X020687Y003272D02*
X020687Y003239D01*
X020654Y003205D01*
X020587Y003205D01*
X020554Y003239D01*
X020466Y003239D02*
X020466Y003372D01*
X020433Y003405D01*
X020333Y003405D01*
X020333Y003205D01*
X020433Y003205D01*
X020466Y003239D01*
X020554Y003372D02*
X020587Y003405D01*
X020654Y003405D01*
X020687Y003372D01*
X020687Y003339D01*
X020654Y003305D01*
X020687Y003272D01*
X020654Y003305D02*
X020620Y003305D01*
X020245Y003305D02*
X020212Y003272D01*
X020112Y003272D01*
X020112Y003205D02*
X020112Y003405D01*
X020212Y003405D01*
X020245Y003372D01*
X020245Y003305D01*
X019727Y003272D02*
X019727Y003239D01*
X019694Y003205D01*
X019627Y003205D01*
X019594Y003239D01*
X019660Y003305D02*
X019694Y003305D01*
X019727Y003272D01*
X019694Y003305D02*
X019727Y003339D01*
X019727Y003372D01*
X019694Y003405D01*
X019627Y003405D01*
X019594Y003372D01*
X019506Y003405D02*
X019506Y003272D01*
X019439Y003205D01*
X019373Y003272D01*
X019373Y003405D01*
X019285Y003372D02*
X019285Y003339D01*
X019252Y003305D01*
X019285Y003272D01*
X019285Y003239D01*
X019252Y003205D01*
X019185Y003205D01*
X019152Y003239D01*
X019218Y003305D02*
X019252Y003305D01*
X019285Y003372D02*
X019252Y003405D01*
X019185Y003405D01*
X019152Y003372D01*
X019064Y003305D02*
X018931Y003305D01*
X018997Y003239D02*
X018997Y003372D01*
X019088Y005567D02*
X019088Y005768D01*
X019188Y005768D01*
X019221Y005734D01*
X019221Y005667D01*
X019188Y005634D01*
X019088Y005634D01*
X019309Y005667D02*
X019376Y005667D01*
X019309Y005567D02*
X019309Y005768D01*
X019442Y005768D01*
X019530Y005734D02*
X019530Y005601D01*
X019663Y005734D01*
X019663Y005601D01*
X019630Y005567D01*
X019563Y005567D01*
X019530Y005601D01*
X019530Y005734D02*
X019563Y005768D01*
X019630Y005768D01*
X019663Y005734D01*
X020112Y005768D02*
X020112Y005567D01*
X020112Y005634D02*
X020212Y005634D01*
X020245Y005667D01*
X020245Y005734D01*
X020212Y005768D01*
X020112Y005768D01*
X020333Y005768D02*
X020466Y005768D01*
X020399Y005667D02*
X020333Y005667D01*
X020333Y005567D02*
X020333Y005768D01*
X020554Y005667D02*
X020687Y005667D01*
X020654Y005567D02*
X020654Y005768D01*
X020554Y005667D01*
X021096Y005634D02*
X021196Y005634D01*
X021229Y005667D01*
X021229Y005734D01*
X021196Y005768D01*
X021096Y005768D01*
X021096Y005567D01*
X021317Y005567D02*
X021317Y005768D01*
X021450Y005768D01*
X021384Y005667D02*
X021317Y005667D01*
X021538Y005667D02*
X021605Y005734D01*
X021671Y005768D01*
X021638Y005667D02*
X021538Y005667D01*
X021538Y005601D01*
X021571Y005567D01*
X021638Y005567D01*
X021671Y005601D01*
X021671Y005634D01*
X021638Y005667D01*
X022120Y005634D02*
X022220Y005634D01*
X022253Y005667D01*
X022253Y005734D01*
X022220Y005768D01*
X022120Y005768D01*
X022120Y005567D01*
X022341Y005601D02*
X022374Y005567D01*
X022441Y005567D01*
X022474Y005601D01*
X022561Y005601D02*
X022595Y005567D01*
X022662Y005567D01*
X022695Y005601D01*
X022695Y005634D01*
X022662Y005667D01*
X022561Y005667D01*
X022561Y005601D01*
X022561Y005667D02*
X022628Y005734D01*
X022695Y005768D01*
X022474Y005734D02*
X022441Y005768D01*
X022374Y005768D01*
X022341Y005734D01*
X022341Y005601D01*
X023064Y005667D02*
X023198Y005667D01*
X023285Y005667D02*
X023352Y005701D01*
X023385Y005701D01*
X023419Y005667D01*
X023419Y005601D01*
X023385Y005567D01*
X023319Y005567D01*
X023285Y005601D01*
X023285Y005667D02*
X023285Y005768D01*
X023419Y005768D01*
X023506Y005768D02*
X023506Y005634D01*
X023573Y005567D01*
X023640Y005634D01*
X023640Y005768D01*
X023131Y005734D02*
X023131Y005601D01*
X023137Y007930D02*
X023204Y007930D01*
X023237Y007963D01*
X023237Y008030D01*
X023170Y008030D01*
X023104Y008096D02*
X023104Y007963D01*
X023137Y007930D01*
X023325Y007930D02*
X023325Y008130D01*
X023458Y007930D01*
X023458Y008130D01*
X023546Y008130D02*
X023646Y008130D01*
X023679Y008096D01*
X023679Y007963D01*
X023646Y007930D01*
X023546Y007930D01*
X023546Y008130D01*
X023237Y008096D02*
X023204Y008130D01*
X023137Y008130D01*
X023104Y008096D01*
X022695Y008096D02*
X022561Y007963D01*
X022561Y007930D01*
X022474Y007963D02*
X022441Y007930D01*
X022374Y007930D01*
X022341Y007963D01*
X022341Y008096D01*
X022374Y008130D01*
X022441Y008130D01*
X022474Y008096D01*
X022561Y008130D02*
X022695Y008130D01*
X022695Y008096D01*
X022253Y008096D02*
X022253Y008030D01*
X022220Y007996D01*
X022120Y007996D01*
X022120Y007930D02*
X022120Y008130D01*
X022220Y008130D01*
X022253Y008096D01*
X021711Y008096D02*
X021577Y007963D01*
X021577Y007930D01*
X021423Y008030D02*
X021356Y008030D01*
X021269Y008030D02*
X021235Y007996D01*
X021135Y007996D01*
X021135Y007930D02*
X021135Y008130D01*
X021235Y008130D01*
X021269Y008096D01*
X021269Y008030D01*
X021356Y007930D02*
X021356Y008130D01*
X021490Y008130D01*
X021577Y008130D02*
X021711Y008130D01*
X021711Y008096D01*
X020687Y008130D02*
X020554Y008130D01*
X020554Y008030D01*
X020620Y008063D01*
X020654Y008063D01*
X020687Y008030D01*
X020687Y007963D01*
X020654Y007930D01*
X020587Y007930D01*
X020554Y007963D01*
X020399Y008030D02*
X020333Y008030D01*
X020245Y008030D02*
X020245Y008096D01*
X020212Y008130D01*
X020112Y008130D01*
X020112Y007930D01*
X020112Y007996D02*
X020212Y007996D01*
X020245Y008030D01*
X020333Y007930D02*
X020333Y008130D01*
X020466Y008130D01*
X019663Y007930D02*
X019530Y007930D01*
X019597Y007930D02*
X019597Y008130D01*
X019530Y008063D01*
X019442Y008130D02*
X019309Y008130D01*
X019309Y007930D01*
X019309Y008030D02*
X019376Y008030D01*
X019221Y008030D02*
X019221Y008096D01*
X019188Y008130D01*
X019088Y008130D01*
X019088Y007930D01*
X019088Y007996D02*
X019188Y007996D01*
X019221Y008030D01*
X014838Y007799D02*
X014558Y007799D01*
X014558Y007464D02*
X014838Y007464D01*
X006570Y007405D02*
X006290Y007405D01*
X006290Y007070D02*
X006570Y007070D01*
D11*
X018890Y005033D02*
X018890Y004573D01*
X019005Y004457D01*
X019235Y004457D01*
X019350Y004573D01*
X019682Y004573D02*
X019797Y004457D01*
X020027Y004457D01*
X020142Y004573D01*
X020142Y004688D01*
X020027Y004803D01*
X019797Y004803D01*
X019682Y004918D01*
X019682Y005033D01*
X019797Y005148D01*
X020027Y005148D01*
X020142Y005033D01*
X020474Y005148D02*
X020819Y005148D01*
X020934Y005033D01*
X020934Y004918D01*
X020819Y004803D01*
X020474Y004803D01*
X020819Y004803D02*
X020934Y004688D01*
X020934Y004573D01*
X020819Y004457D01*
X020474Y004457D01*
X020474Y005148D01*
X019350Y005033D02*
X019235Y005148D01*
X019005Y005148D01*
X018890Y005033D01*
X022057Y005148D02*
X022057Y004688D01*
X022288Y004457D01*
X022518Y004688D01*
X022518Y005148D01*
X022849Y005033D02*
X022964Y005148D01*
X023194Y005148D01*
X023310Y005033D01*
X022849Y004573D01*
X022964Y004457D01*
X023194Y004457D01*
X023310Y004573D01*
X023310Y005033D01*
X022849Y005033D02*
X022849Y004573D01*
D12*
X000131Y006847D02*
X000131Y002122D01*
X003556Y002122D01*
X003556Y006847D01*
X000131Y006847D01*
X018859Y003995D02*
X018859Y003963D01*
X018891Y003931D01*
X018954Y003931D01*
X018986Y003900D01*
X018986Y003868D01*
X018954Y003836D01*
X018891Y003836D01*
X018859Y003868D01*
X018859Y003995D02*
X018891Y004026D01*
X018954Y004026D01*
X018986Y003995D01*
X019080Y003931D02*
X019080Y003868D01*
X019112Y003836D01*
X019175Y003836D01*
X019207Y003900D02*
X019080Y003900D01*
X019080Y003931D02*
X019112Y003963D01*
X019175Y003963D01*
X019207Y003931D01*
X019207Y003900D01*
X019301Y003963D02*
X019365Y003836D01*
X019428Y003963D01*
X019522Y003931D02*
X019554Y003963D01*
X019617Y003963D01*
X019649Y003931D01*
X019649Y003900D01*
X019522Y003900D01*
X019522Y003931D02*
X019522Y003868D01*
X019554Y003836D01*
X019617Y003836D01*
X019743Y003836D02*
X019743Y003963D01*
X019743Y003900D02*
X019807Y003963D01*
X019838Y003963D01*
X019927Y003963D02*
X019959Y003963D01*
X019959Y003836D01*
X019927Y003836D02*
X019991Y003836D01*
X020075Y003836D02*
X020075Y003963D01*
X020170Y003963D01*
X020201Y003931D01*
X020201Y003836D01*
X020517Y003868D02*
X020548Y003836D01*
X020612Y003836D01*
X020643Y003868D01*
X020643Y003900D01*
X020612Y003931D01*
X020548Y003931D01*
X020517Y003963D01*
X020517Y003995D01*
X020548Y004026D01*
X020612Y004026D01*
X020643Y003995D01*
X020738Y003963D02*
X020769Y003963D01*
X020801Y003931D01*
X020833Y003963D01*
X020864Y003931D01*
X020864Y003836D01*
X020801Y003836D02*
X020801Y003931D01*
X020738Y003963D02*
X020738Y003836D01*
X020959Y003836D02*
X021022Y003836D01*
X020990Y003836D02*
X020990Y003963D01*
X020959Y003963D01*
X020990Y004026D02*
X020990Y004058D01*
X021106Y003963D02*
X021169Y003963D01*
X021138Y003995D02*
X021138Y003868D01*
X021169Y003836D01*
X021253Y003836D02*
X021253Y004026D01*
X021285Y003963D02*
X021253Y003931D01*
X021285Y003963D02*
X021348Y003963D01*
X021380Y003931D01*
X021380Y003836D01*
X021695Y003868D02*
X021695Y003900D01*
X021759Y003963D01*
X021759Y003995D01*
X021727Y004026D01*
X021695Y003995D01*
X021695Y003963D01*
X021822Y003836D01*
X021759Y003836D02*
X021727Y003836D01*
X021695Y003868D01*
X021759Y003836D02*
X021822Y003900D01*
X022137Y003836D02*
X022264Y003963D01*
X022264Y003995D01*
X022232Y004026D01*
X022169Y004026D01*
X022137Y003995D01*
X022137Y003836D02*
X022264Y003836D01*
X022358Y003868D02*
X022485Y003995D01*
X022485Y003868D01*
X022453Y003836D01*
X022390Y003836D01*
X022358Y003868D01*
X022358Y003995D01*
X022390Y004026D01*
X022453Y004026D01*
X022485Y003995D01*
X022579Y003995D02*
X022579Y003868D01*
X022706Y003995D01*
X022706Y003868D01*
X022674Y003836D01*
X022611Y003836D01*
X022579Y003868D01*
X022579Y003995D02*
X022611Y004026D01*
X022674Y004026D01*
X022706Y003995D01*
X022800Y003995D02*
X022800Y003868D01*
X022927Y003995D01*
X022927Y003868D01*
X022895Y003836D01*
X022832Y003836D01*
X022800Y003868D01*
X022800Y003995D02*
X022832Y004026D01*
X022895Y004026D01*
X022927Y003995D01*
X023021Y003931D02*
X023021Y003868D01*
X023053Y003836D01*
X023148Y003836D01*
X023148Y004026D01*
X023148Y003963D02*
X023053Y003963D01*
X023021Y003931D01*
X023242Y003931D02*
X023337Y003931D01*
X023369Y003900D01*
X023369Y003868D01*
X023337Y003836D01*
X023242Y003836D01*
X023242Y004026D01*
X023337Y004026D01*
X023369Y003995D01*
X023369Y003963D01*
X023337Y003931D01*
X019959Y004026D02*
X019959Y004058D01*
D13*
X011011Y003303D03*
X010511Y003303D03*
X010511Y002516D03*
X011011Y002516D03*
X009436Y002516D03*
X008936Y002516D03*
X006680Y004091D03*
X006180Y004091D03*
X006180Y004878D03*
X006680Y004878D03*
X006680Y005666D03*
X006180Y005666D03*
X006180Y006453D03*
X006680Y006453D03*
D14*
X006600Y006313D02*
X006260Y006313D01*
X006260Y006593D02*
X006600Y006593D01*
X006600Y005806D02*
X006260Y005806D01*
X006260Y005525D02*
X006600Y005525D01*
X006600Y005018D02*
X006260Y005018D01*
X006260Y004738D02*
X006600Y004738D01*
X006600Y004231D02*
X006260Y004231D01*
X006260Y003951D02*
X006600Y003951D01*
X009016Y002656D02*
X009356Y002656D01*
X009356Y002376D02*
X009016Y002376D01*
X010591Y002376D02*
X010931Y002376D01*
X010931Y002656D02*
X010591Y002656D01*
X010591Y003163D02*
X010931Y003163D01*
X010931Y003443D02*
X010591Y003443D01*
X018891Y002872D02*
X018891Y001372D01*
X019141Y001122D01*
X019641Y001122D01*
X019891Y001372D01*
X019891Y002872D01*
X019641Y003122D01*
X019141Y003122D01*
X018891Y002872D01*
X019891Y002872D02*
X020141Y003122D01*
X020641Y003122D01*
X020891Y002872D01*
X020891Y001372D01*
X020641Y001122D01*
X020141Y001122D01*
X019891Y001372D01*
X020891Y001372D02*
X021141Y001122D01*
X021641Y001122D01*
X021891Y001372D01*
X021891Y002872D01*
X021641Y003122D01*
X021141Y003122D01*
X020891Y002872D01*
X021891Y002872D02*
X022141Y003122D01*
X022641Y003122D01*
X022891Y002872D01*
X022891Y001372D01*
X022641Y001122D01*
X022141Y001122D01*
X021891Y001372D01*
X022891Y001372D02*
X023141Y001122D01*
X023641Y001122D01*
X023891Y001372D01*
X023891Y002872D01*
X023641Y003122D01*
X023141Y003122D01*
X022891Y002872D01*
X022641Y005847D02*
X022141Y005847D01*
X021891Y006097D01*
X021891Y007597D01*
X022141Y007847D01*
X022641Y007847D01*
X022891Y007597D01*
X023141Y007847D01*
X023641Y007847D01*
X023891Y007597D01*
X023891Y006097D01*
X023641Y005847D01*
X023141Y005847D01*
X022891Y006097D01*
X022891Y007597D01*
X021891Y007597D02*
X021641Y007847D01*
X021141Y007847D01*
X020891Y007597D01*
X020891Y006097D01*
X021141Y005847D01*
X021641Y005847D01*
X021891Y006097D01*
X022641Y005847D02*
X022891Y006097D01*
X020891Y006097D02*
X020641Y005847D01*
X020141Y005847D01*
X019891Y006097D01*
X019891Y007597D01*
X020141Y007847D01*
X020641Y007847D01*
X020891Y007597D01*
X019891Y007597D02*
X019641Y007847D01*
X019141Y007847D01*
X018891Y007597D01*
X018891Y006097D01*
X019141Y005847D01*
X019641Y005847D01*
X019891Y006097D01*
D15*
X011086Y004228D02*
X011086Y004189D01*
X011086Y004190D02*
X011066Y004188D01*
X011048Y004182D01*
X011031Y004173D01*
X011016Y004161D01*
X011004Y004146D01*
X010994Y004129D01*
X010989Y004110D01*
X010987Y004091D01*
X010989Y004072D01*
X010994Y004053D01*
X011004Y004036D01*
X011016Y004021D01*
X011031Y004009D01*
X011048Y004000D01*
X011066Y003994D01*
X011086Y003992D01*
X011086Y003954D01*
X011086Y003953D01*
X011063Y003955D01*
X011041Y003961D01*
X011020Y003970D01*
X011001Y003982D01*
X010984Y003998D01*
X010970Y004016D01*
X010960Y004036D01*
X010952Y004057D01*
X010948Y004080D01*
X010948Y004102D01*
X010952Y004125D01*
X010960Y004146D01*
X010970Y004166D01*
X010984Y004184D01*
X011001Y004200D01*
X011020Y004212D01*
X011041Y004221D01*
X011063Y004227D01*
X011086Y004229D01*
X011086Y004228D01*
X011063Y004226D01*
X011041Y004220D01*
X011020Y004211D01*
X011002Y004199D01*
X010985Y004184D01*
X010971Y004166D01*
X010960Y004146D01*
X010953Y004125D01*
X010949Y004102D01*
X010949Y004080D01*
X010953Y004057D01*
X010960Y004036D01*
X010971Y004016D01*
X010985Y003998D01*
X011002Y003983D01*
X011020Y003971D01*
X011041Y003962D01*
X011063Y003956D01*
X011086Y003954D01*
X011086Y003955D01*
X011063Y003957D01*
X011041Y003962D01*
X011021Y003972D01*
X011002Y003984D01*
X010986Y003999D01*
X010972Y004017D01*
X010961Y004036D01*
X010954Y004058D01*
X010950Y004080D01*
X010950Y004102D01*
X010954Y004124D01*
X010961Y004146D01*
X010972Y004165D01*
X010986Y004183D01*
X011002Y004198D01*
X011021Y004210D01*
X011041Y004220D01*
X011063Y004225D01*
X011086Y004227D01*
X011086Y004226D01*
X011063Y004224D01*
X011042Y004219D01*
X011021Y004210D01*
X011003Y004197D01*
X010987Y004182D01*
X010973Y004165D01*
X010962Y004145D01*
X010955Y004124D01*
X010951Y004102D01*
X010951Y004080D01*
X010955Y004058D01*
X010962Y004037D01*
X010973Y004017D01*
X010987Y004000D01*
X011003Y003985D01*
X011021Y003972D01*
X011042Y003963D01*
X011063Y003958D01*
X011086Y003956D01*
X011086Y003957D01*
X011064Y003959D01*
X011042Y003964D01*
X011022Y003973D01*
X011003Y003985D01*
X010987Y004000D01*
X010974Y004018D01*
X010963Y004037D01*
X010956Y004058D01*
X010952Y004080D01*
X010952Y004102D01*
X010956Y004124D01*
X010963Y004145D01*
X010974Y004164D01*
X010987Y004182D01*
X011003Y004197D01*
X011022Y004209D01*
X011042Y004218D01*
X011064Y004223D01*
X011086Y004225D01*
X011086Y004224D01*
X011064Y004222D01*
X011042Y004217D01*
X011022Y004208D01*
X011004Y004196D01*
X010988Y004181D01*
X010975Y004164D01*
X010964Y004144D01*
X010957Y004124D01*
X010953Y004102D01*
X010953Y004080D01*
X010957Y004058D01*
X010964Y004038D01*
X010975Y004018D01*
X010988Y004001D01*
X011004Y003986D01*
X011022Y003974D01*
X011042Y003965D01*
X011064Y003960D01*
X011086Y003958D01*
X011086Y003959D01*
X011064Y003961D01*
X011043Y003966D01*
X011023Y003975D01*
X011005Y003987D01*
X010989Y004002D01*
X010975Y004019D01*
X010965Y004038D01*
X010958Y004059D01*
X010954Y004080D01*
X010954Y004102D01*
X010958Y004123D01*
X010965Y004144D01*
X010975Y004163D01*
X010989Y004180D01*
X011005Y004195D01*
X011023Y004207D01*
X011043Y004216D01*
X011064Y004221D01*
X011086Y004223D01*
X011086Y004222D01*
X011064Y004220D01*
X011043Y004215D01*
X011023Y004206D01*
X011005Y004194D01*
X010989Y004180D01*
X010976Y004162D01*
X010966Y004144D01*
X010959Y004123D01*
X010955Y004102D01*
X010955Y004080D01*
X010959Y004059D01*
X010966Y004038D01*
X010976Y004020D01*
X010989Y004002D01*
X011005Y003988D01*
X011023Y003976D01*
X011043Y003967D01*
X011064Y003962D01*
X011086Y003960D01*
X011086Y003961D01*
X011063Y003963D01*
X011041Y003969D01*
X011021Y003979D01*
X011002Y003992D01*
X010986Y004008D01*
X010973Y004026D01*
X010964Y004047D01*
X010958Y004068D01*
X010956Y004091D01*
X010958Y004114D01*
X010964Y004135D01*
X010973Y004156D01*
X010986Y004174D01*
X011002Y004190D01*
X011021Y004203D01*
X011041Y004213D01*
X011063Y004219D01*
X011086Y004221D01*
X011086Y004220D01*
X011063Y004218D01*
X011042Y004212D01*
X011021Y004203D01*
X011003Y004190D01*
X010987Y004174D01*
X010974Y004155D01*
X010965Y004135D01*
X010959Y004113D01*
X010957Y004091D01*
X010959Y004069D01*
X010965Y004047D01*
X010974Y004027D01*
X010987Y004008D01*
X011003Y003992D01*
X011021Y003979D01*
X011042Y003970D01*
X011063Y003964D01*
X011086Y003962D01*
X011086Y003963D01*
X011063Y003965D01*
X011042Y003971D01*
X011022Y003980D01*
X011004Y003993D01*
X010988Y004009D01*
X010975Y004027D01*
X010966Y004047D01*
X010960Y004069D01*
X010958Y004091D01*
X010960Y004113D01*
X010966Y004135D01*
X010975Y004155D01*
X010988Y004173D01*
X011004Y004189D01*
X011022Y004202D01*
X011042Y004211D01*
X011063Y004217D01*
X011086Y004219D01*
X011086Y004218D01*
X011064Y004216D01*
X011042Y004210D01*
X011022Y004201D01*
X011004Y004188D01*
X010989Y004172D01*
X010976Y004154D01*
X010967Y004134D01*
X010961Y004113D01*
X010959Y004091D01*
X010961Y004069D01*
X010967Y004048D01*
X010976Y004028D01*
X010989Y004010D01*
X011004Y003994D01*
X011022Y003981D01*
X011042Y003972D01*
X011064Y003966D01*
X011086Y003964D01*
X011086Y003965D01*
X011064Y003967D01*
X011043Y003973D01*
X011023Y003982D01*
X011005Y003995D01*
X010989Y004010D01*
X010977Y004028D01*
X010968Y004048D01*
X010962Y004069D01*
X010960Y004091D01*
X010962Y004113D01*
X010968Y004134D01*
X010977Y004154D01*
X010989Y004172D01*
X011005Y004187D01*
X011023Y004200D01*
X011043Y004209D01*
X011064Y004215D01*
X011086Y004217D01*
X011086Y004216D01*
X011064Y004214D01*
X011043Y004208D01*
X011023Y004199D01*
X011005Y004187D01*
X010990Y004171D01*
X010978Y004153D01*
X010969Y004134D01*
X010963Y004113D01*
X010961Y004091D01*
X010963Y004069D01*
X010969Y004048D01*
X010978Y004029D01*
X010990Y004011D01*
X011005Y003995D01*
X011023Y003983D01*
X011043Y003974D01*
X011064Y003968D01*
X011086Y003966D01*
X011086Y003967D01*
X011064Y003969D01*
X011043Y003975D01*
X011024Y003984D01*
X011006Y003996D01*
X010991Y004011D01*
X010979Y004029D01*
X010969Y004049D01*
X010964Y004070D01*
X010962Y004091D01*
X010964Y004112D01*
X010969Y004133D01*
X010979Y004153D01*
X010991Y004171D01*
X011006Y004186D01*
X011024Y004198D01*
X011043Y004207D01*
X011064Y004213D01*
X011086Y004215D01*
X011086Y004214D01*
X011064Y004212D01*
X011044Y004206D01*
X011024Y004197D01*
X011007Y004185D01*
X010992Y004170D01*
X010979Y004152D01*
X010970Y004133D01*
X010965Y004112D01*
X010963Y004091D01*
X010965Y004070D01*
X010970Y004049D01*
X010979Y004030D01*
X010992Y004012D01*
X011007Y003997D01*
X011024Y003985D01*
X011044Y003976D01*
X011064Y003970D01*
X011086Y003968D01*
X011086Y003969D01*
X011064Y003971D01*
X011044Y003976D01*
X011025Y003986D01*
X011007Y003998D01*
X010992Y004013D01*
X010980Y004030D01*
X010971Y004049D01*
X010966Y004070D01*
X010964Y004091D01*
X010966Y004112D01*
X010971Y004133D01*
X010980Y004152D01*
X010992Y004169D01*
X011007Y004184D01*
X011025Y004196D01*
X011044Y004206D01*
X011064Y004211D01*
X011086Y004213D01*
X011086Y004212D01*
X011065Y004210D01*
X011044Y004205D01*
X011025Y004196D01*
X011008Y004184D01*
X010993Y004169D01*
X010981Y004151D01*
X010972Y004132D01*
X010967Y004112D01*
X010965Y004091D01*
X010967Y004070D01*
X010972Y004050D01*
X010981Y004031D01*
X010993Y004013D01*
X011008Y003998D01*
X011025Y003986D01*
X011044Y003977D01*
X011065Y003972D01*
X011086Y003970D01*
X011086Y003971D01*
X011065Y003973D01*
X011045Y003978D01*
X011026Y003987D01*
X011009Y003999D01*
X010994Y004014D01*
X010982Y004031D01*
X010973Y004050D01*
X010968Y004070D01*
X010966Y004091D01*
X010968Y004112D01*
X010973Y004132D01*
X010982Y004151D01*
X010994Y004168D01*
X011009Y004183D01*
X011026Y004195D01*
X011045Y004204D01*
X011065Y004209D01*
X011086Y004211D01*
X011086Y004210D01*
X011065Y004208D01*
X011045Y004203D01*
X011026Y004194D01*
X011009Y004182D01*
X010995Y004167D01*
X010983Y004150D01*
X010974Y004132D01*
X010969Y004112D01*
X010967Y004091D01*
X010969Y004070D01*
X010974Y004050D01*
X010983Y004032D01*
X010995Y004015D01*
X011009Y004000D01*
X011026Y003988D01*
X011045Y003979D01*
X011065Y003974D01*
X011086Y003972D01*
X011086Y003973D01*
X011065Y003975D01*
X011045Y003980D01*
X011027Y003989D01*
X011010Y004001D01*
X010995Y004015D01*
X010984Y004032D01*
X010975Y004051D01*
X010970Y004071D01*
X010968Y004091D01*
X010970Y004111D01*
X010975Y004131D01*
X010984Y004150D01*
X010995Y004167D01*
X011010Y004181D01*
X011027Y004193D01*
X011045Y004202D01*
X011065Y004207D01*
X011086Y004209D01*
X011086Y004208D01*
X011065Y004206D01*
X011046Y004201D01*
X011027Y004192D01*
X011011Y004180D01*
X010996Y004166D01*
X010985Y004149D01*
X010976Y004131D01*
X010971Y004111D01*
X010969Y004091D01*
X010971Y004071D01*
X010976Y004051D01*
X010985Y004033D01*
X010996Y004016D01*
X011011Y004002D01*
X011027Y003990D01*
X011046Y003981D01*
X011065Y003976D01*
X011086Y003974D01*
X011086Y003975D01*
X011064Y003977D01*
X011044Y003983D01*
X011025Y003993D01*
X011008Y004005D01*
X010993Y004021D01*
X010982Y004039D01*
X010974Y004059D01*
X010970Y004080D01*
X010970Y004102D01*
X010974Y004123D01*
X010982Y004143D01*
X010993Y004161D01*
X011008Y004177D01*
X011025Y004189D01*
X011044Y004199D01*
X011064Y004205D01*
X011086Y004207D01*
X011086Y004206D01*
X011064Y004204D01*
X011044Y004198D01*
X011025Y004189D01*
X011008Y004176D01*
X010994Y004160D01*
X010983Y004142D01*
X010975Y004122D01*
X010971Y004102D01*
X010971Y004080D01*
X010975Y004060D01*
X010983Y004040D01*
X010994Y004022D01*
X011008Y004006D01*
X011025Y003993D01*
X011044Y003984D01*
X011064Y003978D01*
X011086Y003976D01*
X011086Y003977D01*
X011065Y003979D01*
X011044Y003985D01*
X011026Y003994D01*
X011009Y004007D01*
X010995Y004022D01*
X010984Y004040D01*
X010976Y004060D01*
X010972Y004081D01*
X010972Y004101D01*
X010976Y004122D01*
X010984Y004142D01*
X010995Y004160D01*
X011009Y004175D01*
X011026Y004188D01*
X011044Y004197D01*
X011065Y004203D01*
X011086Y004205D01*
X011086Y004204D01*
X011065Y004202D01*
X011045Y004196D01*
X011026Y004187D01*
X011010Y004174D01*
X010996Y004159D01*
X010985Y004141D01*
X010977Y004122D01*
X010973Y004101D01*
X010973Y004081D01*
X010977Y004060D01*
X010985Y004041D01*
X010996Y004023D01*
X011010Y004008D01*
X011026Y003995D01*
X011045Y003986D01*
X011065Y003980D01*
X011086Y003978D01*
X011086Y003979D01*
X011065Y003981D01*
X011045Y003987D01*
X011027Y003996D01*
X011010Y004008D01*
X010996Y004024D01*
X010986Y004041D01*
X010978Y004060D01*
X010974Y004081D01*
X010974Y004101D01*
X010978Y004122D01*
X010986Y004141D01*
X010996Y004158D01*
X011010Y004174D01*
X011027Y004186D01*
X011045Y004195D01*
X011065Y004201D01*
X011086Y004203D01*
X011086Y004202D01*
X011065Y004200D01*
X011046Y004194D01*
X011027Y004185D01*
X011011Y004173D01*
X010997Y004158D01*
X010987Y004140D01*
X010979Y004121D01*
X010975Y004101D01*
X010975Y004081D01*
X010979Y004061D01*
X010987Y004042D01*
X010997Y004024D01*
X011011Y004009D01*
X011027Y003997D01*
X011046Y003988D01*
X011065Y003982D01*
X011086Y003980D01*
X011086Y003981D01*
X011065Y003983D01*
X011046Y003989D01*
X011028Y003998D01*
X011012Y004010D01*
X010998Y004025D01*
X010987Y004042D01*
X010980Y004061D01*
X010976Y004081D01*
X010976Y004101D01*
X010980Y004121D01*
X010987Y004140D01*
X010998Y004157D01*
X011012Y004172D01*
X011028Y004184D01*
X011046Y004193D01*
X011065Y004199D01*
X011086Y004201D01*
X011086Y004200D01*
X011066Y004198D01*
X011046Y004193D01*
X011028Y004184D01*
X011012Y004171D01*
X010999Y004157D01*
X010988Y004139D01*
X010981Y004121D01*
X010977Y004101D01*
X010977Y004081D01*
X010981Y004061D01*
X010988Y004043D01*
X010999Y004025D01*
X011012Y004011D01*
X011028Y003998D01*
X011046Y003989D01*
X011066Y003984D01*
X011086Y003982D01*
X011086Y003983D01*
X011066Y003985D01*
X011047Y003990D01*
X011029Y003999D01*
X011013Y004011D01*
X011000Y004026D01*
X010989Y004043D01*
X010982Y004062D01*
X010978Y004081D01*
X010978Y004101D01*
X010982Y004120D01*
X010989Y004139D01*
X011000Y004156D01*
X011013Y004171D01*
X011029Y004183D01*
X011047Y004192D01*
X011066Y004197D01*
X011086Y004199D01*
X011086Y004198D01*
X011066Y004196D01*
X011047Y004191D01*
X011029Y004182D01*
X011014Y004170D01*
X011000Y004155D01*
X010990Y004139D01*
X010983Y004120D01*
X010979Y004101D01*
X010979Y004081D01*
X010983Y004062D01*
X010990Y004043D01*
X011000Y004027D01*
X011014Y004012D01*
X011029Y004000D01*
X011047Y003991D01*
X011066Y003986D01*
X011086Y003984D01*
X011086Y003985D01*
X011066Y003987D01*
X011047Y003992D01*
X011030Y004001D01*
X011014Y004013D01*
X011001Y004027D01*
X010991Y004044D01*
X010984Y004062D01*
X010980Y004081D01*
X010980Y004101D01*
X010984Y004120D01*
X010991Y004138D01*
X011001Y004155D01*
X011014Y004169D01*
X011030Y004181D01*
X011047Y004190D01*
X011066Y004195D01*
X011086Y004197D01*
X011086Y004196D01*
X011066Y004194D01*
X011048Y004189D01*
X011030Y004180D01*
X011015Y004168D01*
X011002Y004154D01*
X010992Y004138D01*
X010985Y004120D01*
X010981Y004101D01*
X010981Y004081D01*
X010985Y004062D01*
X010992Y004044D01*
X011002Y004028D01*
X011015Y004014D01*
X011030Y004002D01*
X011048Y003993D01*
X011066Y003988D01*
X011086Y003986D01*
X011086Y003987D01*
X011066Y003989D01*
X011048Y003994D01*
X011031Y004003D01*
X011016Y004014D01*
X011003Y004028D01*
X010993Y004045D01*
X010986Y004063D01*
X010982Y004081D01*
X010982Y004101D01*
X010986Y004119D01*
X010993Y004137D01*
X011003Y004154D01*
X011016Y004168D01*
X011031Y004179D01*
X011048Y004188D01*
X011066Y004193D01*
X011086Y004195D01*
X011086Y004194D01*
X011065Y004192D01*
X011046Y004186D01*
X011029Y004176D01*
X011013Y004164D01*
X011000Y004148D01*
X010991Y004130D01*
X010985Y004111D01*
X010983Y004091D01*
X010985Y004071D01*
X010991Y004052D01*
X011000Y004034D01*
X011013Y004018D01*
X011029Y004006D01*
X011046Y003996D01*
X011065Y003990D01*
X011086Y003988D01*
X011086Y003989D01*
X011066Y003991D01*
X011047Y003997D01*
X011029Y004006D01*
X011014Y004019D01*
X011001Y004034D01*
X010992Y004052D01*
X010986Y004071D01*
X010984Y004091D01*
X010986Y004111D01*
X010992Y004130D01*
X011001Y004148D01*
X011014Y004163D01*
X011029Y004176D01*
X011047Y004185D01*
X011066Y004191D01*
X011086Y004193D01*
X011086Y004192D01*
X011066Y004190D01*
X011047Y004184D01*
X011030Y004175D01*
X011014Y004162D01*
X011002Y004147D01*
X010993Y004130D01*
X010987Y004111D01*
X010985Y004091D01*
X010987Y004071D01*
X010993Y004052D01*
X011002Y004035D01*
X011014Y004020D01*
X011030Y004007D01*
X011047Y003998D01*
X011066Y003992D01*
X011086Y003990D01*
X011086Y003991D01*
X011066Y003993D01*
X011047Y003999D01*
X011030Y004008D01*
X011015Y004020D01*
X011003Y004036D01*
X010994Y004053D01*
X010988Y004072D01*
X010986Y004091D01*
X010988Y004110D01*
X010994Y004129D01*
X011003Y004146D01*
X011015Y004162D01*
X011030Y004174D01*
X011047Y004183D01*
X011066Y004189D01*
X011086Y004191D01*
X010436Y003974D02*
X010436Y003993D01*
X010436Y003992D02*
X010456Y003994D01*
X010474Y004000D01*
X010491Y004009D01*
X010506Y004021D01*
X010518Y004036D01*
X010528Y004053D01*
X010533Y004072D01*
X010535Y004091D01*
X010533Y004110D01*
X010528Y004129D01*
X010518Y004146D01*
X010506Y004161D01*
X010491Y004173D01*
X010474Y004182D01*
X010456Y004188D01*
X010436Y004190D01*
X010436Y004208D01*
X010436Y004209D01*
X010457Y004207D01*
X010477Y004202D01*
X010495Y004193D01*
X010512Y004181D01*
X010527Y004167D01*
X010538Y004150D01*
X010547Y004131D01*
X010552Y004111D01*
X010554Y004091D01*
X010552Y004071D01*
X010547Y004051D01*
X010538Y004032D01*
X010527Y004015D01*
X010512Y004001D01*
X010495Y003989D01*
X010477Y003980D01*
X010457Y003975D01*
X010436Y003973D01*
X010436Y003974D01*
X010457Y003976D01*
X010476Y003981D01*
X010495Y003990D01*
X010511Y004002D01*
X010526Y004016D01*
X010537Y004033D01*
X010546Y004051D01*
X010551Y004071D01*
X010553Y004091D01*
X010551Y004111D01*
X010546Y004131D01*
X010537Y004149D01*
X010526Y004166D01*
X010511Y004180D01*
X010495Y004192D01*
X010476Y004201D01*
X010457Y004206D01*
X010436Y004208D01*
X010436Y004207D01*
X010458Y004205D01*
X010478Y004199D01*
X010497Y004189D01*
X010514Y004177D01*
X010529Y004161D01*
X010540Y004143D01*
X010548Y004123D01*
X010552Y004102D01*
X010552Y004080D01*
X010548Y004059D01*
X010540Y004039D01*
X010529Y004021D01*
X010514Y004005D01*
X010497Y003993D01*
X010478Y003983D01*
X010458Y003977D01*
X010436Y003975D01*
X010436Y003976D01*
X010458Y003978D01*
X010478Y003984D01*
X010497Y003993D01*
X010514Y004006D01*
X010528Y004022D01*
X010539Y004040D01*
X010547Y004060D01*
X010551Y004080D01*
X010551Y004102D01*
X010547Y004122D01*
X010539Y004142D01*
X010528Y004160D01*
X010514Y004176D01*
X010497Y004189D01*
X010478Y004198D01*
X010458Y004204D01*
X010436Y004206D01*
X010436Y004205D01*
X010457Y004203D01*
X010478Y004197D01*
X010496Y004188D01*
X010513Y004175D01*
X010527Y004160D01*
X010538Y004142D01*
X010546Y004122D01*
X010550Y004101D01*
X010550Y004081D01*
X010546Y004060D01*
X010538Y004040D01*
X010527Y004022D01*
X010513Y004007D01*
X010496Y003994D01*
X010478Y003985D01*
X010457Y003979D01*
X010436Y003977D01*
X010436Y003978D01*
X010457Y003980D01*
X010477Y003986D01*
X010496Y003995D01*
X010512Y004008D01*
X010526Y004023D01*
X010537Y004041D01*
X010545Y004060D01*
X010549Y004081D01*
X010549Y004101D01*
X010545Y004122D01*
X010537Y004141D01*
X010526Y004159D01*
X010512Y004174D01*
X010496Y004187D01*
X010477Y004196D01*
X010457Y004202D01*
X010436Y004204D01*
X010436Y004203D01*
X010457Y004201D01*
X010477Y004195D01*
X010495Y004186D01*
X010512Y004174D01*
X010526Y004158D01*
X010536Y004141D01*
X010544Y004122D01*
X010548Y004101D01*
X010548Y004081D01*
X010544Y004060D01*
X010536Y004041D01*
X010526Y004024D01*
X010512Y004008D01*
X010495Y003996D01*
X010477Y003987D01*
X010457Y003981D01*
X010436Y003979D01*
X010436Y003980D01*
X010457Y003982D01*
X010476Y003988D01*
X010495Y003997D01*
X010511Y004009D01*
X010525Y004024D01*
X010535Y004042D01*
X010543Y004061D01*
X010547Y004081D01*
X010547Y004101D01*
X010543Y004121D01*
X010535Y004140D01*
X010525Y004158D01*
X010511Y004173D01*
X010495Y004185D01*
X010476Y004194D01*
X010457Y004200D01*
X010436Y004202D01*
X010436Y004201D01*
X010457Y004199D01*
X010476Y004193D01*
X010494Y004184D01*
X010510Y004172D01*
X010524Y004157D01*
X010535Y004140D01*
X010542Y004121D01*
X010546Y004101D01*
X010546Y004081D01*
X010542Y004061D01*
X010535Y004042D01*
X010524Y004025D01*
X010510Y004010D01*
X010494Y003998D01*
X010476Y003989D01*
X010457Y003983D01*
X010436Y003981D01*
X010436Y003982D01*
X010456Y003984D01*
X010476Y003989D01*
X010494Y003998D01*
X010510Y004011D01*
X010523Y004025D01*
X010534Y004043D01*
X010541Y004061D01*
X010545Y004081D01*
X010545Y004101D01*
X010541Y004121D01*
X010534Y004139D01*
X010523Y004157D01*
X010510Y004171D01*
X010494Y004184D01*
X010476Y004193D01*
X010456Y004198D01*
X010436Y004200D01*
X010436Y004199D01*
X010456Y004197D01*
X010475Y004192D01*
X010493Y004183D01*
X010509Y004171D01*
X010522Y004156D01*
X010533Y004139D01*
X010540Y004120D01*
X010544Y004101D01*
X010544Y004081D01*
X010540Y004062D01*
X010533Y004043D01*
X010522Y004026D01*
X010509Y004011D01*
X010493Y003999D01*
X010475Y003990D01*
X010456Y003985D01*
X010436Y003983D01*
X010436Y003984D01*
X010456Y003986D01*
X010475Y003991D01*
X010493Y004000D01*
X010508Y004012D01*
X010522Y004027D01*
X010532Y004043D01*
X010539Y004062D01*
X010543Y004081D01*
X010543Y004101D01*
X010539Y004120D01*
X010532Y004139D01*
X010522Y004155D01*
X010508Y004170D01*
X010493Y004182D01*
X010475Y004191D01*
X010456Y004196D01*
X010436Y004198D01*
X010436Y004197D01*
X010456Y004195D01*
X010475Y004190D01*
X010492Y004181D01*
X010508Y004169D01*
X010521Y004155D01*
X010531Y004138D01*
X010538Y004120D01*
X010542Y004101D01*
X010542Y004081D01*
X010538Y004062D01*
X010531Y004044D01*
X010521Y004027D01*
X010508Y004013D01*
X010492Y004001D01*
X010475Y003992D01*
X010456Y003987D01*
X010436Y003985D01*
X010436Y003986D01*
X010456Y003988D01*
X010474Y003993D01*
X010492Y004002D01*
X010507Y004014D01*
X010520Y004028D01*
X010530Y004044D01*
X010537Y004062D01*
X010541Y004081D01*
X010541Y004101D01*
X010537Y004120D01*
X010530Y004138D01*
X010520Y004154D01*
X010507Y004168D01*
X010492Y004180D01*
X010474Y004189D01*
X010456Y004194D01*
X010436Y004196D01*
X010436Y004195D01*
X010456Y004193D01*
X010474Y004188D01*
X010491Y004179D01*
X010506Y004168D01*
X010519Y004154D01*
X010529Y004137D01*
X010536Y004119D01*
X010540Y004101D01*
X010540Y004081D01*
X010536Y004063D01*
X010529Y004045D01*
X010519Y004028D01*
X010506Y004014D01*
X010491Y004003D01*
X010474Y003994D01*
X010456Y003989D01*
X010436Y003987D01*
X010436Y003988D01*
X010457Y003990D01*
X010476Y003996D01*
X010493Y004006D01*
X010509Y004018D01*
X010522Y004034D01*
X010531Y004052D01*
X010537Y004071D01*
X010539Y004091D01*
X010537Y004111D01*
X010531Y004130D01*
X010522Y004148D01*
X010509Y004164D01*
X010493Y004176D01*
X010476Y004186D01*
X010457Y004192D01*
X010436Y004194D01*
X010436Y004193D01*
X010456Y004191D01*
X010475Y004185D01*
X010493Y004176D01*
X010508Y004163D01*
X010521Y004148D01*
X010530Y004130D01*
X010536Y004111D01*
X010538Y004091D01*
X010536Y004071D01*
X010530Y004052D01*
X010521Y004034D01*
X010508Y004019D01*
X010493Y004006D01*
X010475Y003997D01*
X010456Y003991D01*
X010436Y003989D01*
X010436Y003990D01*
X010456Y003992D01*
X010475Y003998D01*
X010492Y004007D01*
X010508Y004020D01*
X010520Y004035D01*
X010529Y004052D01*
X010535Y004071D01*
X010537Y004091D01*
X010535Y004111D01*
X010529Y004130D01*
X010520Y004147D01*
X010508Y004162D01*
X010492Y004175D01*
X010475Y004184D01*
X010456Y004190D01*
X010436Y004192D01*
X010436Y004191D01*
X010456Y004189D01*
X010475Y004183D01*
X010492Y004174D01*
X010507Y004162D01*
X010519Y004146D01*
X010528Y004129D01*
X010534Y004110D01*
X010536Y004091D01*
X010534Y004072D01*
X010528Y004053D01*
X010519Y004036D01*
X010507Y004020D01*
X010492Y004008D01*
X010475Y003999D01*
X010456Y003993D01*
X010436Y003991D01*
D16*
X010977Y004229D02*
X010979Y004239D01*
X010984Y004248D01*
X010992Y004255D01*
X011002Y004259D01*
X011012Y004259D01*
X011022Y004255D01*
X011030Y004248D01*
X011035Y004239D01*
X011037Y004229D01*
X011035Y004219D01*
X011030Y004210D01*
X011022Y004203D01*
X011012Y004199D01*
X011002Y004199D01*
X010992Y004203D01*
X010984Y004210D01*
X010979Y004219D01*
X010977Y004229D01*
D17*
X011066Y004229D03*
D18*
X010987Y004189D03*
D19*
X010973Y004258D03*
D20*
X011037Y003953D03*
D21*
X010943Y004091D03*
D22*
X010525Y004229D03*
X010525Y003953D03*
D23*
X010579Y004091D03*
D24*
X010525Y004179D03*
X010525Y004002D03*
D25*
X010810Y004091D03*
D26*
X007384Y002516D03*
X005874Y002516D03*
D27*
X019391Y002622D03*
X020391Y002622D03*
X021391Y002622D03*
X022391Y002622D03*
X023391Y002622D03*
X023391Y001622D03*
X022391Y001622D03*
X021391Y001622D03*
X020391Y001622D03*
X019391Y001622D03*
X019391Y006347D03*
X020391Y006347D03*
X021391Y006347D03*
X022391Y006347D03*
X023391Y006347D03*
X023391Y007347D03*
X022391Y007347D03*
X021391Y007347D03*
X020391Y007347D03*
X019391Y007347D03*
D28*
X014929Y007632D03*
X014470Y007632D03*
X006662Y007238D03*
X006202Y007238D03*
X008958Y004089D03*
X009418Y004089D03*
X009415Y003305D03*
X008955Y003305D03*
X015257Y001333D03*
X015717Y001333D03*
D29*
X008899Y006059D03*
X008899Y006059D03*
D30*
X011049Y006059D03*
X011049Y006059D03*
X011049Y005149D03*
X011049Y005149D03*
X011049Y006969D03*
X011049Y006969D03*
D31*
X010624Y007349D02*
X010624Y004769D01*
X009324Y004769D01*
X009324Y007349D01*
X010624Y007349D01*
X013596Y006217D02*
X013596Y002752D01*
X013753Y002595D01*
X017218Y002595D01*
X017375Y002752D01*
X017375Y006217D01*
X017218Y006374D01*
X013753Y006374D01*
X013596Y006217D01*
D32*
X013800Y006059D02*
X013802Y006079D01*
X013807Y006099D01*
X013817Y006117D01*
X013829Y006134D01*
X013844Y006148D01*
X013862Y006158D01*
X013881Y006166D01*
X013901Y006170D01*
X013921Y006170D01*
X013941Y006166D01*
X013960Y006158D01*
X013978Y006148D01*
X013993Y006134D01*
X014005Y006117D01*
X014015Y006099D01*
X014020Y006079D01*
X014022Y006059D01*
X014020Y006039D01*
X014015Y006019D01*
X014005Y006001D01*
X013993Y005984D01*
X013978Y005970D01*
X013960Y005960D01*
X013941Y005952D01*
X013921Y005948D01*
X013901Y005948D01*
X013881Y005952D01*
X013862Y005960D01*
X013844Y005970D01*
X013829Y005984D01*
X013817Y006001D01*
X013807Y006019D01*
X013802Y006039D01*
X013800Y006059D01*
D33*
X013310Y006059D03*
X013310Y004484D03*
X013310Y002910D03*
X017661Y002910D03*
X017661Y004484D03*
X017661Y006059D03*
D34*
X017661Y005744D03*
X017661Y005429D03*
X013310Y005429D03*
X013310Y005744D03*
X013310Y003540D03*
X013310Y003225D03*
X017661Y003225D03*
X017661Y003540D03*
D35*
X017661Y003854D03*
X017661Y004169D03*
X017661Y004799D03*
X017661Y005114D03*
X013310Y005114D03*
X013310Y004799D03*
X013310Y004169D03*
X013310Y003854D03*
D36*
X013911Y002309D03*
X015485Y002309D03*
X017060Y002309D03*
X017060Y006660D03*
X015485Y006660D03*
X013911Y006660D03*
D37*
X014226Y006660D03*
X014541Y006660D03*
X016430Y006660D03*
X016745Y006660D03*
X016745Y002309D03*
X016430Y002309D03*
X014541Y002309D03*
X014226Y002309D03*
D38*
X014855Y002309D03*
X015170Y002309D03*
X015800Y002309D03*
X016115Y002309D03*
X016115Y006660D03*
X015800Y006660D03*
X015170Y006660D03*
X014855Y006660D03*
M02*
