G75*
G70*
%OFA0B0*%
%FSLAX24Y24*%
%IPPOS*%
%LPD*%
%AMOC8*
5,1,8,0,0,1.08239X$1,22.5*
%
%ADD10C,0.0680*%
%ADD11OC8,0.0720*%
%ADD12R,0.0828X0.0631*%
%ADD13R,0.0631X0.0789*%
%ADD14R,0.0671X0.0356*%
%ADD15R,0.0316X0.0867*%
%ADD16R,0.0356X0.1734*%
D10*
X004659Y001374D03*
X004659Y007595D03*
X023950Y004484D03*
D11*
X023391Y002622D03*
X022391Y002622D03*
X021391Y002622D03*
X020391Y002622D03*
X019391Y002622D03*
X019391Y001622D03*
X020391Y001622D03*
X021391Y001622D03*
X022391Y001622D03*
X023391Y001622D03*
X023391Y006347D03*
X022391Y006347D03*
X021391Y006347D03*
X020391Y006347D03*
X019391Y006347D03*
X019391Y007347D03*
X020391Y007347D03*
X021391Y007347D03*
X022391Y007347D03*
X023391Y007347D03*
D12*
X006355Y001892D03*
X006001Y007089D03*
D13*
X011513Y004884D03*
X011513Y002522D03*
D14*
X007497Y002679D03*
X007497Y002246D03*
X007340Y003112D03*
X007497Y003545D03*
X007340Y003979D03*
X007497Y004412D03*
X007655Y004845D03*
X007497Y005278D03*
D15*
X015289Y003461D03*
X015682Y003461D03*
X016076Y003461D03*
X016470Y003461D03*
X016863Y003461D03*
X017257Y003461D03*
D16*
X017651Y002673D03*
X014895Y002673D03*
M02*
