G75*
G70*
%OFA0B0*%
%FSLAX24Y24*%
%IPPOS*%
%LPD*%
%AMOC8*
5,1,8,0,0,1.08239X$1,22.5*
%
%ADD10C,0.0000*%
%ADD11C,0.0070*%
%ADD12R,0.0394X0.0433*%
%ADD13R,0.0315X0.0315*%
%ADD14R,0.0748X0.1339*%
%ADD15OC8,0.0640*%
%ADD16R,0.0433X0.0394*%
%ADD17R,0.2953X0.0591*%
%ADD18R,0.2559X0.0394*%
%ADD19R,0.0880X0.0480*%
%ADD20R,0.0866X0.1417*%
%ADD21R,0.0591X0.0197*%
%ADD22R,0.0197X0.0591*%
%ADD23C,0.0160*%
%ADD24OC8,0.0436*%
D10*
X004068Y000784D02*
X004068Y002122D01*
X000131Y002122D01*
X000131Y006847D01*
X004068Y006847D01*
X004068Y008185D01*
X024540Y008185D01*
X024540Y000784D01*
X004068Y000784D01*
X004383Y001374D02*
X004385Y001407D01*
X004391Y001439D01*
X004400Y001470D01*
X004413Y001500D01*
X004430Y001528D01*
X004450Y001554D01*
X004473Y001578D01*
X004498Y001598D01*
X004526Y001616D01*
X004555Y001630D01*
X004586Y001640D01*
X004618Y001647D01*
X004651Y001650D01*
X004684Y001649D01*
X004716Y001644D01*
X004747Y001635D01*
X004778Y001623D01*
X004806Y001607D01*
X004833Y001588D01*
X004857Y001566D01*
X004878Y001541D01*
X004897Y001514D01*
X004912Y001485D01*
X004923Y001455D01*
X004931Y001423D01*
X004935Y001390D01*
X004935Y001358D01*
X004931Y001325D01*
X004923Y001293D01*
X004912Y001263D01*
X004897Y001234D01*
X004878Y001207D01*
X004857Y001182D01*
X004833Y001160D01*
X004806Y001141D01*
X004778Y001125D01*
X004747Y001113D01*
X004716Y001104D01*
X004684Y001099D01*
X004651Y001098D01*
X004618Y001101D01*
X004586Y001108D01*
X004555Y001118D01*
X004526Y001132D01*
X004498Y001150D01*
X004473Y001170D01*
X004450Y001194D01*
X004430Y001220D01*
X004413Y001248D01*
X004400Y001278D01*
X004391Y001309D01*
X004385Y001341D01*
X004383Y001374D01*
X004383Y007595D02*
X004385Y007628D01*
X004391Y007660D01*
X004400Y007691D01*
X004413Y007721D01*
X004430Y007749D01*
X004450Y007775D01*
X004473Y007799D01*
X004498Y007819D01*
X004526Y007837D01*
X004555Y007851D01*
X004586Y007861D01*
X004618Y007868D01*
X004651Y007871D01*
X004684Y007870D01*
X004716Y007865D01*
X004747Y007856D01*
X004778Y007844D01*
X004806Y007828D01*
X004833Y007809D01*
X004857Y007787D01*
X004878Y007762D01*
X004897Y007735D01*
X004912Y007706D01*
X004923Y007676D01*
X004931Y007644D01*
X004935Y007611D01*
X004935Y007579D01*
X004931Y007546D01*
X004923Y007514D01*
X004912Y007484D01*
X004897Y007455D01*
X004878Y007428D01*
X004857Y007403D01*
X004833Y007381D01*
X004806Y007362D01*
X004778Y007346D01*
X004747Y007334D01*
X004716Y007325D01*
X004684Y007320D01*
X004651Y007319D01*
X004618Y007322D01*
X004586Y007329D01*
X004555Y007339D01*
X004526Y007353D01*
X004498Y007371D01*
X004473Y007391D01*
X004450Y007415D01*
X004430Y007441D01*
X004413Y007469D01*
X004400Y007499D01*
X004391Y007530D01*
X004385Y007562D01*
X004383Y007595D01*
X023674Y004484D02*
X023676Y004517D01*
X023682Y004549D01*
X023691Y004580D01*
X023704Y004610D01*
X023721Y004638D01*
X023741Y004664D01*
X023764Y004688D01*
X023789Y004708D01*
X023817Y004726D01*
X023846Y004740D01*
X023877Y004750D01*
X023909Y004757D01*
X023942Y004760D01*
X023975Y004759D01*
X024007Y004754D01*
X024038Y004745D01*
X024069Y004733D01*
X024097Y004717D01*
X024124Y004698D01*
X024148Y004676D01*
X024169Y004651D01*
X024188Y004624D01*
X024203Y004595D01*
X024214Y004565D01*
X024222Y004533D01*
X024226Y004500D01*
X024226Y004468D01*
X024222Y004435D01*
X024214Y004403D01*
X024203Y004373D01*
X024188Y004344D01*
X024169Y004317D01*
X024148Y004292D01*
X024124Y004270D01*
X024097Y004251D01*
X024069Y004235D01*
X024038Y004223D01*
X024007Y004214D01*
X023975Y004209D01*
X023942Y004208D01*
X023909Y004211D01*
X023877Y004218D01*
X023846Y004228D01*
X023817Y004242D01*
X023789Y004260D01*
X023764Y004280D01*
X023741Y004304D01*
X023721Y004330D01*
X023704Y004358D01*
X023691Y004388D01*
X023682Y004419D01*
X023676Y004451D01*
X023674Y004484D01*
D11*
X007160Y001094D02*
X006994Y001094D01*
X007077Y001094D02*
X007077Y001344D01*
X006994Y001261D01*
X006866Y001178D02*
X006866Y001344D01*
X006699Y001344D02*
X006699Y001178D01*
X006782Y001094D01*
X006866Y001178D01*
X006276Y001178D02*
X006276Y001136D01*
X006235Y001094D01*
X006110Y001094D01*
X006110Y001344D01*
X006235Y001344D01*
X006276Y001303D01*
X006276Y001261D01*
X006235Y001219D01*
X006110Y001219D01*
X006235Y001219D02*
X006276Y001178D01*
X005982Y001178D02*
X005982Y001136D01*
X005940Y001094D01*
X005857Y001094D01*
X005815Y001136D01*
X005857Y001219D02*
X005940Y001219D01*
X005982Y001178D01*
X005982Y001303D02*
X005940Y001344D01*
X005857Y001344D01*
X005815Y001303D01*
X005815Y001261D01*
X005857Y001219D01*
X005687Y001136D02*
X005645Y001094D01*
X005562Y001094D01*
X005520Y001136D01*
X005520Y001303D01*
X005562Y001344D01*
X005645Y001344D01*
X005687Y001303D01*
D12*
X008851Y002516D03*
X009521Y002516D03*
X010426Y002516D03*
X011096Y002516D03*
X011096Y003303D03*
X010426Y003303D03*
X006765Y004091D03*
X006096Y004091D03*
X006096Y004878D03*
X006765Y004878D03*
X006765Y005666D03*
X006096Y005666D03*
X006096Y006453D03*
X006765Y006453D03*
D13*
X010466Y004091D03*
X011056Y004091D03*
D14*
X007395Y002516D03*
X005859Y002516D03*
D15*
X019391Y002622D03*
X020391Y002622D03*
X021391Y002622D03*
X022391Y002622D03*
X023391Y002622D03*
X023391Y001622D03*
X022391Y001622D03*
X021391Y001622D03*
X020391Y001622D03*
X019391Y001622D03*
X019391Y006347D03*
X020391Y006347D03*
X021391Y006347D03*
X022391Y006347D03*
X023391Y006347D03*
X023391Y007347D03*
X022391Y007347D03*
X021391Y007347D03*
X020391Y007347D03*
X019391Y007347D03*
D16*
X015033Y007634D03*
X014363Y007634D03*
X006765Y007240D03*
X006096Y007240D03*
X008851Y004091D03*
X009521Y004091D03*
X009521Y003303D03*
X008851Y003303D03*
X015151Y001335D03*
X015820Y001335D03*
D17*
X002021Y003106D03*
X002021Y005862D03*
D18*
X002218Y004878D03*
X002218Y004091D03*
D19*
X011194Y005149D03*
X011194Y006059D03*
X011194Y006969D03*
D20*
X008753Y006059D03*
D21*
X013202Y006059D03*
X013202Y005744D03*
X013202Y005429D03*
X013202Y005114D03*
X013202Y004799D03*
X013202Y004484D03*
X013202Y004169D03*
X013202Y003854D03*
X013202Y003540D03*
X013202Y003225D03*
X013202Y002910D03*
X017769Y002910D03*
X017769Y003225D03*
X017769Y003540D03*
X017769Y003854D03*
X017769Y004169D03*
X017769Y004484D03*
X017769Y004799D03*
X017769Y005114D03*
X017769Y005429D03*
X017769Y005744D03*
X017769Y006059D03*
D22*
X017060Y006768D03*
X016745Y006768D03*
X016430Y006768D03*
X016115Y006768D03*
X015800Y006768D03*
X015485Y006768D03*
X015170Y006768D03*
X014855Y006768D03*
X014540Y006768D03*
X014226Y006768D03*
X013911Y006768D03*
X013911Y002201D03*
X014226Y002201D03*
X014540Y002201D03*
X014855Y002201D03*
X015170Y002201D03*
X015485Y002201D03*
X015800Y002201D03*
X016115Y002201D03*
X016430Y002201D03*
X016745Y002201D03*
X017060Y002201D03*
D23*
X017309Y002225D02*
X017419Y002225D01*
X017309Y002336D02*
X017309Y001919D01*
X017725Y001919D01*
X017618Y002027D01*
X017309Y002336D01*
X017664Y002631D02*
X017943Y002352D01*
X017951Y002352D01*
X018089Y002490D01*
X018394Y002490D01*
X018609Y002275D01*
X018609Y001970D01*
X018394Y001754D01*
X018147Y001754D01*
X018612Y001289D01*
X019017Y001289D01*
X018891Y001415D01*
X018891Y001602D01*
X019371Y001602D01*
X019371Y001642D01*
X018891Y001642D01*
X018891Y001829D01*
X019184Y002122D01*
X019371Y002122D01*
X019371Y001642D01*
X019411Y001642D01*
X019411Y002122D01*
X019598Y002122D01*
X019665Y002055D01*
X019665Y002221D01*
X019921Y002477D01*
X019921Y002817D01*
X020196Y003092D01*
X020586Y003092D01*
X020861Y002817D01*
X020861Y002428D01*
X020586Y002152D01*
X020246Y002152D01*
X020125Y002031D01*
X020125Y002021D01*
X020196Y002092D01*
X020586Y002092D01*
X020861Y001817D01*
X020861Y001428D01*
X020586Y001152D01*
X020196Y001152D01*
X020077Y001271D01*
X019990Y001184D01*
X019750Y000944D01*
X024380Y000944D01*
X024380Y004386D01*
X024319Y004238D01*
X024197Y004115D01*
X024037Y004049D01*
X023863Y004049D01*
X023703Y004115D01*
X023581Y004238D01*
X023514Y004398D01*
X023514Y004571D01*
X023581Y004731D01*
X023703Y004854D01*
X023863Y004920D01*
X024037Y004920D01*
X024197Y004854D01*
X024319Y004731D01*
X024380Y004583D01*
X024380Y008025D01*
X019037Y008025D01*
X019097Y007965D01*
X019246Y007817D01*
X019586Y007817D01*
X019861Y007541D01*
X019861Y007152D01*
X019785Y007077D01*
X019796Y007077D01*
X019921Y007202D01*
X019921Y007541D01*
X020196Y007817D01*
X020586Y007817D01*
X020861Y007541D01*
X020861Y007152D01*
X020586Y006877D01*
X020246Y006877D01*
X019986Y006617D01*
X019796Y006617D01*
X019785Y006617D01*
X019861Y006541D01*
X019861Y006152D01*
X019762Y006053D01*
X020020Y006053D01*
X019921Y006152D01*
X019921Y006541D01*
X020196Y006817D01*
X020586Y006817D01*
X020861Y006541D01*
X020861Y006152D01*
X020762Y006053D01*
X020772Y006053D01*
X020921Y006202D01*
X020921Y006541D01*
X021196Y006817D01*
X021586Y006817D01*
X021673Y006729D01*
X021673Y006763D01*
X021673Y006954D01*
X021921Y007202D01*
X021921Y007541D01*
X022196Y007817D01*
X022586Y007817D01*
X022861Y007541D01*
X022861Y007152D01*
X022586Y006877D01*
X022246Y006877D01*
X022133Y006763D01*
X022133Y006753D01*
X022196Y006817D01*
X022586Y006817D01*
X022861Y006541D01*
X022861Y006152D01*
X022621Y005912D01*
X022621Y005783D01*
X022486Y005648D01*
X022149Y005311D01*
X024045Y003415D01*
X024180Y003280D01*
X024180Y002276D01*
X024180Y002086D01*
X023861Y001767D01*
X023861Y001428D01*
X023586Y001152D01*
X023196Y001152D01*
X022921Y001428D01*
X022921Y001817D01*
X023196Y002092D01*
X023536Y002092D01*
X023720Y002276D01*
X023720Y002287D01*
X023586Y002152D01*
X023196Y002152D01*
X023117Y002232D01*
X023117Y002214D01*
X023117Y002023D01*
X022861Y001767D01*
X022861Y001428D01*
X022586Y001152D01*
X022196Y001152D01*
X021921Y001428D01*
X021921Y001817D01*
X022196Y002092D01*
X022536Y002092D01*
X022657Y002214D01*
X022657Y002224D01*
X022586Y002152D01*
X022196Y002152D01*
X022133Y002216D01*
X022133Y002039D01*
X021861Y001767D01*
X021861Y001428D01*
X021586Y001152D01*
X021196Y001152D01*
X020921Y001428D01*
X020921Y001817D01*
X021196Y002092D01*
X021536Y002092D01*
X021673Y002229D01*
X021673Y002239D01*
X021586Y002152D01*
X021196Y002152D01*
X020921Y002428D01*
X020921Y002817D01*
X021161Y003057D01*
X021161Y003208D01*
X021059Y003310D01*
X018560Y003310D01*
X018987Y002883D01*
X019196Y003092D01*
X019586Y003092D01*
X019861Y002817D01*
X019861Y002428D01*
X019586Y002152D01*
X019196Y002152D01*
X018956Y002392D01*
X018827Y002392D01*
X018692Y002527D01*
X018244Y002975D01*
X018244Y002910D01*
X017769Y002910D01*
X017769Y002909D01*
X017769Y002631D01*
X018088Y002631D01*
X018134Y002643D01*
X018175Y002667D01*
X018208Y002701D01*
X018518Y002701D01*
X018244Y002787D02*
X018244Y002909D01*
X017769Y002909D01*
X017769Y002909D01*
X017769Y002631D01*
X017664Y002631D01*
X017752Y002542D02*
X018677Y002542D01*
X018922Y002622D02*
X019391Y002622D01*
X018922Y002622D02*
X018320Y003225D01*
X017769Y003225D01*
X017336Y003225D01*
X016273Y004288D01*
X016273Y004484D01*
X017060Y005272D01*
X017060Y006768D01*
X017309Y006823D02*
X017743Y006823D01*
X017901Y006665D02*
X017309Y006665D01*
X017309Y006506D02*
X018060Y006506D01*
X018126Y006308D02*
X017411Y006308D01*
X017324Y006220D01*
X017324Y005899D01*
X017324Y005584D01*
X017324Y005269D01*
X017324Y004954D01*
X017324Y004639D01*
X017324Y004324D01*
X017324Y004009D01*
X017324Y003694D01*
X017324Y003562D01*
X016597Y004288D01*
X016641Y004332D01*
X016641Y004527D01*
X017290Y005177D01*
X017290Y005367D01*
X017290Y006392D01*
X017309Y006410D01*
X017309Y007125D01*
X017266Y007168D01*
X017398Y007168D01*
X018592Y005974D01*
X018214Y005974D01*
X018214Y006220D01*
X018126Y006308D01*
X018218Y006348D02*
X017290Y006348D01*
X016830Y006293D02*
X016830Y005367D01*
X016316Y004852D01*
X016120Y004852D01*
X015905Y004637D01*
X015905Y004332D01*
X016043Y004194D01*
X016043Y004192D01*
X017240Y002995D01*
X017294Y002995D01*
X017294Y002910D01*
X017768Y002910D01*
X017768Y002909D01*
X017294Y002909D01*
X017294Y002903D01*
X017201Y002903D01*
X015823Y002903D01*
X015688Y002769D01*
X015688Y002769D01*
X015570Y002651D01*
X015570Y002646D01*
X015325Y002646D01*
X015054Y002646D01*
X015023Y002664D01*
X014978Y002676D01*
X014856Y002676D01*
X014856Y002201D01*
X014855Y002201D01*
X014855Y002676D01*
X014770Y002676D01*
X014770Y002690D01*
X014669Y002791D01*
X014692Y002814D01*
X014692Y003562D01*
X014833Y003703D01*
X014957Y003703D01*
X015148Y003703D01*
X015561Y004116D01*
X015638Y004116D01*
X015853Y004332D01*
X015853Y004637D01*
X015638Y004852D01*
X015333Y004852D01*
X015117Y004637D01*
X015117Y004332D01*
X015122Y004328D01*
X014957Y004163D01*
X014897Y004163D01*
X015066Y004332D01*
X015066Y004637D01*
X014850Y004852D01*
X014545Y004852D01*
X014407Y004714D01*
X013677Y004714D01*
X013677Y004799D01*
X013202Y004799D01*
X013202Y004800D01*
X013677Y004800D01*
X013677Y004921D01*
X016384Y004921D01*
X016542Y005079D02*
X014278Y005079D01*
X014260Y005061D02*
X014475Y005277D01*
X014475Y005582D01*
X014260Y005797D01*
X013955Y005797D01*
X013817Y005659D01*
X013647Y005659D01*
X013647Y005905D01*
X013647Y006220D01*
X013559Y006308D01*
X012844Y006308D01*
X012757Y006220D01*
X012757Y006001D01*
X012646Y006112D01*
X012517Y006112D01*
X012844Y006439D01*
X013039Y006439D01*
X013255Y006655D01*
X013255Y006783D01*
X013422Y006617D01*
X013612Y006617D01*
X013662Y006617D01*
X013662Y006410D01*
X013750Y006323D01*
X014027Y006323D01*
X014058Y006305D01*
X014103Y006293D01*
X014225Y006293D01*
X014225Y006767D01*
X014226Y006767D01*
X014226Y006293D01*
X014348Y006293D01*
X014393Y006305D01*
X014424Y006323D01*
X014625Y006323D01*
X014625Y005761D01*
X014625Y005720D01*
X014605Y005700D01*
X014605Y005395D01*
X014821Y005179D01*
X015126Y005179D01*
X015308Y005361D01*
X015490Y005179D01*
X015795Y005179D01*
X015977Y005361D01*
X016160Y005179D01*
X016465Y005179D01*
X016680Y005395D01*
X016680Y005700D01*
X016660Y005720D01*
X016660Y005761D01*
X016660Y006293D01*
X016745Y006293D01*
X016745Y006767D01*
X016745Y006767D01*
X016745Y006293D01*
X016830Y006293D01*
X016745Y006348D02*
X016745Y006348D01*
X016745Y006506D02*
X016745Y006506D01*
X016745Y006665D02*
X016745Y006665D01*
X016745Y006768D02*
X016745Y005351D01*
X016548Y005154D01*
X015879Y005154D01*
X015879Y004091D01*
X016273Y003697D01*
X015210Y003697D01*
X014855Y003343D01*
X014855Y002201D01*
X014855Y001768D01*
X014934Y001689D01*
X015643Y001689D01*
X015820Y001512D01*
X015820Y001335D01*
X015838Y001353D02*
X015801Y001353D01*
X015801Y001712D01*
X015580Y001712D01*
X015534Y001699D01*
X015493Y001676D01*
X015464Y001647D01*
X015429Y001682D01*
X014872Y001682D01*
X014814Y001623D01*
X014770Y001666D01*
X014770Y001726D01*
X014855Y001726D01*
X014855Y002201D01*
X014856Y002201D01*
X014856Y001726D01*
X014978Y001726D01*
X015023Y001738D01*
X015054Y001756D01*
X015325Y001756D01*
X015640Y001756D01*
X015955Y001756D01*
X016270Y001756D01*
X016515Y001756D01*
X016515Y001712D01*
X016633Y001594D01*
X016768Y001459D01*
X016940Y001459D01*
X016889Y001409D01*
X016889Y001213D01*
X016886Y001210D01*
X016216Y001210D01*
X016216Y001316D01*
X015839Y001316D01*
X015839Y001353D01*
X016216Y001353D01*
X016216Y001555D01*
X016204Y001601D01*
X016181Y001642D01*
X016147Y001676D01*
X016106Y001699D01*
X016060Y001712D01*
X015838Y001712D01*
X015838Y001353D01*
X015838Y001433D02*
X015801Y001433D01*
X015801Y001591D02*
X015838Y001591D01*
X016207Y001591D02*
X016636Y001591D01*
X016913Y001433D02*
X016216Y001433D01*
X016216Y001274D02*
X016889Y001274D01*
X016981Y000980D02*
X017257Y001256D01*
X017625Y001274D02*
X017977Y001274D01*
X017625Y001409D02*
X017574Y001459D01*
X017792Y001459D01*
X018287Y000964D01*
X018307Y000944D01*
X017465Y000944D01*
X017625Y001104D01*
X017625Y001409D01*
X017601Y001433D02*
X017818Y001433D01*
X018310Y001591D02*
X018891Y001591D01*
X018891Y001433D02*
X018469Y001433D01*
X018517Y001059D02*
X017887Y001689D01*
X016863Y001689D01*
X016745Y001807D01*
X016745Y002201D01*
X017309Y002067D02*
X017578Y002067D01*
X017848Y002122D02*
X018241Y002122D01*
X017848Y002122D02*
X017296Y002673D01*
X015918Y002673D01*
X015800Y002555D01*
X015800Y002201D01*
X014856Y002225D02*
X014855Y002225D01*
X014855Y002384D02*
X014856Y002384D01*
X014855Y002542D02*
X014856Y002542D01*
X014759Y002701D02*
X015621Y002701D01*
X015779Y002860D02*
X014692Y002860D01*
X014692Y003018D02*
X017217Y003018D01*
X017060Y002910D02*
X016273Y003697D01*
X016424Y003811D02*
X015255Y003811D01*
X015414Y003969D02*
X016266Y003969D01*
X016107Y004128D02*
X015649Y004128D01*
X015808Y004286D02*
X015950Y004286D01*
X015905Y004445D02*
X015853Y004445D01*
X015853Y004604D02*
X015905Y004604D01*
X016030Y004762D02*
X015728Y004762D01*
X015242Y004762D02*
X014941Y004762D01*
X015066Y004604D02*
X015117Y004604D01*
X015117Y004445D02*
X015066Y004445D01*
X014698Y004484D02*
X013202Y004484D01*
X012757Y004445D02*
X011716Y004445D01*
X011778Y004383D02*
X011581Y004580D01*
X011447Y004714D01*
X010715Y004714D01*
X010715Y004733D01*
X010730Y004729D01*
X011153Y004729D01*
X011153Y005109D01*
X011234Y005109D01*
X011234Y005189D01*
X011814Y005189D01*
X011814Y005233D01*
X012027Y005019D01*
X012162Y004884D01*
X012727Y004884D01*
X012727Y004800D01*
X013201Y004800D01*
X013201Y004799D01*
X012727Y004799D01*
X012727Y004677D01*
X012739Y004631D01*
X012757Y004601D01*
X012757Y004330D01*
X012757Y004084D01*
X012626Y004084D01*
X012488Y004223D01*
X012183Y004223D01*
X011968Y004007D01*
X011968Y003702D01*
X012183Y003486D01*
X012194Y003486D01*
X012106Y003399D01*
X012106Y003208D01*
X012106Y003200D01*
X011968Y003062D01*
X011968Y002757D01*
X012183Y002541D01*
X012233Y002541D01*
X011778Y002087D01*
X011778Y002178D01*
X011778Y002972D01*
X011778Y004192D01*
X011778Y004383D01*
X011778Y004286D02*
X012757Y004286D01*
X012757Y004128D02*
X012583Y004128D01*
X012089Y004128D02*
X011778Y004128D01*
X011778Y003969D02*
X011968Y003969D01*
X012336Y003854D02*
X013202Y003854D01*
X013647Y003811D02*
X013827Y003811D01*
X013862Y003776D02*
X013700Y003613D01*
X013700Y003455D01*
X013647Y003455D01*
X013647Y003700D01*
X013647Y003939D01*
X013700Y003939D01*
X013700Y003938D01*
X013862Y003776D01*
X013739Y003652D02*
X013647Y003652D01*
X013647Y003494D02*
X013700Y003494D01*
X013832Y003225D02*
X014068Y003461D01*
X013832Y003225D02*
X013202Y003225D01*
X012757Y003177D02*
X012589Y003177D01*
X012566Y003200D02*
X012566Y003208D01*
X012667Y003310D01*
X012757Y003310D01*
X012757Y003065D01*
X012704Y003012D01*
X012704Y003062D01*
X012566Y003200D01*
X012336Y003303D02*
X012572Y003540D01*
X013202Y003540D01*
X012336Y003303D02*
X012336Y002910D01*
X011968Y002860D02*
X011778Y002860D01*
X011778Y003018D02*
X011968Y003018D01*
X012082Y003177D02*
X011778Y003177D01*
X011548Y003067D02*
X011548Y002083D01*
X011312Y001847D01*
X011312Y001374D01*
X011470Y001217D01*
X012060Y001217D01*
X012296Y001453D01*
X012296Y001886D01*
X013044Y002634D01*
X013635Y002634D01*
X013792Y002791D01*
X014344Y002791D01*
X014462Y002910D01*
X014462Y003658D01*
X014737Y003933D01*
X015052Y003933D01*
X015485Y004366D01*
X015485Y004484D01*
X015080Y004286D02*
X015021Y004286D01*
X014595Y004116D02*
X014545Y004116D01*
X014436Y004226D01*
X014436Y003957D01*
X014507Y004028D01*
X014595Y004116D01*
X014534Y004128D02*
X014436Y004128D01*
X014436Y003969D02*
X014448Y003969D01*
X014068Y004091D02*
X013989Y004169D01*
X013202Y004169D01*
X012755Y004604D02*
X011558Y004604D01*
X011351Y004484D02*
X010485Y004484D01*
X010485Y005784D01*
X010761Y006059D01*
X011194Y006059D01*
X011587Y006453D01*
X012139Y006453D01*
X012336Y006650D01*
X012336Y007240D01*
X013123Y007240D01*
X013517Y006847D01*
X013911Y006847D01*
X013911Y006768D01*
X014225Y006768D02*
X014225Y007243D01*
X014103Y007243D01*
X014058Y007231D01*
X014027Y007213D01*
X013750Y007213D01*
X013662Y007125D01*
X013662Y007077D01*
X013612Y007077D01*
X013305Y007384D01*
X013433Y007384D01*
X013649Y007600D01*
X013649Y007905D01*
X013528Y008025D01*
X015748Y008025D01*
X015688Y007965D01*
X015399Y007676D01*
X015399Y007893D01*
X015311Y007981D01*
X014754Y007981D01*
X014719Y007946D01*
X014690Y007975D01*
X014649Y007999D01*
X014604Y008011D01*
X014382Y008011D01*
X014382Y007653D01*
X014345Y007653D01*
X014345Y008011D01*
X014123Y008011D01*
X014077Y007999D01*
X014036Y007975D01*
X014003Y007941D01*
X013979Y007900D01*
X013967Y007855D01*
X013967Y007652D01*
X014345Y007652D01*
X014345Y007616D01*
X013649Y007616D01*
X013967Y007616D02*
X013967Y007413D01*
X013979Y007368D01*
X014003Y007327D01*
X014036Y007293D01*
X014077Y007269D01*
X014123Y007257D01*
X014331Y007257D01*
X014316Y007243D01*
X014226Y007243D01*
X014226Y006768D01*
X014225Y006768D01*
X014226Y006768D02*
X014226Y007496D01*
X014363Y007634D01*
X014345Y007616D02*
X013967Y007616D01*
X013967Y007774D02*
X013649Y007774D01*
X013620Y007933D02*
X013998Y007933D01*
X014345Y007933D02*
X014382Y007933D01*
X014382Y007774D02*
X014345Y007774D01*
X014540Y007142D02*
X015033Y007634D01*
X015399Y007774D02*
X015497Y007774D01*
X015359Y007933D02*
X015656Y007933D01*
X015918Y007870D02*
X018867Y007870D01*
X019391Y007347D01*
X019861Y007299D02*
X019921Y007299D01*
X019921Y007457D02*
X019861Y007457D01*
X019786Y007616D02*
X019995Y007616D01*
X020154Y007774D02*
X019628Y007774D01*
X019130Y007933D02*
X024380Y007933D01*
X024380Y007774D02*
X023670Y007774D01*
X023598Y007847D02*
X023411Y007847D01*
X023411Y007367D01*
X023371Y007367D01*
X023371Y007847D01*
X023184Y007847D01*
X022891Y007554D01*
X022891Y007367D01*
X023371Y007367D01*
X023371Y007327D01*
X022891Y007327D01*
X022891Y007139D01*
X023184Y006847D01*
X023371Y006847D01*
X023371Y007326D01*
X023411Y007326D01*
X023411Y006847D01*
X023598Y006847D01*
X023891Y007139D01*
X023891Y007327D01*
X023411Y007327D01*
X023411Y007367D01*
X023891Y007367D01*
X023891Y007554D01*
X023598Y007847D01*
X023411Y007774D02*
X023371Y007774D01*
X023112Y007774D02*
X022628Y007774D01*
X022786Y007616D02*
X022953Y007616D01*
X022891Y007457D02*
X022861Y007457D01*
X022861Y007299D02*
X022891Y007299D01*
X022891Y007140D02*
X022849Y007140D01*
X022691Y006982D02*
X023049Y006982D01*
X023371Y006982D02*
X023411Y006982D01*
X023411Y007140D02*
X023371Y007140D01*
X023371Y007299D02*
X023411Y007299D01*
X023411Y007457D02*
X023371Y007457D01*
X023371Y007616D02*
X023411Y007616D01*
X023829Y007616D02*
X024380Y007616D01*
X024380Y007457D02*
X023891Y007457D01*
X023891Y007299D02*
X024380Y007299D01*
X024380Y007140D02*
X023891Y007140D01*
X023733Y006982D02*
X024380Y006982D01*
X024380Y006823D02*
X022193Y006823D01*
X021903Y006858D02*
X022391Y007347D01*
X021921Y007299D02*
X021861Y007299D01*
X021861Y007457D02*
X021921Y007457D01*
X021861Y007541D02*
X021586Y007817D01*
X021196Y007817D01*
X020921Y007541D01*
X020921Y007152D01*
X021196Y006877D01*
X021586Y006877D01*
X021861Y007152D01*
X021861Y007541D01*
X021786Y007616D02*
X021995Y007616D01*
X022154Y007774D02*
X021628Y007774D01*
X021154Y007774D02*
X020628Y007774D01*
X020786Y007616D02*
X020995Y007616D01*
X020921Y007457D02*
X020861Y007457D01*
X020861Y007299D02*
X020921Y007299D01*
X020933Y007140D02*
X020849Y007140D01*
X020691Y006982D02*
X021091Y006982D01*
X021691Y006982D02*
X021701Y006982D01*
X021903Y006858D02*
X021903Y005941D01*
X021548Y005587D01*
X018911Y005587D01*
X018753Y005744D01*
X017769Y005744D01*
X017324Y005713D02*
X017290Y005713D01*
X016830Y005713D02*
X016667Y005713D01*
X016430Y005666D02*
X016312Y005547D01*
X016430Y005666D02*
X016430Y006768D01*
X016115Y006768D02*
X016115Y007083D01*
X016430Y007398D01*
X017493Y007398D01*
X019068Y005823D01*
X020867Y005823D01*
X021391Y006347D01*
X020921Y006348D02*
X020861Y006348D01*
X020861Y006506D02*
X020921Y006506D01*
X021044Y006665D02*
X020737Y006665D01*
X020193Y006823D02*
X021673Y006823D01*
X021849Y007140D02*
X021859Y007140D01*
X022737Y006665D02*
X023044Y006665D01*
X022921Y006541D02*
X023196Y006817D01*
X023586Y006817D01*
X023861Y006541D01*
X023861Y006152D01*
X023586Y005877D01*
X023196Y005877D01*
X022921Y006152D01*
X022921Y006541D01*
X022921Y006506D02*
X022861Y006506D01*
X022861Y006348D02*
X022921Y006348D01*
X022921Y006189D02*
X022861Y006189D01*
X022739Y006030D02*
X023042Y006030D01*
X022621Y005872D02*
X024380Y005872D01*
X024380Y006030D02*
X023739Y006030D01*
X023861Y006189D02*
X024380Y006189D01*
X024380Y006348D02*
X023861Y006348D01*
X023861Y006506D02*
X024380Y006506D01*
X024380Y006665D02*
X023737Y006665D01*
X022391Y006347D02*
X022391Y005878D01*
X021863Y005351D01*
X018714Y005351D01*
X018635Y005429D01*
X017769Y005429D01*
X017324Y005396D02*
X017290Y005396D01*
X016830Y005396D02*
X016680Y005396D01*
X016680Y005555D02*
X016830Y005555D01*
X017290Y005555D02*
X017324Y005555D01*
X017324Y005872D02*
X017290Y005872D01*
X017290Y006030D02*
X017324Y006030D01*
X017324Y006189D02*
X017290Y006189D01*
X016830Y006189D02*
X016660Y006189D01*
X016660Y006030D02*
X016830Y006030D01*
X016830Y005872D02*
X016660Y005872D01*
X016200Y005915D02*
X016160Y005915D01*
X015977Y005733D01*
X015795Y005915D01*
X015715Y005915D01*
X015715Y006323D01*
X015961Y006323D01*
X016200Y006323D01*
X016200Y005915D01*
X016116Y005872D02*
X015839Y005872D01*
X015715Y006030D02*
X016200Y006030D01*
X016200Y006189D02*
X015715Y006189D01*
X015255Y006189D02*
X015085Y006189D01*
X015085Y006323D02*
X015255Y006323D01*
X015255Y005800D01*
X015255Y005786D01*
X015126Y005915D01*
X015085Y005915D01*
X015085Y006323D01*
X014625Y006189D02*
X013647Y006189D01*
X013647Y006030D02*
X014625Y006030D01*
X014625Y005872D02*
X013647Y005872D01*
X013647Y005713D02*
X013871Y005713D01*
X014226Y005941D02*
X014540Y005626D01*
X014540Y005036D01*
X014659Y005154D01*
X015879Y005154D01*
X015854Y005238D02*
X016101Y005238D01*
X016523Y005238D02*
X016701Y005238D01*
X017193Y005079D02*
X017324Y005079D01*
X017324Y005238D02*
X017290Y005238D01*
X017769Y005114D02*
X022021Y005114D01*
X023950Y003185D01*
X023950Y002181D01*
X023391Y001622D01*
X023861Y001591D02*
X024380Y001591D01*
X024380Y001433D02*
X023861Y001433D01*
X023707Y001274D02*
X024380Y001274D01*
X024380Y001116D02*
X019922Y001116D01*
X019895Y001414D02*
X019540Y001059D01*
X018517Y001059D01*
X018294Y000957D02*
X017479Y000957D01*
X017625Y001116D02*
X018135Y001116D01*
X016981Y000980D02*
X013871Y000980D01*
X013241Y001610D01*
X012873Y001591D02*
X012763Y001591D01*
X012763Y001673D02*
X012903Y001813D01*
X012924Y001813D01*
X012873Y001763D01*
X012873Y001458D01*
X013089Y001242D01*
X013284Y001242D01*
X013583Y000944D01*
X012506Y000944D01*
X012628Y001065D01*
X012763Y001200D01*
X012763Y001673D01*
X012840Y001750D02*
X012873Y001750D01*
X012808Y002043D02*
X012533Y001768D01*
X012533Y001295D01*
X012218Y000980D01*
X010722Y000980D01*
X009521Y002181D01*
X009521Y002516D01*
X009868Y002542D02*
X010074Y002542D01*
X010079Y002537D02*
X010079Y002237D01*
X010167Y002149D01*
X010685Y002149D01*
X010761Y002225D01*
X010837Y002149D01*
X010857Y002149D01*
X010804Y002097D01*
X010608Y002097D01*
X010393Y001881D01*
X010393Y001634D01*
X009829Y002198D01*
X009868Y002237D01*
X009868Y002749D01*
X010079Y002537D01*
X010079Y002384D02*
X009868Y002384D01*
X009856Y002225D02*
X010091Y002225D01*
X009960Y002067D02*
X010579Y002067D01*
X010420Y001908D02*
X010119Y001908D01*
X010277Y001750D02*
X010393Y001750D01*
X010761Y001729D02*
X011096Y002063D01*
X011096Y002516D01*
X010426Y002516D02*
X010426Y002772D01*
X010564Y002910D01*
X011391Y002910D01*
X011548Y003067D01*
X011548Y004288D01*
X011351Y004484D01*
X011234Y004729D02*
X011657Y004729D01*
X011703Y004741D01*
X011744Y004765D01*
X011778Y004799D01*
X011801Y004840D01*
X011814Y004885D01*
X011814Y005109D01*
X011234Y005109D01*
X011234Y004729D01*
X011234Y004762D02*
X011153Y004762D01*
X011194Y005149D02*
X011543Y004799D01*
X011981Y004799D01*
X013202Y004799D01*
X014304Y004799D01*
X014540Y005036D01*
X014260Y005061D02*
X013955Y005061D01*
X013817Y005199D01*
X013647Y005199D01*
X013647Y004998D01*
X013665Y004967D01*
X013677Y004921D01*
X013677Y004762D02*
X014455Y004762D01*
X013937Y005079D02*
X013647Y005079D01*
X013202Y005114D02*
X012257Y005114D01*
X011942Y005429D01*
X011942Y005862D01*
X012887Y006807D01*
X013255Y006665D02*
X013374Y006665D01*
X013106Y006506D02*
X013662Y006506D01*
X013725Y006348D02*
X012752Y006348D01*
X012757Y006189D02*
X012594Y006189D01*
X012728Y006030D02*
X012757Y006030D01*
X012493Y005744D02*
X013202Y005744D01*
X013202Y005429D02*
X014107Y005429D01*
X014475Y005396D02*
X014605Y005396D01*
X014605Y005555D02*
X014475Y005555D01*
X014344Y005713D02*
X014619Y005713D01*
X014855Y005666D02*
X014974Y005547D01*
X014855Y005666D02*
X014855Y006768D01*
X015170Y006768D02*
X015170Y007122D01*
X015918Y007870D01*
X016273Y007634D02*
X018241Y007634D01*
X019029Y006847D01*
X019891Y006847D01*
X020391Y007347D01*
X019859Y007140D02*
X019849Y007140D01*
X018921Y007280D02*
X018921Y007491D01*
X018772Y007640D01*
X018560Y007640D01*
X018921Y007280D01*
X018921Y007299D02*
X018902Y007299D01*
X018921Y007457D02*
X018743Y007457D01*
X018796Y007616D02*
X018585Y007616D01*
X018146Y007404D02*
X018799Y006751D01*
X018933Y006617D01*
X018996Y006617D01*
X018921Y006541D01*
X018921Y006295D01*
X017812Y007404D01*
X018146Y007404D01*
X018251Y007299D02*
X017917Y007299D01*
X018076Y007140D02*
X018410Y007140D01*
X018568Y006982D02*
X018234Y006982D01*
X018393Y006823D02*
X018727Y006823D01*
X018885Y006665D02*
X018552Y006665D01*
X018710Y006506D02*
X018921Y006506D01*
X018921Y006348D02*
X018869Y006348D01*
X018377Y006189D02*
X018214Y006189D01*
X018214Y006030D02*
X018535Y006030D01*
X019861Y006189D02*
X019921Y006189D01*
X019921Y006348D02*
X019861Y006348D01*
X019861Y006506D02*
X019921Y006506D01*
X020034Y006665D02*
X020044Y006665D01*
X020861Y006189D02*
X020908Y006189D01*
X021241Y005872D02*
X021508Y005872D01*
X021513Y005877D02*
X021453Y005817D01*
X021186Y005817D01*
X021246Y005877D01*
X021513Y005877D01*
X022393Y005555D02*
X024380Y005555D01*
X024380Y005713D02*
X022551Y005713D01*
X022234Y005396D02*
X024380Y005396D01*
X024380Y005238D02*
X022223Y005238D01*
X022381Y005079D02*
X024380Y005079D01*
X024380Y004921D02*
X022540Y004921D01*
X022698Y004762D02*
X023612Y004762D01*
X023528Y004604D02*
X022857Y004604D01*
X023015Y004445D02*
X023514Y004445D01*
X023560Y004286D02*
X023174Y004286D01*
X023332Y004128D02*
X023690Y004128D01*
X023491Y003969D02*
X024380Y003969D01*
X024380Y003811D02*
X023649Y003811D01*
X023808Y003652D02*
X024380Y003652D01*
X024380Y003494D02*
X023967Y003494D01*
X024125Y003335D02*
X024380Y003335D01*
X024380Y003177D02*
X024180Y003177D01*
X024180Y003018D02*
X024380Y003018D01*
X024380Y002860D02*
X024180Y002860D01*
X024180Y002701D02*
X024380Y002701D01*
X024380Y002542D02*
X024180Y002542D01*
X024180Y002384D02*
X024380Y002384D01*
X024380Y002225D02*
X024180Y002225D01*
X024161Y002067D02*
X024380Y002067D01*
X024380Y001908D02*
X024002Y001908D01*
X023861Y001750D02*
X024380Y001750D01*
X023171Y002067D02*
X023117Y002067D01*
X022887Y002118D02*
X022391Y001622D01*
X022861Y001591D02*
X022921Y001591D01*
X022921Y001433D02*
X022861Y001433D01*
X022707Y001274D02*
X023074Y001274D01*
X022074Y001274D02*
X021707Y001274D01*
X021861Y001433D02*
X021921Y001433D01*
X021921Y001591D02*
X021861Y001591D01*
X021861Y001750D02*
X021921Y001750D01*
X022002Y001908D02*
X022012Y001908D01*
X022133Y002067D02*
X022171Y002067D01*
X021903Y002134D02*
X021391Y001622D01*
X020921Y001591D02*
X020861Y001591D01*
X020861Y001433D02*
X020921Y001433D01*
X021074Y001274D02*
X020707Y001274D01*
X019895Y001414D02*
X019895Y002126D01*
X020391Y002622D01*
X020861Y002701D02*
X020921Y002701D01*
X020921Y002542D02*
X020861Y002542D01*
X020817Y002384D02*
X020964Y002384D01*
X021123Y002225D02*
X020659Y002225D01*
X020611Y002067D02*
X021171Y002067D01*
X021012Y001908D02*
X020769Y001908D01*
X020861Y001750D02*
X020921Y001750D01*
X020171Y002067D02*
X020161Y002067D01*
X019665Y002067D02*
X019653Y002067D01*
X019411Y002067D02*
X019371Y002067D01*
X019128Y002067D02*
X018609Y002067D01*
X018609Y002225D02*
X019123Y002225D01*
X018964Y002384D02*
X018500Y002384D01*
X017982Y002384D02*
X017911Y002384D01*
X017769Y002701D02*
X017769Y002701D01*
X017769Y002860D02*
X017769Y002860D01*
X017769Y002910D02*
X017060Y002910D01*
X017769Y002910D02*
X018103Y002910D01*
X019391Y001622D01*
X019371Y001750D02*
X019411Y001750D01*
X019411Y001908D02*
X019371Y001908D01*
X018970Y001908D02*
X018548Y001908D01*
X018891Y001750D02*
X018151Y001750D01*
X019659Y002225D02*
X019669Y002225D01*
X019817Y002384D02*
X019827Y002384D01*
X019861Y002542D02*
X019921Y002542D01*
X019921Y002701D02*
X019861Y002701D01*
X019818Y002860D02*
X019964Y002860D01*
X020122Y003018D02*
X019660Y003018D01*
X019122Y003018D02*
X018852Y003018D01*
X018693Y003177D02*
X021161Y003177D01*
X021122Y003018D02*
X020660Y003018D01*
X020818Y002860D02*
X020964Y002860D01*
X021391Y002622D02*
X021391Y003303D01*
X021155Y003540D01*
X017769Y003540D01*
X017324Y003652D02*
X017233Y003652D01*
X017324Y003811D02*
X017075Y003811D01*
X016916Y003969D02*
X017324Y003969D01*
X017769Y003854D02*
X021627Y003854D01*
X021903Y003579D01*
X021903Y002134D01*
X021669Y002225D02*
X021659Y002225D01*
X022391Y002622D02*
X022391Y003484D01*
X021706Y004169D01*
X017769Y004169D01*
X017324Y004128D02*
X016758Y004128D01*
X016599Y004286D02*
X017324Y004286D01*
X017324Y004445D02*
X016641Y004445D01*
X016717Y004604D02*
X017324Y004604D01*
X017769Y004484D02*
X021785Y004484D01*
X022887Y003382D01*
X022887Y002118D01*
X023002Y001908D02*
X023012Y001908D01*
X022921Y001750D02*
X022861Y001750D01*
X023117Y002225D02*
X023123Y002225D01*
X023659Y002225D02*
X023669Y002225D01*
X023391Y002622D02*
X023391Y003272D01*
X021863Y004799D01*
X017769Y004799D01*
X017324Y004762D02*
X016876Y004762D01*
X017034Y004921D02*
X017324Y004921D01*
X015643Y005547D02*
X015485Y005705D01*
X015485Y006768D01*
X015800Y006768D02*
X015800Y007162D01*
X016273Y007634D01*
X017294Y007140D02*
X017426Y007140D01*
X017309Y006982D02*
X017584Y006982D01*
X015255Y006030D02*
X015085Y006030D01*
X015170Y005872D02*
X015255Y005872D01*
X014226Y005941D02*
X014226Y006768D01*
X014225Y006823D02*
X014226Y006823D01*
X014225Y006665D02*
X014226Y006665D01*
X014540Y006768D02*
X014540Y007142D01*
X014226Y007140D02*
X014225Y007140D01*
X014225Y006982D02*
X014226Y006982D01*
X013677Y007140D02*
X013548Y007140D01*
X013390Y007299D02*
X014031Y007299D01*
X013967Y007457D02*
X013506Y007457D01*
X013042Y007470D02*
X013028Y007470D01*
X012431Y007470D01*
X012379Y007522D01*
X012990Y007522D01*
X013042Y007470D01*
X013281Y007752D02*
X007277Y007752D01*
X006765Y007240D01*
X007131Y007282D02*
X007372Y007522D01*
X007373Y007522D01*
X007243Y007393D01*
X007243Y007197D01*
X007131Y007086D01*
X007131Y007282D01*
X007149Y007299D02*
X007243Y007299D01*
X007307Y007457D02*
X007308Y007457D01*
X007611Y007240D02*
X006824Y006453D01*
X006765Y006453D01*
X006430Y006744D02*
X006355Y006819D01*
X005837Y006819D01*
X005749Y006732D01*
X005749Y006683D01*
X005738Y006683D01*
X005548Y006683D01*
X004068Y005203D01*
X004068Y006687D01*
X004134Y006687D01*
X004228Y006780D01*
X004228Y007496D01*
X004289Y007348D01*
X004412Y007225D01*
X004572Y007159D01*
X004745Y007159D01*
X004905Y007225D01*
X005028Y007348D01*
X005094Y007508D01*
X005094Y007681D01*
X005028Y007841D01*
X004905Y007964D01*
X004757Y008025D01*
X013033Y008025D01*
X012990Y007982D01*
X007181Y007982D01*
X007047Y007847D01*
X006786Y007587D01*
X006486Y007587D01*
X006451Y007552D01*
X006423Y007581D01*
X006382Y007605D01*
X006336Y007617D01*
X006114Y007617D01*
X006114Y007259D01*
X006077Y007259D01*
X006077Y007617D01*
X005855Y007617D01*
X005810Y007605D01*
X005769Y007581D01*
X005735Y007548D01*
X005711Y007507D01*
X005699Y007461D01*
X005699Y007259D01*
X006077Y007259D01*
X006077Y007222D01*
X005699Y007222D01*
X005699Y007020D01*
X005711Y006974D01*
X005735Y006933D01*
X005769Y006899D01*
X005810Y006876D01*
X005855Y006863D01*
X006077Y006863D01*
X006077Y007222D01*
X006114Y007222D01*
X006114Y006863D01*
X006336Y006863D01*
X006382Y006876D01*
X006423Y006899D01*
X006451Y006928D01*
X006486Y006893D01*
X006939Y006893D01*
X006865Y006819D01*
X006506Y006819D01*
X006430Y006744D01*
X006869Y006823D02*
X004228Y006823D01*
X004068Y006665D02*
X005529Y006665D01*
X005371Y006506D02*
X004068Y006506D01*
X004068Y006348D02*
X005212Y006348D01*
X005643Y006453D02*
X004068Y004878D01*
X002218Y004878D01*
X002218Y004091D02*
X004855Y004091D01*
X005643Y004878D01*
X006096Y004878D01*
X005749Y004648D02*
X005749Y004599D01*
X005837Y004512D01*
X006355Y004512D01*
X006430Y004587D01*
X006506Y004512D01*
X007024Y004512D01*
X007112Y004599D01*
X007112Y004648D01*
X008828Y004648D01*
X008756Y004577D01*
X008621Y004442D01*
X008621Y004438D01*
X008573Y004438D01*
X008485Y004350D01*
X008485Y004321D01*
X007707Y004321D01*
X007516Y004321D01*
X007122Y003927D01*
X007112Y003916D01*
X007112Y004369D01*
X007024Y004457D01*
X006506Y004457D01*
X006430Y004382D01*
X006355Y004457D01*
X005837Y004457D01*
X005749Y004369D01*
X005749Y004321D01*
X005548Y004321D01*
X005413Y004186D01*
X004898Y003671D01*
X004703Y003671D01*
X004487Y003456D01*
X004487Y003209D01*
X004360Y003336D01*
X004170Y003336D01*
X004068Y003336D01*
X004068Y003861D01*
X004760Y003861D01*
X004951Y003861D01*
X005738Y004648D01*
X005749Y004648D01*
X005749Y004604D02*
X005694Y004604D01*
X005824Y004445D02*
X005535Y004445D01*
X005513Y004286D02*
X005376Y004286D01*
X005355Y004128D02*
X005218Y004128D01*
X005643Y004091D02*
X006096Y004091D01*
X005643Y004091D02*
X004855Y003303D01*
X004487Y003335D02*
X004361Y003335D01*
X004525Y003494D02*
X004068Y003494D01*
X004068Y003652D02*
X004684Y003652D01*
X005038Y003811D02*
X004068Y003811D01*
X005059Y003969D02*
X005196Y003969D01*
X005688Y003811D02*
X005750Y003811D01*
X005749Y003812D02*
X005837Y003724D01*
X006355Y003724D01*
X006430Y003800D01*
X006506Y003724D01*
X006535Y003724D01*
X006535Y001883D01*
X006535Y001692D01*
X006694Y001533D01*
X005216Y001533D01*
X005169Y001486D01*
X005169Y000944D01*
X004757Y000944D01*
X004905Y001005D01*
X005028Y001127D01*
X005094Y001287D01*
X005094Y001461D01*
X005028Y001621D01*
X004905Y001743D01*
X004745Y001810D01*
X004572Y001810D01*
X004412Y001743D01*
X004289Y001621D01*
X004228Y001473D01*
X004228Y002056D01*
X004228Y002188D01*
X004134Y002282D01*
X004068Y002282D01*
X004068Y002876D01*
X004170Y002876D01*
X004625Y002421D01*
X004760Y002286D01*
X005335Y002286D01*
X005335Y001784D01*
X005423Y001697D01*
X006296Y001697D01*
X006383Y001784D01*
X006383Y003247D01*
X006296Y003335D01*
X005423Y003335D01*
X005335Y003247D01*
X005335Y002746D01*
X004951Y002746D01*
X004761Y002935D01*
X005008Y002935D01*
X005224Y003151D01*
X005224Y003346D01*
X005738Y003861D01*
X005749Y003861D01*
X005749Y003812D01*
X005530Y003652D02*
X006535Y003652D01*
X006535Y003494D02*
X005371Y003494D01*
X005224Y003335D02*
X006535Y003335D01*
X006535Y003177D02*
X006383Y003177D01*
X006383Y003018D02*
X006535Y003018D01*
X006535Y002860D02*
X006383Y002860D01*
X006383Y002701D02*
X006535Y002701D01*
X006535Y002542D02*
X006383Y002542D01*
X006383Y002384D02*
X006535Y002384D01*
X006535Y002225D02*
X006383Y002225D01*
X006383Y002067D02*
X006535Y002067D01*
X006535Y001908D02*
X006383Y001908D01*
X006349Y001750D02*
X006535Y001750D01*
X006765Y001788D02*
X006981Y001571D01*
X008241Y001571D01*
X008399Y001729D01*
X008031Y001801D02*
X007919Y001801D01*
X007919Y003247D01*
X007831Y003335D01*
X007448Y003335D01*
X007448Y003602D01*
X007707Y003861D01*
X008485Y003861D01*
X008485Y003832D01*
X008573Y003744D01*
X009130Y003744D01*
X009165Y003779D01*
X009194Y003750D01*
X009235Y003726D01*
X009281Y003714D01*
X009502Y003714D01*
X009502Y004072D01*
X009539Y004072D01*
X009539Y003714D01*
X009761Y003714D01*
X009807Y003726D01*
X009848Y003750D01*
X009881Y003783D01*
X009905Y003824D01*
X009917Y003870D01*
X009917Y004072D01*
X009539Y004072D01*
X009539Y004109D01*
X009917Y004109D01*
X009917Y004254D01*
X010069Y004254D01*
X010204Y004389D01*
X010255Y004441D01*
X010255Y004398D01*
X010246Y004398D01*
X010158Y004310D01*
X010158Y003871D01*
X010246Y003783D01*
X010685Y003783D01*
X010761Y003859D01*
X010826Y003794D01*
X010826Y003659D01*
X010778Y003611D01*
X010767Y003630D01*
X010734Y003664D01*
X010693Y003688D01*
X010647Y003700D01*
X010445Y003700D01*
X010445Y003322D01*
X010408Y003322D01*
X010408Y003700D01*
X010206Y003700D01*
X010160Y003688D01*
X010119Y003664D01*
X010085Y003630D01*
X010062Y003589D01*
X010049Y003544D01*
X010049Y003322D01*
X010408Y003322D01*
X010408Y003285D01*
X010049Y003285D01*
X010049Y003218D01*
X009887Y003380D01*
X009887Y003562D01*
X009799Y003650D01*
X009242Y003650D01*
X009207Y003615D01*
X009179Y003644D01*
X009137Y003668D01*
X009092Y003680D01*
X008870Y003680D01*
X008870Y003322D01*
X008833Y003322D01*
X008833Y003680D01*
X008611Y003680D01*
X008565Y003668D01*
X008524Y003644D01*
X008491Y003611D01*
X008467Y003570D01*
X008455Y003524D01*
X008455Y003322D01*
X008833Y003322D01*
X008833Y003285D01*
X008455Y003285D01*
X008455Y003083D01*
X008467Y003037D01*
X008491Y002996D01*
X008524Y002962D01*
X008565Y002939D01*
X008611Y002926D01*
X008681Y002926D01*
X008641Y002887D01*
X008641Y002882D01*
X008592Y002882D01*
X008505Y002795D01*
X008505Y002237D01*
X008592Y002149D01*
X009110Y002149D01*
X009186Y002225D01*
X009262Y002149D01*
X009291Y002149D01*
X009291Y002086D01*
X010433Y000944D01*
X007494Y000944D01*
X007494Y001341D01*
X008146Y001341D01*
X008336Y001341D01*
X008356Y001360D01*
X008551Y001360D01*
X008767Y001576D01*
X008767Y001881D01*
X008551Y002097D01*
X008246Y002097D01*
X008031Y001881D01*
X008031Y001801D01*
X008058Y001908D02*
X007919Y001908D01*
X007919Y002067D02*
X008217Y002067D01*
X008581Y002067D02*
X009310Y002067D01*
X009468Y001908D02*
X008739Y001908D01*
X008767Y001750D02*
X009627Y001750D01*
X009786Y001591D02*
X008767Y001591D01*
X008623Y001433D02*
X009944Y001433D01*
X010103Y001274D02*
X007494Y001274D01*
X007494Y001116D02*
X010261Y001116D01*
X010420Y000957D02*
X007494Y000957D01*
X006636Y001591D02*
X005040Y001591D01*
X005094Y001433D02*
X005169Y001433D01*
X005169Y001274D02*
X005089Y001274D01*
X005016Y001116D02*
X005169Y001116D01*
X005169Y000957D02*
X004790Y000957D01*
X004560Y000944D02*
X004228Y000944D01*
X004228Y001276D01*
X004289Y001127D01*
X004412Y001005D01*
X004560Y000944D01*
X004527Y000957D02*
X004228Y000957D01*
X004228Y001116D02*
X004301Y001116D01*
X004229Y001274D02*
X004228Y001274D01*
X004228Y001591D02*
X004277Y001591D01*
X004228Y001750D02*
X004427Y001750D01*
X004228Y001908D02*
X005335Y001908D01*
X005335Y002067D02*
X004228Y002067D01*
X004191Y002225D02*
X005335Y002225D01*
X004855Y002516D02*
X005859Y002516D01*
X005335Y002860D02*
X004837Y002860D01*
X005091Y003018D02*
X005335Y003018D01*
X005335Y003177D02*
X005224Y003177D01*
X004855Y002516D02*
X004265Y003106D01*
X002021Y003106D01*
X004068Y002860D02*
X004186Y002860D01*
X004068Y002701D02*
X004345Y002701D01*
X004504Y002542D02*
X004068Y002542D01*
X004068Y002384D02*
X004662Y002384D01*
X004890Y001750D02*
X005370Y001750D01*
X006765Y001788D02*
X006765Y004091D01*
X007112Y004128D02*
X007323Y004128D01*
X007611Y004091D02*
X007218Y003697D01*
X007218Y002693D01*
X007395Y002516D01*
X007395Y003087D01*
X007448Y003335D02*
X008455Y003335D01*
X008556Y003303D02*
X008281Y003028D01*
X008478Y003018D02*
X007919Y003018D01*
X007919Y002860D02*
X008570Y002860D01*
X008871Y002791D02*
X008871Y002536D01*
X008851Y002516D01*
X008505Y002542D02*
X007919Y002542D01*
X007919Y002384D02*
X008505Y002384D01*
X008516Y002225D02*
X007919Y002225D01*
X007919Y002701D02*
X008505Y002701D01*
X008871Y002791D02*
X008989Y002910D01*
X009422Y002910D01*
X009521Y003008D01*
X009521Y003303D01*
X009639Y003303D01*
X010426Y002516D01*
X009916Y002701D02*
X009868Y002701D01*
X009735Y002882D02*
X009720Y002882D01*
X009727Y002889D01*
X009735Y002882D01*
X009932Y003335D02*
X010049Y003335D01*
X010049Y003494D02*
X009887Y003494D01*
X010107Y003652D02*
X009164Y003652D01*
X008989Y003697D02*
X009383Y003697D01*
X009521Y003835D01*
X009521Y004091D01*
X009639Y004091D01*
X010426Y003303D01*
X010408Y003335D02*
X010445Y003335D01*
X010445Y003494D02*
X010408Y003494D01*
X010408Y003652D02*
X010445Y003652D01*
X010218Y003811D02*
X009897Y003811D01*
X009917Y003969D02*
X010158Y003969D01*
X010158Y004128D02*
X009917Y004128D01*
X010101Y004286D02*
X010158Y004286D01*
X009974Y004484D02*
X008989Y004484D01*
X008851Y004347D01*
X008851Y004091D01*
X007611Y004091D01*
X007482Y004286D02*
X007112Y004286D01*
X007036Y004445D02*
X008625Y004445D01*
X008783Y004604D02*
X007112Y004604D01*
X006494Y004445D02*
X006367Y004445D01*
X006765Y004878D02*
X009659Y004878D01*
X009974Y004484D02*
X010170Y004681D01*
X010170Y006295D01*
X010844Y006969D01*
X011194Y006969D01*
X011819Y006969D01*
X011942Y006847D01*
X012566Y007007D02*
X012569Y007010D01*
X012566Y007010D01*
X012566Y007007D01*
X012336Y007240D02*
X012100Y007477D01*
X010171Y007477D01*
X008753Y006059D01*
X008360Y006453D01*
X007454Y006453D01*
X007060Y006059D01*
X006115Y006059D01*
X005722Y005666D01*
X004855Y004799D01*
X004487Y004762D02*
X004277Y004762D01*
X004298Y004783D02*
X005738Y006223D01*
X005749Y006223D01*
X005749Y006174D01*
X005827Y006096D01*
X005492Y005761D01*
X005492Y005761D01*
X004898Y005167D01*
X004703Y005167D01*
X004487Y004952D01*
X004487Y004647D01*
X004703Y004431D01*
X004871Y004431D01*
X004760Y004321D01*
X004068Y004321D01*
X004068Y004648D01*
X004163Y004648D01*
X004298Y004783D01*
X004436Y004921D02*
X004487Y004921D01*
X004594Y005079D02*
X004615Y005079D01*
X004753Y005238D02*
X004969Y005238D01*
X004911Y005396D02*
X005127Y005396D01*
X005070Y005555D02*
X005286Y005555D01*
X005229Y005713D02*
X005444Y005713D01*
X005722Y005666D02*
X006096Y005666D01*
X006430Y005375D02*
X006506Y005299D01*
X007024Y005299D01*
X007112Y005387D01*
X007112Y005436D01*
X007122Y005436D01*
X007313Y005436D01*
X007568Y005691D01*
X007764Y005691D01*
X007979Y005907D01*
X007979Y006212D01*
X007968Y006223D01*
X008170Y006223D01*
X008170Y005288D01*
X008258Y005201D01*
X009249Y005201D01*
X009336Y005288D01*
X009336Y006317D01*
X010266Y007247D01*
X010604Y007247D01*
X010604Y007054D01*
X009940Y006391D01*
X009940Y006200D01*
X009940Y005117D01*
X009811Y005246D01*
X009506Y005246D01*
X009368Y005108D01*
X007112Y005108D01*
X007112Y005157D01*
X007024Y005245D01*
X006506Y005245D01*
X006430Y005169D01*
X006355Y005245D01*
X005837Y005245D01*
X005749Y005157D01*
X005749Y005108D01*
X005548Y005108D01*
X005413Y004973D01*
X005224Y004784D01*
X005224Y004842D01*
X005758Y005377D01*
X005837Y005299D01*
X006355Y005299D01*
X006430Y005375D01*
X006361Y005238D02*
X006499Y005238D01*
X007031Y005238D02*
X008221Y005238D01*
X008170Y005396D02*
X007112Y005396D01*
X007432Y005555D02*
X008170Y005555D01*
X008170Y005713D02*
X007786Y005713D01*
X007945Y005872D02*
X008170Y005872D01*
X008170Y006030D02*
X007979Y006030D01*
X007979Y006189D02*
X008170Y006189D01*
X007611Y006059D02*
X007218Y005666D01*
X006765Y005666D01*
X005761Y006030D02*
X005546Y006030D01*
X005603Y005872D02*
X005387Y005872D01*
X004895Y006030D02*
X004068Y006030D01*
X004068Y005872D02*
X004737Y005872D01*
X004578Y005713D02*
X004068Y005713D01*
X004068Y005555D02*
X004420Y005555D01*
X004261Y005396D02*
X004068Y005396D01*
X004068Y005238D02*
X004102Y005238D01*
X005302Y004921D02*
X005360Y004921D01*
X005460Y005079D02*
X005519Y005079D01*
X005619Y005238D02*
X005830Y005238D01*
X004659Y006256D02*
X004265Y005862D01*
X002021Y005862D01*
X004068Y006189D02*
X005054Y006189D01*
X004659Y006256D02*
X005643Y007240D01*
X006096Y007240D01*
X006077Y007299D02*
X006114Y007299D01*
X006114Y007457D02*
X006077Y007457D01*
X005699Y007457D02*
X005073Y007457D01*
X004979Y007299D02*
X005699Y007299D01*
X005699Y007140D02*
X004228Y007140D01*
X004228Y006982D02*
X005709Y006982D01*
X006077Y006982D02*
X006114Y006982D01*
X006114Y007140D02*
X006077Y007140D01*
X007131Y007140D02*
X007186Y007140D01*
X007873Y006982D02*
X009351Y006982D01*
X009268Y006899D02*
X009249Y006918D01*
X008258Y006918D01*
X008170Y006830D01*
X008170Y006683D01*
X007549Y006683D01*
X007379Y006683D01*
X007568Y006872D01*
X007764Y006872D01*
X007979Y007088D01*
X007979Y007393D01*
X007850Y007522D01*
X009891Y007522D01*
X009268Y006899D01*
X009684Y006665D02*
X010214Y006665D01*
X010373Y006823D02*
X009843Y006823D01*
X010001Y006982D02*
X010531Y006982D01*
X010604Y007140D02*
X010160Y007140D01*
X009668Y007299D02*
X007979Y007299D01*
X007915Y007457D02*
X009826Y007457D01*
X009509Y007140D02*
X007979Y007140D01*
X008170Y006823D02*
X007519Y006823D01*
X006096Y006453D02*
X005643Y006453D01*
X005704Y006189D02*
X005749Y006189D01*
X004338Y007299D02*
X004228Y007299D01*
X004228Y007457D02*
X004244Y007457D01*
X004228Y007693D02*
X004228Y008025D01*
X004560Y008025D01*
X004412Y007964D01*
X004289Y007841D01*
X004228Y007693D01*
X004228Y007774D02*
X004262Y007774D01*
X004228Y007933D02*
X004381Y007933D01*
X004936Y007933D02*
X007132Y007933D01*
X006974Y007774D02*
X005056Y007774D01*
X005094Y007616D02*
X005851Y007616D01*
X006077Y007616D02*
X006114Y007616D01*
X006341Y007616D02*
X006815Y007616D01*
X009526Y006506D02*
X010056Y006506D01*
X009940Y006348D02*
X009367Y006348D01*
X009336Y006189D02*
X009940Y006189D01*
X009940Y006030D02*
X009336Y006030D01*
X009336Y005872D02*
X009940Y005872D01*
X009940Y005713D02*
X009336Y005713D01*
X009336Y005555D02*
X009940Y005555D01*
X009940Y005396D02*
X009336Y005396D01*
X009286Y005238D02*
X009498Y005238D01*
X009819Y005238D02*
X009940Y005238D01*
X010715Y005565D02*
X010715Y005669D01*
X011696Y005669D01*
X011712Y005686D01*
X011712Y005552D01*
X011703Y005557D01*
X011657Y005569D01*
X011234Y005569D01*
X011234Y005189D01*
X011153Y005189D01*
X011153Y005569D01*
X010730Y005569D01*
X010715Y005565D01*
X011153Y005555D02*
X011234Y005555D01*
X011234Y005396D02*
X011153Y005396D01*
X011153Y005238D02*
X011234Y005238D01*
X011234Y005079D02*
X011153Y005079D01*
X011153Y004921D02*
X011234Y004921D01*
X011739Y004762D02*
X012727Y004762D01*
X012125Y004921D02*
X011814Y004921D01*
X011814Y005079D02*
X011967Y005079D01*
X012300Y005396D02*
X012321Y005396D01*
X012341Y005376D02*
X012646Y005376D01*
X012757Y005487D01*
X012757Y005344D01*
X012352Y005344D01*
X012172Y005525D01*
X012172Y005545D01*
X012341Y005376D01*
X012666Y005396D02*
X012757Y005396D01*
X011712Y005555D02*
X011707Y005555D01*
X011784Y006029D02*
X011784Y006223D01*
X011977Y006223D01*
X011847Y006092D01*
X011847Y006092D01*
X011784Y006029D01*
X011784Y006030D02*
X011785Y006030D01*
X011784Y006189D02*
X011943Y006189D01*
X011357Y006548D02*
X011258Y006449D01*
X010691Y006449D01*
X010604Y006361D01*
X010604Y006227D01*
X010531Y006154D01*
X010400Y006024D01*
X010400Y006200D01*
X010779Y006579D01*
X011388Y006579D01*
X011357Y006548D01*
X011315Y006506D02*
X010706Y006506D01*
X010604Y006348D02*
X010548Y006348D01*
X010565Y006189D02*
X010400Y006189D01*
X010400Y006030D02*
X010407Y006030D01*
X011037Y006059D02*
X011194Y006059D01*
X014225Y006348D02*
X014226Y006348D01*
X014225Y006506D02*
X014226Y006506D01*
X014937Y007213D02*
X014940Y007213D01*
X014940Y007217D01*
X014937Y007213D01*
X012036Y007215D02*
X011790Y007215D01*
X011784Y007209D01*
X011784Y007247D01*
X012004Y007247D01*
X012036Y007215D01*
X014436Y005238D02*
X014763Y005238D01*
X015184Y005238D02*
X015432Y005238D01*
X011968Y003811D02*
X011778Y003811D01*
X011778Y003652D02*
X012017Y003652D01*
X012176Y003494D02*
X011778Y003494D01*
X011778Y003335D02*
X012106Y003335D01*
X012704Y003018D02*
X012710Y003018D01*
X012926Y002910D02*
X013202Y002910D01*
X013163Y002910D01*
X013202Y002910D02*
X013123Y002910D01*
X012926Y002910D02*
X011903Y001886D01*
X011903Y001650D01*
X011585Y001447D02*
X011565Y001447D01*
X011542Y001469D01*
X011542Y001490D01*
X011585Y001447D01*
X011151Y001210D02*
X011082Y001279D01*
X011082Y001469D01*
X011082Y001529D01*
X010913Y001360D01*
X010667Y001360D01*
X010817Y001210D01*
X011151Y001210D01*
X011087Y001274D02*
X010753Y001274D01*
X010986Y001433D02*
X011082Y001433D01*
X012519Y000957D02*
X013569Y000957D01*
X013411Y001116D02*
X012678Y001116D01*
X012763Y001274D02*
X013057Y001274D01*
X012898Y001433D02*
X012763Y001433D01*
X013796Y001380D02*
X013856Y001380D01*
X013994Y001242D01*
X014299Y001242D01*
X014422Y001365D01*
X014547Y001240D01*
X014576Y001210D01*
X013966Y001210D01*
X013796Y001380D01*
X013903Y001274D02*
X013962Y001274D01*
X014331Y001274D02*
X014512Y001274D01*
X014777Y001335D02*
X015151Y001335D01*
X015092Y001335D01*
X014777Y001335D02*
X014540Y001571D01*
X014540Y002201D01*
X014540Y002595D01*
X014344Y002791D01*
X014232Y003021D02*
X013954Y003021D01*
X014025Y003093D01*
X014220Y003093D01*
X014232Y003104D01*
X014232Y003021D01*
X014692Y003177D02*
X017058Y003177D01*
X016900Y003335D02*
X014692Y003335D01*
X014692Y003494D02*
X016741Y003494D01*
X016583Y003652D02*
X014782Y003652D01*
X013670Y002995D02*
X013647Y002971D01*
X013647Y002995D01*
X013670Y002995D01*
X013662Y002404D02*
X013540Y002404D01*
X013140Y002404D01*
X013009Y002273D01*
X013343Y002273D01*
X013533Y002273D01*
X013662Y002145D01*
X013662Y002404D01*
X013662Y002384D02*
X013120Y002384D01*
X013581Y002225D02*
X013662Y002225D01*
X013438Y002043D02*
X013871Y001610D01*
X014147Y001610D01*
X014226Y001689D01*
X014226Y002201D01*
X014855Y002067D02*
X014856Y002067D01*
X014855Y001908D02*
X014856Y001908D01*
X014855Y001750D02*
X014856Y001750D01*
X015044Y001750D02*
X016515Y001750D01*
X018208Y002701D02*
X018232Y002742D01*
X018244Y002787D01*
X018244Y002860D02*
X018360Y002860D01*
X021395Y003624D02*
X021486Y003533D01*
X021621Y003399D01*
X021621Y003057D01*
X021673Y003005D01*
X021673Y003484D01*
X021532Y003624D01*
X021395Y003624D01*
X021526Y003494D02*
X021663Y003494D01*
X021673Y003335D02*
X021621Y003335D01*
X021621Y003177D02*
X021673Y003177D01*
X021660Y003018D02*
X021673Y003018D01*
X022133Y003029D02*
X022161Y003057D01*
X022161Y003389D01*
X022133Y003417D01*
X022133Y003029D01*
X022133Y003177D02*
X022161Y003177D01*
X022161Y003335D02*
X022133Y003335D01*
X022621Y003323D02*
X022657Y003287D01*
X022657Y003021D01*
X022621Y003057D01*
X022621Y003323D01*
X022621Y003177D02*
X022657Y003177D01*
X023117Y003177D02*
X023161Y003177D01*
X023161Y003057D01*
X023117Y003013D01*
X023117Y003221D01*
X023161Y003177D01*
X023122Y003018D02*
X023117Y003018D01*
X023621Y003057D02*
X023621Y003189D01*
X023720Y003090D01*
X023720Y002958D01*
X023621Y003057D01*
X023660Y003018D02*
X023720Y003018D01*
X023633Y003177D02*
X023621Y003177D01*
X024209Y004128D02*
X024380Y004128D01*
X024380Y004286D02*
X024339Y004286D01*
X024372Y004604D02*
X024380Y004604D01*
X024380Y004762D02*
X024288Y004762D01*
X024380Y000957D02*
X019764Y000957D01*
X013438Y002043D02*
X012808Y002043D01*
X012075Y002384D02*
X011778Y002384D01*
X011778Y002225D02*
X011917Y002225D01*
X011778Y002542D02*
X012182Y002542D01*
X012024Y002701D02*
X011778Y002701D01*
X011096Y003303D02*
X011056Y003343D01*
X011056Y004091D01*
X010485Y004110D02*
X010485Y004484D01*
X010485Y004110D02*
X010466Y004091D01*
X011286Y003794D02*
X011318Y003826D01*
X011318Y003670D01*
X011286Y003670D01*
X011286Y003794D01*
X011303Y003811D02*
X011318Y003811D01*
X010809Y003811D02*
X010713Y003811D01*
X010745Y003652D02*
X010819Y003652D01*
X009539Y003811D02*
X009502Y003811D01*
X009502Y003969D02*
X009539Y003969D01*
X008989Y003697D02*
X008851Y003559D01*
X008851Y003303D01*
X008556Y003303D01*
X008833Y003335D02*
X008870Y003335D01*
X008870Y003494D02*
X008833Y003494D01*
X008455Y003494D02*
X007448Y003494D01*
X007498Y003652D02*
X008539Y003652D01*
X008506Y003811D02*
X007657Y003811D01*
X007165Y003969D02*
X007112Y003969D01*
X007122Y003927D02*
X007122Y003927D01*
X008833Y003652D02*
X008870Y003652D01*
X008455Y003177D02*
X007919Y003177D01*
X004689Y004445D02*
X004068Y004445D01*
X004068Y004604D02*
X004531Y004604D01*
D24*
X004855Y004799D03*
X007611Y006059D03*
X004659Y006256D03*
X007611Y007240D03*
X011942Y006847D03*
X012887Y006807D03*
X013281Y007752D03*
X012493Y005744D03*
X014107Y005429D03*
X014974Y005547D03*
X015643Y005547D03*
X016312Y005547D03*
X016273Y004484D03*
X015485Y004484D03*
X014698Y004484D03*
X014068Y004091D03*
X012336Y003854D03*
X014068Y003461D03*
X014855Y003343D03*
X012336Y002910D03*
X010761Y001729D03*
X011903Y001650D03*
X013241Y001610D03*
X014147Y001610D03*
X017257Y001256D03*
X018241Y002122D03*
X011981Y004799D03*
X009659Y004878D03*
X008281Y003028D03*
X004855Y003303D03*
X008399Y001729D03*
M02*
