G75*
G70*
%OFA0B0*%
%FSLAX24Y24*%
%IPPOS*%
%LPD*%
%AMOC8*
5,1,8,0,0,1.08239X$1,22.5*
%
%ADD10C,0.0000*%
%ADD11C,0.0070*%
%ADD12R,0.0394X0.0433*%
%ADD13R,0.0315X0.0315*%
%ADD14R,0.0748X0.1339*%
%ADD15OC8,0.0640*%
%ADD16R,0.0433X0.0394*%
%ADD17R,0.2953X0.0591*%
%ADD18R,0.2559X0.0394*%
%ADD19R,0.0880X0.0480*%
%ADD20R,0.0866X0.1417*%
%ADD21R,0.0591X0.0197*%
%ADD22R,0.0197X0.0591*%
%ADD23C,0.0160*%
%ADD24OC8,0.0400*%
D10*
X004068Y000784D02*
X004068Y002122D01*
X000131Y002122D01*
X000131Y006847D01*
X004068Y006847D01*
X004068Y008185D01*
X024540Y008185D01*
X024540Y000784D01*
X004068Y000784D01*
X004359Y001374D02*
X004361Y001408D01*
X004367Y001442D01*
X004376Y001475D01*
X004390Y001506D01*
X004407Y001536D01*
X004427Y001564D01*
X004450Y001589D01*
X004476Y001612D01*
X004504Y001631D01*
X004534Y001647D01*
X004566Y001659D01*
X004599Y001668D01*
X004633Y001673D01*
X004668Y001674D01*
X004702Y001671D01*
X004735Y001664D01*
X004768Y001654D01*
X004799Y001639D01*
X004828Y001622D01*
X004855Y001601D01*
X004880Y001577D01*
X004902Y001550D01*
X004920Y001522D01*
X004935Y001491D01*
X004947Y001459D01*
X004955Y001425D01*
X004959Y001391D01*
X004959Y001357D01*
X004955Y001323D01*
X004947Y001289D01*
X004935Y001257D01*
X004920Y001226D01*
X004902Y001198D01*
X004880Y001171D01*
X004855Y001147D01*
X004828Y001126D01*
X004799Y001109D01*
X004768Y001094D01*
X004735Y001084D01*
X004702Y001077D01*
X004668Y001074D01*
X004633Y001075D01*
X004599Y001080D01*
X004566Y001089D01*
X004534Y001101D01*
X004504Y001117D01*
X004476Y001136D01*
X004450Y001159D01*
X004427Y001184D01*
X004407Y001212D01*
X004390Y001242D01*
X004376Y001273D01*
X004367Y001306D01*
X004361Y001340D01*
X004359Y001374D01*
X004359Y007595D02*
X004361Y007629D01*
X004367Y007663D01*
X004376Y007696D01*
X004390Y007727D01*
X004407Y007757D01*
X004427Y007785D01*
X004450Y007810D01*
X004476Y007833D01*
X004504Y007852D01*
X004534Y007868D01*
X004566Y007880D01*
X004599Y007889D01*
X004633Y007894D01*
X004668Y007895D01*
X004702Y007892D01*
X004735Y007885D01*
X004768Y007875D01*
X004799Y007860D01*
X004828Y007843D01*
X004855Y007822D01*
X004880Y007798D01*
X004902Y007771D01*
X004920Y007743D01*
X004935Y007712D01*
X004947Y007680D01*
X004955Y007646D01*
X004959Y007612D01*
X004959Y007578D01*
X004955Y007544D01*
X004947Y007510D01*
X004935Y007478D01*
X004920Y007447D01*
X004902Y007419D01*
X004880Y007392D01*
X004855Y007368D01*
X004828Y007347D01*
X004799Y007330D01*
X004768Y007315D01*
X004735Y007305D01*
X004702Y007298D01*
X004668Y007295D01*
X004633Y007296D01*
X004599Y007301D01*
X004566Y007310D01*
X004534Y007322D01*
X004504Y007338D01*
X004476Y007357D01*
X004450Y007380D01*
X004427Y007405D01*
X004407Y007433D01*
X004390Y007463D01*
X004376Y007494D01*
X004367Y007527D01*
X004361Y007561D01*
X004359Y007595D01*
X023650Y004484D02*
X023652Y004518D01*
X023658Y004552D01*
X023667Y004585D01*
X023681Y004616D01*
X023698Y004646D01*
X023718Y004674D01*
X023741Y004699D01*
X023767Y004722D01*
X023795Y004741D01*
X023825Y004757D01*
X023857Y004769D01*
X023890Y004778D01*
X023924Y004783D01*
X023959Y004784D01*
X023993Y004781D01*
X024026Y004774D01*
X024059Y004764D01*
X024090Y004749D01*
X024119Y004732D01*
X024146Y004711D01*
X024171Y004687D01*
X024193Y004660D01*
X024211Y004632D01*
X024226Y004601D01*
X024238Y004569D01*
X024246Y004535D01*
X024250Y004501D01*
X024250Y004467D01*
X024246Y004433D01*
X024238Y004399D01*
X024226Y004367D01*
X024211Y004336D01*
X024193Y004308D01*
X024171Y004281D01*
X024146Y004257D01*
X024119Y004236D01*
X024090Y004219D01*
X024059Y004204D01*
X024026Y004194D01*
X023993Y004187D01*
X023959Y004184D01*
X023924Y004185D01*
X023890Y004190D01*
X023857Y004199D01*
X023825Y004211D01*
X023795Y004227D01*
X023767Y004246D01*
X023741Y004269D01*
X023718Y004294D01*
X023698Y004322D01*
X023681Y004352D01*
X023667Y004383D01*
X023658Y004416D01*
X023652Y004450D01*
X023650Y004484D01*
D11*
X007160Y001094D02*
X006994Y001094D01*
X007077Y001094D02*
X007077Y001344D01*
X006994Y001261D01*
X006866Y001178D02*
X006866Y001344D01*
X006699Y001344D02*
X006699Y001178D01*
X006782Y001094D01*
X006866Y001178D01*
X006276Y001178D02*
X006276Y001136D01*
X006235Y001094D01*
X006110Y001094D01*
X006110Y001344D01*
X006235Y001344D01*
X006276Y001303D01*
X006276Y001261D01*
X006235Y001219D01*
X006110Y001219D01*
X006235Y001219D02*
X006276Y001178D01*
X005982Y001178D02*
X005982Y001136D01*
X005940Y001094D01*
X005857Y001094D01*
X005815Y001136D01*
X005857Y001219D02*
X005940Y001219D01*
X005982Y001178D01*
X005982Y001303D02*
X005940Y001344D01*
X005857Y001344D01*
X005815Y001303D01*
X005815Y001261D01*
X005857Y001219D01*
X005687Y001136D02*
X005645Y001094D01*
X005562Y001094D01*
X005520Y001136D01*
X005520Y001303D01*
X005562Y001344D01*
X005645Y001344D01*
X005687Y001303D01*
D12*
X008851Y002516D03*
X009521Y002516D03*
X010426Y002516D03*
X011096Y002516D03*
X011096Y003303D03*
X010426Y003303D03*
X006765Y004091D03*
X006096Y004091D03*
X006096Y004878D03*
X006765Y004878D03*
X006765Y005666D03*
X006096Y005666D03*
X006096Y006453D03*
X006765Y006453D03*
D13*
X010466Y004091D03*
X011056Y004091D03*
D14*
X007395Y002516D03*
X005859Y002516D03*
D15*
X019391Y002622D03*
X020391Y002622D03*
X021391Y002622D03*
X022391Y002622D03*
X023391Y002622D03*
X023391Y001622D03*
X022391Y001622D03*
X021391Y001622D03*
X020391Y001622D03*
X019391Y001622D03*
X019391Y006347D03*
X020391Y006347D03*
X021391Y006347D03*
X022391Y006347D03*
X023391Y006347D03*
X023391Y007347D03*
X022391Y007347D03*
X021391Y007347D03*
X020391Y007347D03*
X019391Y007347D03*
D16*
X015033Y007634D03*
X014363Y007634D03*
X006765Y007240D03*
X006096Y007240D03*
X008851Y004091D03*
X009521Y004091D03*
X009521Y003303D03*
X008851Y003303D03*
X015151Y001335D03*
X015820Y001335D03*
D17*
X002021Y003106D03*
X002021Y005862D03*
D18*
X002218Y004878D03*
X002218Y004091D03*
D19*
X011194Y005149D03*
X011194Y006059D03*
X011194Y006969D03*
D20*
X008753Y006059D03*
D21*
X013202Y006059D03*
X013202Y005744D03*
X013202Y005429D03*
X013202Y005114D03*
X013202Y004799D03*
X013202Y004484D03*
X013202Y004169D03*
X013202Y003854D03*
X013202Y003540D03*
X013202Y003225D03*
X013202Y002910D03*
X017769Y002910D03*
X017769Y003225D03*
X017769Y003540D03*
X017769Y003854D03*
X017769Y004169D03*
X017769Y004484D03*
X017769Y004799D03*
X017769Y005114D03*
X017769Y005429D03*
X017769Y005744D03*
X017769Y006059D03*
D22*
X017060Y006768D03*
X016745Y006768D03*
X016430Y006768D03*
X016115Y006768D03*
X015800Y006768D03*
X015485Y006768D03*
X015170Y006768D03*
X014855Y006768D03*
X014540Y006768D03*
X014226Y006768D03*
X013911Y006768D03*
X013911Y002201D03*
X014226Y002201D03*
X014540Y002201D03*
X014855Y002201D03*
X015170Y002201D03*
X015485Y002201D03*
X015800Y002201D03*
X016115Y002201D03*
X016430Y002201D03*
X016745Y002201D03*
X017060Y002201D03*
D23*
X017309Y002225D02*
X017419Y002225D01*
X017309Y002336D02*
X017309Y001919D01*
X017725Y001919D01*
X017618Y002027D01*
X017309Y002336D01*
X017664Y002631D02*
X017943Y002352D01*
X017976Y002352D01*
X018096Y002472D01*
X018386Y002472D01*
X018591Y002267D01*
X018591Y001977D01*
X018386Y001772D01*
X018129Y001772D01*
X018612Y001289D01*
X019017Y001289D01*
X018891Y001415D01*
X018891Y001602D01*
X019371Y001602D01*
X019371Y001642D01*
X018891Y001642D01*
X018891Y001829D01*
X019184Y002122D01*
X019371Y002122D01*
X019371Y001642D01*
X019411Y001642D01*
X019411Y002122D01*
X019598Y002122D01*
X019665Y002055D01*
X019665Y002221D01*
X019921Y002477D01*
X019921Y002817D01*
X020196Y003092D01*
X020586Y003092D01*
X020861Y002817D01*
X020861Y002428D01*
X020586Y002152D01*
X020246Y002152D01*
X020125Y002031D01*
X020125Y002021D01*
X020196Y002092D01*
X020586Y002092D01*
X020861Y001817D01*
X020861Y001428D01*
X020586Y001152D01*
X020196Y001152D01*
X020077Y001271D01*
X019990Y001184D01*
X019750Y000944D01*
X024380Y000944D01*
X024380Y004322D01*
X024340Y004224D01*
X024210Y004094D01*
X024041Y004024D01*
X023858Y004024D01*
X023689Y004094D01*
X023560Y004224D01*
X023490Y004393D01*
X023490Y004576D01*
X023560Y004745D01*
X023689Y004874D01*
X023858Y004944D01*
X024041Y004944D01*
X024210Y004874D01*
X024340Y004745D01*
X024380Y004647D01*
X024380Y008025D01*
X019037Y008025D01*
X019097Y007965D01*
X019246Y007817D01*
X019586Y007817D01*
X019861Y007541D01*
X019861Y007152D01*
X019785Y007077D01*
X019796Y007077D01*
X019921Y007202D01*
X019921Y007541D01*
X020196Y007817D01*
X020586Y007817D01*
X020861Y007541D01*
X020861Y007152D01*
X020586Y006877D01*
X020246Y006877D01*
X019986Y006617D01*
X019796Y006617D01*
X019785Y006617D01*
X019861Y006541D01*
X019861Y006152D01*
X019762Y006053D01*
X020020Y006053D01*
X019921Y006152D01*
X019921Y006541D01*
X020196Y006817D01*
X020586Y006817D01*
X020861Y006541D01*
X020861Y006152D01*
X020762Y006053D01*
X020772Y006053D01*
X020921Y006202D01*
X020921Y006541D01*
X021196Y006817D01*
X021586Y006817D01*
X021673Y006729D01*
X021673Y006763D01*
X021673Y006954D01*
X021921Y007202D01*
X021921Y007541D01*
X022196Y007817D01*
X022586Y007817D01*
X022861Y007541D01*
X022861Y007152D01*
X022586Y006877D01*
X022246Y006877D01*
X022133Y006763D01*
X022133Y006753D01*
X022196Y006817D01*
X022586Y006817D01*
X022861Y006541D01*
X022861Y006152D01*
X022621Y005912D01*
X022621Y005783D01*
X022486Y005648D01*
X022149Y005311D01*
X024045Y003415D01*
X024180Y003280D01*
X024180Y002276D01*
X024180Y002086D01*
X023861Y001767D01*
X023861Y001428D01*
X023586Y001152D01*
X023196Y001152D01*
X022921Y001428D01*
X022921Y001817D01*
X023196Y002092D01*
X023536Y002092D01*
X023720Y002276D01*
X023720Y002287D01*
X023586Y002152D01*
X023196Y002152D01*
X023117Y002232D01*
X023117Y002214D01*
X023117Y002023D01*
X022861Y001767D01*
X022861Y001428D01*
X022586Y001152D01*
X022196Y001152D01*
X021921Y001428D01*
X021921Y001817D01*
X022196Y002092D01*
X022536Y002092D01*
X022657Y002214D01*
X022657Y002224D01*
X022586Y002152D01*
X022196Y002152D01*
X022133Y002216D01*
X022133Y002039D01*
X021861Y001767D01*
X021861Y001428D01*
X021586Y001152D01*
X021196Y001152D01*
X020921Y001428D01*
X020921Y001817D01*
X021196Y002092D01*
X021536Y002092D01*
X021673Y002229D01*
X021673Y002239D01*
X021586Y002152D01*
X021196Y002152D01*
X020921Y002428D01*
X020921Y002817D01*
X021161Y003057D01*
X021161Y003208D01*
X021059Y003310D01*
X018560Y003310D01*
X018987Y002883D01*
X019196Y003092D01*
X019586Y003092D01*
X019861Y002817D01*
X019861Y002428D01*
X019586Y002152D01*
X019196Y002152D01*
X018956Y002392D01*
X018827Y002392D01*
X018692Y002527D01*
X018244Y002975D01*
X018244Y002910D01*
X017769Y002910D01*
X017769Y002909D01*
X017769Y002631D01*
X018088Y002631D01*
X018134Y002643D01*
X018175Y002667D01*
X018208Y002701D01*
X018518Y002701D01*
X018244Y002787D02*
X018244Y002909D01*
X017769Y002909D01*
X017769Y002909D01*
X017769Y002631D01*
X017664Y002631D01*
X017752Y002542D02*
X018677Y002542D01*
X018922Y002622D02*
X019391Y002622D01*
X018922Y002622D02*
X018320Y003225D01*
X017769Y003225D01*
X017336Y003225D01*
X016273Y004288D01*
X016273Y004484D01*
X017060Y005272D01*
X017060Y006768D01*
X017309Y006823D02*
X017743Y006823D01*
X017901Y006665D02*
X017309Y006665D01*
X017309Y006506D02*
X018060Y006506D01*
X018126Y006308D02*
X017411Y006308D01*
X017324Y006220D01*
X017324Y005899D01*
X017324Y005584D01*
X017324Y005269D01*
X017324Y004954D01*
X017324Y004639D01*
X017324Y004324D01*
X017324Y004009D01*
X017324Y003694D01*
X017324Y003562D01*
X016584Y004301D01*
X016623Y004339D01*
X016623Y004509D01*
X017290Y005177D01*
X017290Y005367D01*
X017290Y006392D01*
X017309Y006410D01*
X017309Y007125D01*
X017266Y007168D01*
X017398Y007168D01*
X018592Y005974D01*
X018214Y005974D01*
X018214Y006220D01*
X018126Y006308D01*
X018218Y006348D02*
X017290Y006348D01*
X016830Y006293D02*
X016830Y005367D01*
X016298Y004834D01*
X016128Y004834D01*
X015923Y004629D01*
X015923Y004339D01*
X016043Y004219D01*
X016043Y004192D01*
X017240Y002995D01*
X017294Y002995D01*
X017294Y002910D01*
X017768Y002910D01*
X017768Y002909D01*
X017294Y002909D01*
X017294Y002903D01*
X017201Y002903D01*
X015823Y002903D01*
X015688Y002769D01*
X015688Y002769D01*
X015570Y002651D01*
X015570Y002646D01*
X015325Y002646D01*
X015054Y002646D01*
X015023Y002664D01*
X014978Y002676D01*
X014856Y002676D01*
X014856Y002201D01*
X014855Y002201D01*
X014855Y002676D01*
X014770Y002676D01*
X014770Y002690D01*
X014669Y002791D01*
X014692Y002814D01*
X014692Y003562D01*
X014833Y003703D01*
X014957Y003703D01*
X015148Y003703D01*
X015579Y004134D01*
X015630Y004134D01*
X015835Y004339D01*
X015835Y004629D01*
X015630Y004834D01*
X015340Y004834D01*
X015135Y004629D01*
X015135Y004342D01*
X014957Y004163D01*
X014872Y004163D01*
X015048Y004339D01*
X015048Y004629D01*
X014843Y004834D01*
X014553Y004834D01*
X014433Y004714D01*
X013677Y004714D01*
X013677Y004799D01*
X013202Y004799D01*
X013202Y004800D01*
X013677Y004800D01*
X013677Y004921D01*
X016384Y004921D01*
X016542Y005079D02*
X013647Y005079D01*
X013647Y004998D02*
X013647Y005199D01*
X013842Y005199D01*
X013962Y005079D01*
X014252Y005079D01*
X014457Y005284D01*
X014457Y005574D01*
X014252Y005779D01*
X013962Y005779D01*
X013842Y005659D01*
X013647Y005659D01*
X013647Y005905D01*
X013647Y006220D01*
X013559Y006308D01*
X012844Y006308D01*
X012757Y006220D01*
X012757Y005976D01*
X012638Y006094D01*
X012499Y006094D01*
X012862Y006457D01*
X013032Y006457D01*
X013237Y006662D01*
X013237Y006801D01*
X013422Y006617D01*
X013612Y006617D01*
X013662Y006617D01*
X013662Y006410D01*
X013750Y006323D01*
X014027Y006323D01*
X014058Y006305D01*
X014103Y006293D01*
X014225Y006293D01*
X014225Y006767D01*
X014226Y006767D01*
X014226Y006293D01*
X014348Y006293D01*
X014393Y006305D01*
X014424Y006323D01*
X014625Y006323D01*
X014625Y005761D01*
X014625Y005694D01*
X014624Y005692D01*
X014624Y005402D01*
X014829Y005197D01*
X015118Y005197D01*
X015308Y005387D01*
X015498Y005197D01*
X015788Y005197D01*
X015977Y005387D01*
X016167Y005197D01*
X016457Y005197D01*
X016662Y005402D01*
X016662Y005692D01*
X016660Y005694D01*
X016660Y005761D01*
X016660Y006293D01*
X016745Y006293D01*
X016745Y006767D01*
X016745Y006767D01*
X016745Y006293D01*
X016830Y006293D01*
X016745Y006348D02*
X016745Y006348D01*
X016745Y006506D02*
X016745Y006506D01*
X016745Y006665D02*
X016745Y006665D01*
X016745Y006768D02*
X016745Y005351D01*
X016548Y005154D01*
X015879Y005154D01*
X015879Y004091D01*
X016273Y003697D01*
X015210Y003697D01*
X014855Y003343D01*
X014855Y002201D01*
X014855Y001768D01*
X014934Y001689D01*
X015643Y001689D01*
X015820Y001512D01*
X015820Y001335D01*
X015838Y001353D02*
X015801Y001353D01*
X015801Y001712D01*
X015580Y001712D01*
X015534Y001699D01*
X015493Y001676D01*
X015464Y001647D01*
X015429Y001682D01*
X014872Y001682D01*
X014814Y001623D01*
X014770Y001666D01*
X014770Y001726D01*
X014855Y001726D01*
X014855Y002201D01*
X014856Y002201D01*
X014856Y001726D01*
X014978Y001726D01*
X015023Y001738D01*
X015054Y001756D01*
X015325Y001756D01*
X015640Y001756D01*
X015955Y001756D01*
X016270Y001756D01*
X016515Y001756D01*
X016515Y001712D01*
X016633Y001594D01*
X016768Y001459D01*
X016965Y001459D01*
X016907Y001401D01*
X016907Y001231D01*
X016886Y001210D01*
X016216Y001210D01*
X016216Y001316D01*
X015839Y001316D01*
X015839Y001353D01*
X016216Y001353D01*
X016216Y001555D01*
X016204Y001601D01*
X016181Y001642D01*
X016147Y001676D01*
X016106Y001699D01*
X016060Y001712D01*
X015838Y001712D01*
X015838Y001353D01*
X015838Y001433D02*
X015801Y001433D01*
X015801Y001591D02*
X015838Y001591D01*
X016207Y001591D02*
X016636Y001591D01*
X016939Y001433D02*
X016216Y001433D01*
X016216Y001274D02*
X016907Y001274D01*
X016981Y000980D02*
X017257Y001256D01*
X017607Y001274D02*
X017977Y001274D01*
X017607Y001401D02*
X017549Y001459D01*
X017792Y001459D01*
X018287Y000964D01*
X018307Y000944D01*
X017439Y000944D01*
X017607Y001111D01*
X017607Y001401D01*
X017575Y001433D02*
X017818Y001433D01*
X018310Y001591D02*
X018891Y001591D01*
X018891Y001433D02*
X018469Y001433D01*
X018517Y001059D02*
X017887Y001689D01*
X016863Y001689D01*
X016745Y001807D01*
X016745Y002201D01*
X017309Y002067D02*
X017578Y002067D01*
X017848Y002122D02*
X018241Y002122D01*
X017848Y002122D02*
X017296Y002673D01*
X015918Y002673D01*
X015800Y002555D01*
X015800Y002201D01*
X014856Y002225D02*
X014855Y002225D01*
X014855Y002384D02*
X014856Y002384D01*
X014855Y002542D02*
X014856Y002542D01*
X014759Y002701D02*
X015621Y002701D01*
X015779Y002860D02*
X014692Y002860D01*
X014692Y003018D02*
X017217Y003018D01*
X017060Y002910D02*
X016273Y003697D01*
X016424Y003811D02*
X015255Y003811D01*
X015414Y003969D02*
X016266Y003969D01*
X016107Y004128D02*
X015572Y004128D01*
X015485Y004366D02*
X015052Y003933D01*
X014737Y003933D01*
X014462Y003658D01*
X014462Y002910D01*
X014344Y002791D01*
X013792Y002791D01*
X013635Y002634D01*
X013044Y002634D01*
X012296Y001886D01*
X012296Y001453D01*
X012060Y001217D01*
X011470Y001217D01*
X011312Y001374D01*
X011312Y001847D01*
X011548Y002083D01*
X011548Y003067D01*
X011548Y004288D01*
X011351Y004484D01*
X010485Y004484D01*
X010485Y005784D01*
X010761Y006059D01*
X011194Y006059D01*
X011587Y006453D01*
X012139Y006453D01*
X012336Y006650D01*
X012336Y007240D01*
X013123Y007240D01*
X013517Y006847D01*
X013911Y006847D01*
X013911Y006768D01*
X014225Y006768D02*
X014225Y007243D01*
X014103Y007243D01*
X014058Y007231D01*
X014027Y007213D01*
X013750Y007213D01*
X013662Y007125D01*
X013662Y007077D01*
X013612Y007077D01*
X013286Y007402D01*
X013426Y007402D01*
X013631Y007607D01*
X013631Y007897D01*
X013502Y008025D01*
X015748Y008025D01*
X015688Y007965D01*
X015399Y007676D01*
X015399Y007893D01*
X015311Y007981D01*
X014754Y007981D01*
X014719Y007946D01*
X014690Y007975D01*
X014649Y007999D01*
X014604Y008011D01*
X014382Y008011D01*
X014382Y007653D01*
X014345Y007653D01*
X014345Y008011D01*
X014123Y008011D01*
X014077Y007999D01*
X014036Y007975D01*
X014003Y007941D01*
X013979Y007900D01*
X013967Y007855D01*
X013967Y007652D01*
X014345Y007652D01*
X014345Y007616D01*
X013631Y007616D01*
X013967Y007616D02*
X013967Y007413D01*
X013979Y007368D01*
X014003Y007327D01*
X014036Y007293D01*
X014077Y007269D01*
X014123Y007257D01*
X014331Y007257D01*
X014316Y007243D01*
X014226Y007243D01*
X014226Y006768D01*
X014225Y006768D01*
X014226Y006768D02*
X014226Y007496D01*
X014363Y007634D01*
X014345Y007616D02*
X013967Y007616D01*
X013967Y007774D02*
X013631Y007774D01*
X013595Y007933D02*
X013998Y007933D01*
X014345Y007933D02*
X014382Y007933D01*
X014382Y007774D02*
X014345Y007774D01*
X014540Y007142D02*
X015033Y007634D01*
X015399Y007774D02*
X015497Y007774D01*
X015359Y007933D02*
X015656Y007933D01*
X015918Y007870D02*
X018867Y007870D01*
X019391Y007347D01*
X019861Y007299D02*
X019921Y007299D01*
X019921Y007457D02*
X019861Y007457D01*
X019786Y007616D02*
X019995Y007616D01*
X020154Y007774D02*
X019628Y007774D01*
X019130Y007933D02*
X024380Y007933D01*
X024380Y007774D02*
X023670Y007774D01*
X023598Y007847D02*
X023411Y007847D01*
X023411Y007367D01*
X023371Y007367D01*
X023371Y007847D01*
X023184Y007847D01*
X022891Y007554D01*
X022891Y007367D01*
X023371Y007367D01*
X023371Y007327D01*
X022891Y007327D01*
X022891Y007139D01*
X023184Y006847D01*
X023371Y006847D01*
X023371Y007326D01*
X023411Y007326D01*
X023411Y006847D01*
X023598Y006847D01*
X023891Y007139D01*
X023891Y007327D01*
X023411Y007327D01*
X023411Y007367D01*
X023891Y007367D01*
X023891Y007554D01*
X023598Y007847D01*
X023411Y007774D02*
X023371Y007774D01*
X023112Y007774D02*
X022628Y007774D01*
X022786Y007616D02*
X022953Y007616D01*
X022891Y007457D02*
X022861Y007457D01*
X022861Y007299D02*
X022891Y007299D01*
X022891Y007140D02*
X022849Y007140D01*
X022691Y006982D02*
X023049Y006982D01*
X023371Y006982D02*
X023411Y006982D01*
X023411Y007140D02*
X023371Y007140D01*
X023371Y007299D02*
X023411Y007299D01*
X023411Y007457D02*
X023371Y007457D01*
X023371Y007616D02*
X023411Y007616D01*
X023829Y007616D02*
X024380Y007616D01*
X024380Y007457D02*
X023891Y007457D01*
X023891Y007299D02*
X024380Y007299D01*
X024380Y007140D02*
X023891Y007140D01*
X023733Y006982D02*
X024380Y006982D01*
X024380Y006823D02*
X022193Y006823D01*
X021903Y006858D02*
X022391Y007347D01*
X021921Y007299D02*
X021861Y007299D01*
X021861Y007457D02*
X021921Y007457D01*
X021861Y007541D02*
X021586Y007817D01*
X021196Y007817D01*
X020921Y007541D01*
X020921Y007152D01*
X021196Y006877D01*
X021586Y006877D01*
X021861Y007152D01*
X021861Y007541D01*
X021786Y007616D02*
X021995Y007616D01*
X022154Y007774D02*
X021628Y007774D01*
X021154Y007774D02*
X020628Y007774D01*
X020786Y007616D02*
X020995Y007616D01*
X020921Y007457D02*
X020861Y007457D01*
X020861Y007299D02*
X020921Y007299D01*
X020933Y007140D02*
X020849Y007140D01*
X020691Y006982D02*
X021091Y006982D01*
X021691Y006982D02*
X021701Y006982D01*
X021903Y006858D02*
X021903Y005941D01*
X021548Y005587D01*
X018911Y005587D01*
X018753Y005744D01*
X017769Y005744D01*
X017324Y005713D02*
X017290Y005713D01*
X016830Y005713D02*
X016660Y005713D01*
X016430Y005666D02*
X016312Y005547D01*
X016430Y005666D02*
X016430Y006768D01*
X016115Y006768D02*
X016115Y007083D01*
X016430Y007398D01*
X017493Y007398D01*
X019068Y005823D01*
X020867Y005823D01*
X021391Y006347D01*
X020921Y006348D02*
X020861Y006348D01*
X020861Y006506D02*
X020921Y006506D01*
X021044Y006665D02*
X020737Y006665D01*
X020193Y006823D02*
X021673Y006823D01*
X021849Y007140D02*
X021859Y007140D01*
X022737Y006665D02*
X023044Y006665D01*
X022921Y006541D02*
X023196Y006817D01*
X023586Y006817D01*
X023861Y006541D01*
X023861Y006152D01*
X023586Y005877D01*
X023196Y005877D01*
X022921Y006152D01*
X022921Y006541D01*
X022921Y006506D02*
X022861Y006506D01*
X022861Y006348D02*
X022921Y006348D01*
X022921Y006189D02*
X022861Y006189D01*
X022739Y006030D02*
X023042Y006030D01*
X022621Y005872D02*
X024380Y005872D01*
X024380Y006030D02*
X023739Y006030D01*
X023861Y006189D02*
X024380Y006189D01*
X024380Y006348D02*
X023861Y006348D01*
X023861Y006506D02*
X024380Y006506D01*
X024380Y006665D02*
X023737Y006665D01*
X022391Y006347D02*
X022391Y005878D01*
X021863Y005351D01*
X018714Y005351D01*
X018635Y005429D01*
X017769Y005429D01*
X017324Y005396D02*
X017290Y005396D01*
X016830Y005396D02*
X016656Y005396D01*
X016662Y005555D02*
X016830Y005555D01*
X017290Y005555D02*
X017324Y005555D01*
X017324Y005872D02*
X017290Y005872D01*
X017290Y006030D02*
X017324Y006030D01*
X017324Y006189D02*
X017290Y006189D01*
X016830Y006189D02*
X016660Y006189D01*
X016660Y006030D02*
X016830Y006030D01*
X016830Y005872D02*
X016660Y005872D01*
X016200Y005897D02*
X016167Y005897D01*
X015977Y005708D01*
X015788Y005897D01*
X015715Y005897D01*
X015715Y006323D01*
X015961Y006323D01*
X016200Y006323D01*
X016200Y005897D01*
X016142Y005872D02*
X015813Y005872D01*
X015715Y006030D02*
X016200Y006030D01*
X016200Y006189D02*
X015715Y006189D01*
X015255Y006189D02*
X015085Y006189D01*
X015085Y006323D02*
X015255Y006323D01*
X015255Y005800D01*
X015255Y005760D01*
X015118Y005897D01*
X015085Y005897D01*
X015085Y006323D01*
X014625Y006189D02*
X013647Y006189D01*
X013647Y006030D02*
X014625Y006030D01*
X014625Y005872D02*
X013647Y005872D01*
X013647Y005713D02*
X013897Y005713D01*
X014318Y005713D02*
X014625Y005713D01*
X014540Y005626D02*
X014540Y005036D01*
X014659Y005154D01*
X015879Y005154D01*
X015828Y005238D02*
X016127Y005238D01*
X016497Y005238D02*
X016701Y005238D01*
X017193Y005079D02*
X017324Y005079D01*
X017324Y005238D02*
X017290Y005238D01*
X017769Y005114D02*
X022021Y005114D01*
X023950Y003185D01*
X023950Y002181D01*
X023391Y001622D01*
X023861Y001591D02*
X024380Y001591D01*
X024380Y001433D02*
X023861Y001433D01*
X023707Y001274D02*
X024380Y001274D01*
X024380Y001116D02*
X019922Y001116D01*
X019895Y001414D02*
X019540Y001059D01*
X018517Y001059D01*
X018294Y000957D02*
X017453Y000957D01*
X017607Y001116D02*
X018135Y001116D01*
X016981Y000980D02*
X013871Y000980D01*
X013241Y001610D01*
X012891Y001591D02*
X012763Y001591D01*
X012763Y001673D02*
X012903Y001813D01*
X012949Y001813D01*
X012891Y001755D01*
X012891Y001465D01*
X013096Y001260D01*
X013266Y001260D01*
X013583Y000944D01*
X012506Y000944D01*
X012628Y001065D01*
X012763Y001200D01*
X012763Y001673D01*
X012840Y001750D02*
X012891Y001750D01*
X012808Y002043D02*
X012533Y001768D01*
X012533Y001295D01*
X012218Y000980D01*
X010722Y000980D01*
X009521Y002181D01*
X009521Y002516D01*
X009868Y002542D02*
X010074Y002542D01*
X010079Y002537D02*
X010079Y002237D01*
X010167Y002149D01*
X010685Y002149D01*
X010761Y002225D01*
X010837Y002149D01*
X010857Y002149D01*
X010786Y002078D01*
X010616Y002078D01*
X010411Y001873D01*
X010411Y001616D01*
X009829Y002198D01*
X009868Y002237D01*
X009868Y002749D01*
X010079Y002537D01*
X010079Y002384D02*
X009868Y002384D01*
X009856Y002225D02*
X010091Y002225D01*
X009960Y002067D02*
X010604Y002067D01*
X010446Y001908D02*
X010119Y001908D01*
X010277Y001750D02*
X010411Y001750D01*
X010761Y001729D02*
X011096Y002063D01*
X011096Y002516D01*
X010426Y002516D02*
X010426Y002772D01*
X010564Y002910D01*
X011391Y002910D01*
X011548Y003067D01*
X011778Y003018D02*
X011986Y003018D01*
X011986Y003055D02*
X011986Y002765D01*
X012191Y002560D01*
X012251Y002560D01*
X011778Y002087D01*
X011778Y002178D01*
X011778Y002972D01*
X011778Y004192D01*
X011778Y004383D01*
X011581Y004580D01*
X011447Y004714D01*
X010715Y004714D01*
X010715Y004733D01*
X010730Y004729D01*
X011153Y004729D01*
X011153Y005109D01*
X011234Y005109D01*
X011234Y005189D01*
X011814Y005189D01*
X011814Y005233D01*
X012027Y005019D01*
X012162Y004884D01*
X012727Y004884D01*
X012727Y004800D01*
X013201Y004800D01*
X013201Y004799D01*
X012727Y004799D01*
X012727Y004677D01*
X012739Y004631D01*
X012757Y004601D01*
X012757Y004330D01*
X012757Y004084D01*
X012601Y004084D01*
X012481Y004204D01*
X012191Y004204D01*
X011986Y003999D01*
X011986Y003710D01*
X012191Y003504D01*
X012212Y003504D01*
X012106Y003399D01*
X012106Y003208D01*
X012106Y003175D01*
X011986Y003055D01*
X012106Y003177D02*
X011778Y003177D01*
X011778Y003335D02*
X012106Y003335D01*
X012336Y003303D02*
X012572Y003540D01*
X013202Y003540D01*
X013647Y003494D02*
X013718Y003494D01*
X013718Y003455D02*
X013647Y003455D01*
X013647Y003700D01*
X013647Y003939D01*
X013724Y003939D01*
X013888Y003776D01*
X013718Y003606D01*
X013718Y003455D01*
X013832Y003225D02*
X014068Y003461D01*
X013832Y003225D02*
X013202Y003225D01*
X012757Y003177D02*
X012566Y003177D01*
X012566Y003175D02*
X012566Y003208D01*
X012667Y003310D01*
X012757Y003310D01*
X012757Y003065D01*
X012696Y003005D01*
X012686Y002994D01*
X012686Y003055D01*
X012566Y003175D01*
X012686Y003018D02*
X012710Y003018D01*
X012926Y002910D02*
X013202Y002910D01*
X013163Y002910D01*
X013202Y002910D02*
X013123Y002910D01*
X012926Y002910D02*
X011903Y001886D01*
X011903Y001650D01*
X011553Y001591D02*
X011542Y001591D01*
X011553Y001505D02*
X011611Y001447D01*
X011565Y001447D01*
X011542Y001469D01*
X011542Y001751D01*
X011553Y001762D01*
X011553Y001505D01*
X011082Y001469D02*
X011082Y001279D01*
X011151Y001210D01*
X010817Y001210D01*
X010649Y001379D01*
X010906Y001379D01*
X011082Y001555D01*
X011082Y001469D01*
X011082Y001433D02*
X010960Y001433D01*
X011087Y001274D02*
X010753Y001274D01*
X010261Y001116D02*
X007494Y001116D01*
X007494Y001274D02*
X010103Y001274D01*
X009944Y001433D02*
X008598Y001433D01*
X008544Y001379D02*
X008374Y001379D01*
X008336Y001341D01*
X008146Y001341D01*
X007494Y001341D01*
X007494Y000944D01*
X010433Y000944D01*
X009291Y002086D01*
X009291Y002149D01*
X009262Y002149D01*
X009186Y002225D01*
X009110Y002149D01*
X008592Y002149D01*
X008505Y002237D01*
X008505Y002795D01*
X008592Y002882D01*
X008641Y002882D01*
X008641Y002887D01*
X008681Y002926D01*
X008611Y002926D01*
X008565Y002939D01*
X008524Y002962D01*
X008491Y002996D01*
X008467Y003037D01*
X008455Y003083D01*
X008455Y003285D01*
X008833Y003285D01*
X008833Y003322D01*
X008833Y003680D01*
X008611Y003680D01*
X008565Y003668D01*
X008524Y003644D01*
X008491Y003611D01*
X008467Y003570D01*
X008455Y003524D01*
X008455Y003322D01*
X008833Y003322D01*
X008870Y003322D01*
X008870Y003680D01*
X009092Y003680D01*
X009137Y003668D01*
X009179Y003644D01*
X009207Y003615D01*
X009242Y003650D01*
X009799Y003650D01*
X009887Y003562D01*
X009887Y003380D01*
X010049Y003218D01*
X010049Y003285D01*
X010408Y003285D01*
X010408Y003322D01*
X010408Y003700D01*
X010206Y003700D01*
X010160Y003688D01*
X010119Y003664D01*
X010085Y003630D01*
X010062Y003589D01*
X010049Y003544D01*
X010049Y003322D01*
X010408Y003322D01*
X010445Y003322D01*
X010445Y003700D01*
X010647Y003700D01*
X010693Y003688D01*
X010734Y003664D01*
X010767Y003630D01*
X010778Y003611D01*
X010826Y003659D01*
X010826Y003794D01*
X010761Y003859D01*
X010685Y003783D01*
X010246Y003783D01*
X010158Y003871D01*
X010158Y004310D01*
X010246Y004398D01*
X010255Y004398D01*
X010255Y004441D01*
X010204Y004389D01*
X010069Y004254D01*
X009917Y004254D01*
X009917Y004109D01*
X009539Y004109D01*
X009539Y004072D01*
X009539Y003714D01*
X009761Y003714D01*
X009807Y003726D01*
X009848Y003750D01*
X009881Y003783D01*
X009905Y003824D01*
X009917Y003870D01*
X009917Y004072D01*
X009539Y004072D01*
X009502Y004072D01*
X009502Y003714D01*
X009281Y003714D01*
X009235Y003726D01*
X009194Y003750D01*
X009165Y003779D01*
X009130Y003744D01*
X008573Y003744D01*
X008485Y003832D01*
X008485Y003861D01*
X007707Y003861D01*
X007448Y003602D01*
X007448Y003335D01*
X007831Y003335D01*
X007919Y003247D01*
X007919Y001801D01*
X008049Y001801D01*
X008049Y001873D01*
X008254Y002078D01*
X008544Y002078D01*
X008749Y001873D01*
X008749Y001584D01*
X008544Y001379D01*
X008749Y001591D02*
X009786Y001591D01*
X009627Y001750D02*
X008749Y001750D01*
X008714Y001908D02*
X009468Y001908D01*
X009310Y002067D02*
X008555Y002067D01*
X008242Y002067D02*
X007919Y002067D01*
X007919Y002225D02*
X008516Y002225D01*
X008505Y002384D02*
X007919Y002384D01*
X007919Y002542D02*
X008505Y002542D01*
X008851Y002516D02*
X008871Y002536D01*
X008871Y002791D01*
X008989Y002910D01*
X009422Y002910D01*
X009521Y003008D01*
X009521Y003303D01*
X009639Y003303D01*
X010426Y002516D01*
X009916Y002701D02*
X009868Y002701D01*
X009735Y002882D02*
X009720Y002882D01*
X009727Y002889D01*
X009735Y002882D01*
X009932Y003335D02*
X010049Y003335D01*
X010049Y003494D02*
X009887Y003494D01*
X010107Y003652D02*
X009164Y003652D01*
X008989Y003697D02*
X009383Y003697D01*
X009521Y003835D01*
X009521Y004091D01*
X009639Y004091D01*
X010426Y003303D01*
X010408Y003335D02*
X010445Y003335D01*
X010445Y003494D02*
X010408Y003494D01*
X010408Y003652D02*
X010445Y003652D01*
X010218Y003811D02*
X009897Y003811D01*
X009917Y003969D02*
X010158Y003969D01*
X010158Y004128D02*
X009917Y004128D01*
X010101Y004286D02*
X010158Y004286D01*
X009974Y004484D02*
X008989Y004484D01*
X008851Y004347D01*
X008851Y004091D01*
X007611Y004091D01*
X007218Y003697D01*
X007218Y002693D01*
X007395Y002516D01*
X007395Y003087D01*
X007448Y003335D02*
X008455Y003335D01*
X008556Y003303D02*
X008281Y003028D01*
X008478Y003018D02*
X007919Y003018D01*
X007919Y002860D02*
X008570Y002860D01*
X008505Y002701D02*
X007919Y002701D01*
X007919Y003177D02*
X008455Y003177D01*
X008556Y003303D02*
X008851Y003303D01*
X008851Y003559D01*
X008989Y003697D01*
X008870Y003652D02*
X008833Y003652D01*
X008539Y003652D02*
X007498Y003652D01*
X007657Y003811D02*
X008506Y003811D01*
X008455Y003494D02*
X007448Y003494D01*
X006535Y003494D02*
X005371Y003494D01*
X005423Y003335D02*
X005335Y003247D01*
X005335Y002746D01*
X004951Y002746D01*
X004743Y002953D01*
X005000Y002953D01*
X005205Y003158D01*
X005205Y003328D01*
X005738Y003861D01*
X005749Y003861D01*
X005749Y003812D01*
X005837Y003724D01*
X006355Y003724D01*
X006430Y003800D01*
X006506Y003724D01*
X006535Y003724D01*
X006535Y001883D01*
X006535Y001692D01*
X006694Y001533D01*
X005216Y001533D01*
X005169Y001486D01*
X005169Y000944D01*
X004821Y000944D01*
X004919Y000984D01*
X005049Y001114D01*
X005119Y001283D01*
X005119Y001466D01*
X005049Y001635D01*
X004919Y001764D01*
X004750Y001834D01*
X004567Y001834D01*
X004398Y001764D01*
X004269Y001635D01*
X004228Y001537D01*
X004228Y002056D01*
X004228Y002188D01*
X004134Y002282D01*
X004068Y002282D01*
X004068Y002876D01*
X004170Y002876D01*
X004625Y002421D01*
X004760Y002286D01*
X005335Y002286D01*
X005335Y001784D01*
X005423Y001697D01*
X006296Y001697D01*
X006383Y001784D01*
X006383Y003247D01*
X006296Y003335D01*
X005423Y003335D01*
X005213Y003335D02*
X006535Y003335D01*
X006535Y003177D02*
X006383Y003177D01*
X006383Y003018D02*
X006535Y003018D01*
X006535Y002860D02*
X006383Y002860D01*
X006383Y002701D02*
X006535Y002701D01*
X006535Y002542D02*
X006383Y002542D01*
X006383Y002384D02*
X006535Y002384D01*
X006535Y002225D02*
X006383Y002225D01*
X006383Y002067D02*
X006535Y002067D01*
X006535Y001908D02*
X006383Y001908D01*
X006349Y001750D02*
X006535Y001750D01*
X006765Y001788D02*
X006981Y001571D01*
X008241Y001571D01*
X008399Y001729D01*
X008084Y001908D02*
X007919Y001908D01*
X006765Y001788D02*
X006765Y004091D01*
X007112Y004128D02*
X007323Y004128D01*
X007165Y003969D02*
X007112Y003969D01*
X007122Y003927D02*
X007112Y003916D01*
X007112Y004369D01*
X007024Y004457D01*
X006506Y004457D01*
X006430Y004382D01*
X006355Y004457D01*
X005837Y004457D01*
X005749Y004369D01*
X005749Y004321D01*
X005548Y004321D01*
X005413Y004186D01*
X004880Y003653D01*
X004710Y003653D01*
X004505Y003448D01*
X004505Y003191D01*
X004360Y003336D01*
X004170Y003336D01*
X004068Y003336D01*
X004068Y003861D01*
X004760Y003861D01*
X004951Y003861D01*
X005738Y004648D01*
X005749Y004648D01*
X005749Y004599D01*
X005837Y004512D01*
X006355Y004512D01*
X006430Y004587D01*
X006506Y004512D01*
X007024Y004512D01*
X007112Y004599D01*
X007112Y004648D01*
X008828Y004648D01*
X008756Y004577D01*
X008621Y004442D01*
X008621Y004438D01*
X008573Y004438D01*
X008485Y004350D01*
X008485Y004321D01*
X007707Y004321D01*
X007516Y004321D01*
X007122Y003927D01*
X007122Y003927D01*
X006535Y003652D02*
X005530Y003652D01*
X005688Y003811D02*
X005750Y003811D01*
X005196Y003969D02*
X005059Y003969D01*
X005038Y003811D02*
X004068Y003811D01*
X004068Y003652D02*
X004709Y003652D01*
X004551Y003494D02*
X004068Y003494D01*
X004361Y003335D02*
X004505Y003335D01*
X004855Y003303D02*
X005643Y004091D01*
X006096Y004091D01*
X005513Y004286D02*
X005376Y004286D01*
X005355Y004128D02*
X005218Y004128D01*
X004855Y004091D02*
X005643Y004878D01*
X006096Y004878D01*
X005749Y005108D02*
X005548Y005108D01*
X005413Y004973D01*
X005205Y004766D01*
X005205Y004824D01*
X005758Y005377D01*
X005837Y005299D01*
X006355Y005299D01*
X006430Y005375D01*
X006506Y005299D01*
X007024Y005299D01*
X007112Y005387D01*
X007112Y005436D01*
X007122Y005436D01*
X007313Y005436D01*
X007587Y005709D01*
X007756Y005709D01*
X007961Y005914D01*
X007961Y006204D01*
X007942Y006223D01*
X008170Y006223D01*
X008170Y005288D01*
X008258Y005201D01*
X009249Y005201D01*
X009336Y005288D01*
X009336Y006317D01*
X010266Y007247D01*
X010604Y007247D01*
X010604Y007054D01*
X009940Y006391D01*
X009940Y006200D01*
X009940Y005091D01*
X009804Y005228D01*
X009514Y005228D01*
X009394Y005108D01*
X007112Y005108D01*
X007112Y005157D01*
X007024Y005245D01*
X006506Y005245D01*
X006430Y005169D01*
X006355Y005245D01*
X005837Y005245D01*
X005749Y005157D01*
X005749Y005108D01*
X005830Y005238D02*
X005619Y005238D01*
X005519Y005079D02*
X005460Y005079D01*
X005360Y004921D02*
X005302Y004921D01*
X004855Y004799D02*
X005722Y005666D01*
X006115Y006059D01*
X007060Y006059D01*
X007454Y006453D01*
X008360Y006453D01*
X008753Y006059D01*
X010171Y007477D01*
X012100Y007477D01*
X012336Y007240D01*
X012054Y007197D02*
X011917Y007197D01*
X011915Y007199D01*
X011784Y007199D01*
X011784Y007247D01*
X012004Y007247D01*
X012054Y007197D01*
X011819Y006969D02*
X011194Y006969D01*
X010844Y006969D01*
X010170Y006295D01*
X010170Y004681D01*
X009974Y004484D01*
X010485Y004484D02*
X010485Y004110D01*
X010466Y004091D01*
X011056Y004091D02*
X011056Y003343D01*
X011096Y003303D01*
X011778Y003494D02*
X012201Y003494D01*
X012043Y003652D02*
X011778Y003652D01*
X011778Y003811D02*
X011986Y003811D01*
X012336Y003854D02*
X013202Y003854D01*
X013647Y003811D02*
X013853Y003811D01*
X013765Y003652D02*
X013647Y003652D01*
X014248Y003776D02*
X014251Y003772D01*
X014507Y004028D01*
X014613Y004134D01*
X014553Y004134D01*
X014433Y004254D01*
X014399Y004254D01*
X014418Y004236D01*
X014418Y003946D01*
X014248Y003776D01*
X014283Y003811D02*
X014290Y003811D01*
X014418Y003969D02*
X014448Y003969D01*
X014418Y004128D02*
X014607Y004128D01*
X014995Y004286D02*
X015080Y004286D01*
X015485Y004366D02*
X015485Y004484D01*
X015135Y004445D02*
X015048Y004445D01*
X015048Y004604D02*
X015135Y004604D01*
X015268Y004762D02*
X014915Y004762D01*
X014481Y004762D02*
X013677Y004762D01*
X013677Y004921D02*
X013665Y004967D01*
X013647Y004998D01*
X013202Y005114D02*
X012257Y005114D01*
X011942Y005429D01*
X011942Y005862D01*
X012887Y006807D01*
X013237Y006665D02*
X013374Y006665D01*
X013662Y006506D02*
X013081Y006506D01*
X012752Y006348D02*
X013725Y006348D01*
X014225Y006348D02*
X014226Y006348D01*
X014225Y006506D02*
X014226Y006506D01*
X014225Y006665D02*
X014226Y006665D01*
X014226Y006768D02*
X014226Y005941D01*
X014540Y005626D01*
X014457Y005555D02*
X014624Y005555D01*
X014855Y005666D02*
X014974Y005547D01*
X014855Y005666D02*
X014855Y006768D01*
X015170Y006768D02*
X015170Y007122D01*
X015918Y007870D01*
X016273Y007634D02*
X018241Y007634D01*
X019029Y006847D01*
X019891Y006847D01*
X020391Y007347D01*
X019859Y007140D02*
X019849Y007140D01*
X018921Y007280D02*
X018921Y007491D01*
X018772Y007640D01*
X018560Y007640D01*
X018921Y007280D01*
X018921Y007299D02*
X018902Y007299D01*
X018921Y007457D02*
X018743Y007457D01*
X018796Y007616D02*
X018585Y007616D01*
X018146Y007404D02*
X018799Y006751D01*
X018933Y006617D01*
X018996Y006617D01*
X018921Y006541D01*
X018921Y006295D01*
X017812Y007404D01*
X018146Y007404D01*
X018251Y007299D02*
X017917Y007299D01*
X018076Y007140D02*
X018410Y007140D01*
X018568Y006982D02*
X018234Y006982D01*
X018393Y006823D02*
X018727Y006823D01*
X018885Y006665D02*
X018552Y006665D01*
X018710Y006506D02*
X018921Y006506D01*
X018921Y006348D02*
X018869Y006348D01*
X018377Y006189D02*
X018214Y006189D01*
X018214Y006030D02*
X018535Y006030D01*
X019861Y006189D02*
X019921Y006189D01*
X019921Y006348D02*
X019861Y006348D01*
X019861Y006506D02*
X019921Y006506D01*
X020034Y006665D02*
X020044Y006665D01*
X020861Y006189D02*
X020908Y006189D01*
X021241Y005872D02*
X021508Y005872D01*
X021513Y005877D02*
X021453Y005817D01*
X021186Y005817D01*
X021246Y005877D01*
X021513Y005877D01*
X022393Y005555D02*
X024380Y005555D01*
X024380Y005713D02*
X022551Y005713D01*
X022234Y005396D02*
X024380Y005396D01*
X024380Y005238D02*
X022223Y005238D01*
X022381Y005079D02*
X024380Y005079D01*
X024380Y004921D02*
X024099Y004921D01*
X023801Y004921D02*
X022540Y004921D01*
X022698Y004762D02*
X023577Y004762D01*
X023501Y004604D02*
X022857Y004604D01*
X023015Y004445D02*
X023490Y004445D01*
X023534Y004286D02*
X023174Y004286D01*
X023332Y004128D02*
X023656Y004128D01*
X023491Y003969D02*
X024380Y003969D01*
X024380Y003811D02*
X023649Y003811D01*
X023808Y003652D02*
X024380Y003652D01*
X024380Y003494D02*
X023967Y003494D01*
X024125Y003335D02*
X024380Y003335D01*
X024380Y003177D02*
X024180Y003177D01*
X024180Y003018D02*
X024380Y003018D01*
X024380Y002860D02*
X024180Y002860D01*
X024180Y002701D02*
X024380Y002701D01*
X024380Y002542D02*
X024180Y002542D01*
X024180Y002384D02*
X024380Y002384D01*
X024380Y002225D02*
X024180Y002225D01*
X024161Y002067D02*
X024380Y002067D01*
X024380Y001908D02*
X024002Y001908D01*
X023861Y001750D02*
X024380Y001750D01*
X023171Y002067D02*
X023117Y002067D01*
X022887Y002118D02*
X022391Y001622D01*
X022861Y001591D02*
X022921Y001591D01*
X022921Y001433D02*
X022861Y001433D01*
X022707Y001274D02*
X023074Y001274D01*
X022074Y001274D02*
X021707Y001274D01*
X021861Y001433D02*
X021921Y001433D01*
X021921Y001591D02*
X021861Y001591D01*
X021861Y001750D02*
X021921Y001750D01*
X022002Y001908D02*
X022012Y001908D01*
X022133Y002067D02*
X022171Y002067D01*
X021903Y002134D02*
X021391Y001622D01*
X020921Y001591D02*
X020861Y001591D01*
X020861Y001433D02*
X020921Y001433D01*
X021074Y001274D02*
X020707Y001274D01*
X019895Y001414D02*
X019895Y002126D01*
X020391Y002622D01*
X020861Y002701D02*
X020921Y002701D01*
X020921Y002542D02*
X020861Y002542D01*
X020817Y002384D02*
X020964Y002384D01*
X021123Y002225D02*
X020659Y002225D01*
X020611Y002067D02*
X021171Y002067D01*
X021012Y001908D02*
X020769Y001908D01*
X020861Y001750D02*
X020921Y001750D01*
X020171Y002067D02*
X020161Y002067D01*
X019665Y002067D02*
X019653Y002067D01*
X019411Y002067D02*
X019371Y002067D01*
X019128Y002067D02*
X018591Y002067D01*
X018591Y002225D02*
X019123Y002225D01*
X018964Y002384D02*
X018474Y002384D01*
X018008Y002384D02*
X017911Y002384D01*
X017769Y002701D02*
X017769Y002701D01*
X017769Y002860D02*
X017769Y002860D01*
X017769Y002910D02*
X017060Y002910D01*
X017769Y002910D02*
X018103Y002910D01*
X019391Y001622D01*
X019371Y001750D02*
X019411Y001750D01*
X019411Y001908D02*
X019371Y001908D01*
X018970Y001908D02*
X018522Y001908D01*
X018891Y001750D02*
X018151Y001750D01*
X019659Y002225D02*
X019669Y002225D01*
X019817Y002384D02*
X019827Y002384D01*
X019861Y002542D02*
X019921Y002542D01*
X019921Y002701D02*
X019861Y002701D01*
X019818Y002860D02*
X019964Y002860D01*
X020122Y003018D02*
X019660Y003018D01*
X019122Y003018D02*
X018852Y003018D01*
X018693Y003177D02*
X021161Y003177D01*
X021122Y003018D02*
X020660Y003018D01*
X020818Y002860D02*
X020964Y002860D01*
X021391Y002622D02*
X021391Y003303D01*
X021155Y003540D01*
X017769Y003540D01*
X017324Y003652D02*
X017233Y003652D01*
X017324Y003811D02*
X017075Y003811D01*
X016916Y003969D02*
X017324Y003969D01*
X017769Y003854D02*
X021627Y003854D01*
X021903Y003579D01*
X021903Y002134D01*
X021669Y002225D02*
X021659Y002225D01*
X022391Y002622D02*
X022391Y003484D01*
X021706Y004169D01*
X017769Y004169D01*
X017324Y004128D02*
X016758Y004128D01*
X016599Y004286D02*
X017324Y004286D01*
X017324Y004445D02*
X016623Y004445D01*
X016717Y004604D02*
X017324Y004604D01*
X017769Y004484D02*
X021785Y004484D01*
X022887Y003382D01*
X022887Y002118D01*
X023002Y001908D02*
X023012Y001908D01*
X022921Y001750D02*
X022861Y001750D01*
X023117Y002225D02*
X023123Y002225D01*
X023659Y002225D02*
X023669Y002225D01*
X023391Y002622D02*
X023391Y003272D01*
X021863Y004799D01*
X017769Y004799D01*
X017324Y004762D02*
X016876Y004762D01*
X017034Y004921D02*
X017324Y004921D01*
X016056Y004762D02*
X015703Y004762D01*
X015835Y004604D02*
X015923Y004604D01*
X015923Y004445D02*
X015835Y004445D01*
X015782Y004286D02*
X015976Y004286D01*
X014698Y004484D02*
X013202Y004484D01*
X012757Y004445D02*
X011716Y004445D01*
X011558Y004604D02*
X012755Y004604D01*
X012727Y004762D02*
X011739Y004762D01*
X011744Y004765D02*
X011778Y004799D01*
X011801Y004840D01*
X011814Y004885D01*
X011814Y005109D01*
X011234Y005109D01*
X011234Y004729D01*
X011657Y004729D01*
X011703Y004741D01*
X011744Y004765D01*
X011543Y004799D02*
X011981Y004799D01*
X013202Y004799D01*
X014304Y004799D01*
X014540Y005036D01*
X014411Y005238D02*
X014788Y005238D01*
X014630Y005396D02*
X014457Y005396D01*
X014107Y005429D02*
X013202Y005429D01*
X012757Y005396D02*
X012640Y005396D01*
X012638Y005394D02*
X012757Y005513D01*
X012757Y005344D01*
X012352Y005344D01*
X012172Y005525D01*
X012172Y005571D01*
X012348Y005394D01*
X012638Y005394D01*
X012346Y005396D02*
X012300Y005396D01*
X012188Y005555D02*
X012172Y005555D01*
X012493Y005744D02*
X013202Y005744D01*
X012757Y006030D02*
X012702Y006030D01*
X012757Y006189D02*
X012594Y006189D01*
X011977Y006223D02*
X011847Y006092D01*
X011847Y006092D01*
X011784Y006029D01*
X011784Y006223D01*
X011977Y006223D01*
X011943Y006189D02*
X011784Y006189D01*
X011784Y006030D02*
X011785Y006030D01*
X011194Y006059D02*
X011037Y006059D01*
X010604Y006227D02*
X010531Y006154D01*
X010400Y006024D01*
X010400Y006200D01*
X010779Y006579D01*
X011388Y006579D01*
X011357Y006548D01*
X011258Y006449D01*
X010691Y006449D01*
X010604Y006361D01*
X010604Y006227D01*
X010565Y006189D02*
X010400Y006189D01*
X010400Y006030D02*
X010407Y006030D01*
X009940Y006030D02*
X009336Y006030D01*
X009336Y005872D02*
X009940Y005872D01*
X009940Y005713D02*
X009336Y005713D01*
X009336Y005555D02*
X009940Y005555D01*
X009940Y005396D02*
X009336Y005396D01*
X009286Y005238D02*
X009940Y005238D01*
X010715Y005565D02*
X010715Y005669D01*
X011696Y005669D01*
X011712Y005686D01*
X011712Y005552D01*
X011703Y005557D01*
X011657Y005569D01*
X011234Y005569D01*
X011234Y005189D01*
X011153Y005189D01*
X011153Y005569D01*
X010730Y005569D01*
X010715Y005565D01*
X011153Y005555D02*
X011234Y005555D01*
X011234Y005396D02*
X011153Y005396D01*
X011153Y005238D02*
X011234Y005238D01*
X011194Y005149D02*
X011543Y004799D01*
X011814Y004921D02*
X012125Y004921D01*
X011967Y005079D02*
X011814Y005079D01*
X011234Y005079D02*
X011153Y005079D01*
X011153Y004921D02*
X011234Y004921D01*
X011234Y004762D02*
X011153Y004762D01*
X011778Y004286D02*
X012757Y004286D01*
X012757Y004128D02*
X012557Y004128D01*
X012114Y004128D02*
X011778Y004128D01*
X011778Y003969D02*
X011986Y003969D01*
X011318Y003826D02*
X011318Y003670D01*
X011286Y003670D01*
X011286Y003794D01*
X011318Y003826D01*
X011318Y003811D02*
X011303Y003811D01*
X010809Y003811D02*
X010713Y003811D01*
X010745Y003652D02*
X010819Y003652D01*
X009539Y003811D02*
X009502Y003811D01*
X009502Y003969D02*
X009539Y003969D01*
X008870Y003494D02*
X008833Y003494D01*
X008833Y003335D02*
X008870Y003335D01*
X007482Y004286D02*
X007112Y004286D01*
X007036Y004445D02*
X008625Y004445D01*
X008783Y004604D02*
X007112Y004604D01*
X006494Y004445D02*
X006367Y004445D01*
X005824Y004445D02*
X005535Y004445D01*
X005694Y004604D02*
X005749Y004604D01*
X004889Y004449D02*
X004760Y004321D01*
X004068Y004321D01*
X004068Y004648D01*
X004163Y004648D01*
X004298Y004783D01*
X005738Y006223D01*
X005749Y006223D01*
X005749Y006174D01*
X005827Y006096D01*
X005492Y005761D01*
X005492Y005761D01*
X004880Y005149D01*
X004710Y005149D01*
X004505Y004944D01*
X004505Y004654D01*
X004710Y004449D01*
X004889Y004449D01*
X004885Y004445D02*
X004068Y004445D01*
X004068Y004604D02*
X004556Y004604D01*
X004505Y004762D02*
X004277Y004762D01*
X004068Y004878D02*
X002218Y004878D01*
X002218Y004091D02*
X004855Y004091D01*
X004068Y004878D02*
X005643Y006453D01*
X006096Y006453D01*
X005749Y006683D02*
X005738Y006683D01*
X005548Y006683D01*
X004068Y005203D01*
X004068Y006687D01*
X004134Y006687D01*
X004228Y006780D01*
X004228Y007432D01*
X004269Y007334D01*
X004398Y007205D01*
X004567Y007135D01*
X004750Y007135D01*
X004919Y007205D01*
X005049Y007334D01*
X005119Y007503D01*
X005119Y007686D01*
X005049Y007855D01*
X004919Y007985D01*
X004821Y008025D01*
X013059Y008025D01*
X013016Y007982D01*
X007181Y007982D01*
X007047Y007847D01*
X006786Y007587D01*
X006486Y007587D01*
X006451Y007552D01*
X006423Y007581D01*
X006382Y007605D01*
X006336Y007617D01*
X006114Y007617D01*
X006114Y007259D01*
X006077Y007259D01*
X006077Y007617D01*
X005855Y007617D01*
X005810Y007605D01*
X005769Y007581D01*
X005735Y007548D01*
X005711Y007507D01*
X005699Y007461D01*
X005699Y007259D01*
X006077Y007259D01*
X006077Y007222D01*
X005699Y007222D01*
X005699Y007020D01*
X005711Y006974D01*
X005735Y006933D01*
X005769Y006899D01*
X005810Y006876D01*
X005855Y006863D01*
X006077Y006863D01*
X006077Y007222D01*
X006114Y007222D01*
X006114Y006863D01*
X006336Y006863D01*
X006382Y006876D01*
X006423Y006899D01*
X006451Y006928D01*
X006486Y006893D01*
X006939Y006893D01*
X006865Y006819D01*
X006506Y006819D01*
X006430Y006744D01*
X006355Y006819D01*
X005837Y006819D01*
X005749Y006732D01*
X005749Y006683D01*
X005529Y006665D02*
X004068Y006665D01*
X004228Y006823D02*
X006869Y006823D01*
X007379Y006683D02*
X007587Y006890D01*
X007756Y006890D01*
X007961Y007095D01*
X007961Y007385D01*
X007824Y007522D01*
X009891Y007522D01*
X009268Y006899D01*
X009249Y006918D01*
X008258Y006918D01*
X008170Y006830D01*
X008170Y006683D01*
X007549Y006683D01*
X007379Y006683D01*
X007519Y006823D02*
X008170Y006823D01*
X007848Y006982D02*
X009351Y006982D01*
X009509Y007140D02*
X007961Y007140D01*
X007961Y007299D02*
X009668Y007299D01*
X009826Y007457D02*
X007889Y007457D01*
X007611Y007240D02*
X006824Y006453D01*
X006765Y006453D01*
X007218Y005666D02*
X007611Y006059D01*
X007961Y006030D02*
X008170Y006030D01*
X008170Y005872D02*
X007919Y005872D01*
X007760Y005713D02*
X008170Y005713D01*
X008170Y005555D02*
X007432Y005555D01*
X007218Y005666D02*
X006765Y005666D01*
X007112Y005396D02*
X008170Y005396D01*
X008221Y005238D02*
X007031Y005238D01*
X006499Y005238D02*
X006361Y005238D01*
X006096Y005666D02*
X005722Y005666D01*
X005444Y005713D02*
X005229Y005713D01*
X005286Y005555D02*
X005070Y005555D01*
X005127Y005396D02*
X004911Y005396D01*
X004969Y005238D02*
X004753Y005238D01*
X004640Y005079D02*
X004594Y005079D01*
X004505Y004921D02*
X004436Y004921D01*
X004102Y005238D02*
X004068Y005238D01*
X004068Y005396D02*
X004261Y005396D01*
X004420Y005555D02*
X004068Y005555D01*
X004068Y005713D02*
X004578Y005713D01*
X004737Y005872D02*
X004068Y005872D01*
X004068Y006030D02*
X004895Y006030D01*
X005054Y006189D02*
X004068Y006189D01*
X004068Y006348D02*
X005212Y006348D01*
X005371Y006506D02*
X004068Y006506D01*
X004659Y006256D02*
X005643Y007240D01*
X006096Y007240D01*
X006077Y007299D02*
X006114Y007299D01*
X006114Y007457D02*
X006077Y007457D01*
X005699Y007457D02*
X005100Y007457D01*
X005013Y007299D02*
X005699Y007299D01*
X005699Y007140D02*
X004764Y007140D01*
X004554Y007140D02*
X004228Y007140D01*
X004228Y006982D02*
X005709Y006982D01*
X006077Y006982D02*
X006114Y006982D01*
X006114Y007140D02*
X006077Y007140D01*
X006765Y007240D02*
X007277Y007752D01*
X013281Y007752D01*
X013016Y007522D02*
X012379Y007522D01*
X012431Y007470D01*
X013028Y007470D01*
X013068Y007470D01*
X013016Y007522D01*
X013390Y007299D02*
X014031Y007299D01*
X013967Y007457D02*
X013481Y007457D01*
X013548Y007140D02*
X013677Y007140D01*
X014225Y007140D02*
X014226Y007140D01*
X014540Y007142D02*
X014540Y006768D01*
X014226Y006823D02*
X014225Y006823D01*
X014225Y006982D02*
X014226Y006982D01*
X014937Y007213D02*
X014940Y007213D01*
X014940Y007217D01*
X014937Y007213D01*
X015800Y007162D02*
X016273Y007634D01*
X015800Y007162D02*
X015800Y006768D01*
X015485Y006768D02*
X015485Y005705D01*
X015643Y005547D01*
X015972Y005713D02*
X015983Y005713D01*
X015255Y005872D02*
X015144Y005872D01*
X015085Y006030D02*
X015255Y006030D01*
X015159Y005238D02*
X015458Y005238D01*
X014068Y004091D02*
X013989Y004169D01*
X013202Y004169D01*
X014782Y003652D02*
X016583Y003652D01*
X016741Y003494D02*
X014692Y003494D01*
X014692Y003335D02*
X016900Y003335D01*
X017058Y003177D02*
X014692Y003177D01*
X014232Y003130D02*
X014232Y003021D01*
X013954Y003021D01*
X014043Y003111D01*
X014213Y003111D01*
X014232Y003130D01*
X013670Y002995D02*
X013647Y002971D01*
X013647Y002995D01*
X013670Y002995D01*
X014344Y002791D02*
X014540Y002595D01*
X014540Y002201D01*
X014540Y001571D01*
X014777Y001335D01*
X015151Y001335D01*
X015092Y001335D01*
X014576Y001210D02*
X013966Y001210D01*
X013796Y001380D01*
X013882Y001380D01*
X014002Y001260D01*
X014292Y001260D01*
X014409Y001377D01*
X014547Y001240D01*
X014576Y001210D01*
X014512Y001274D02*
X014305Y001274D01*
X013988Y001274D02*
X013903Y001274D01*
X013411Y001116D02*
X012678Y001116D01*
X012763Y001274D02*
X013083Y001274D01*
X012924Y001433D02*
X012763Y001433D01*
X013438Y002043D02*
X013871Y001610D01*
X014147Y001610D01*
X014226Y001689D01*
X014226Y002201D01*
X013662Y002225D02*
X013581Y002225D01*
X013533Y002273D02*
X013343Y002273D01*
X013009Y002273D01*
X013140Y002404D01*
X013540Y002404D01*
X013662Y002404D01*
X013662Y002145D01*
X013533Y002273D01*
X013662Y002384D02*
X013120Y002384D01*
X012808Y002043D02*
X013438Y002043D01*
X012234Y002542D02*
X011778Y002542D01*
X011778Y002384D02*
X012075Y002384D01*
X011917Y002225D02*
X011778Y002225D01*
X011778Y002701D02*
X012049Y002701D01*
X011986Y002860D02*
X011778Y002860D01*
X012336Y002910D02*
X012336Y003303D01*
X014855Y002067D02*
X014856Y002067D01*
X014855Y001908D02*
X014856Y001908D01*
X014855Y001750D02*
X014856Y001750D01*
X015044Y001750D02*
X016515Y001750D01*
X018208Y002701D02*
X018232Y002742D01*
X018244Y002787D01*
X018244Y002860D02*
X018360Y002860D01*
X021395Y003624D02*
X021486Y003533D01*
X021621Y003399D01*
X021621Y003057D01*
X021673Y003005D01*
X021673Y003484D01*
X021532Y003624D01*
X021395Y003624D01*
X021526Y003494D02*
X021663Y003494D01*
X021673Y003335D02*
X021621Y003335D01*
X021621Y003177D02*
X021673Y003177D01*
X021660Y003018D02*
X021673Y003018D01*
X022133Y003029D02*
X022161Y003057D01*
X022161Y003389D01*
X022133Y003417D01*
X022133Y003029D01*
X022133Y003177D02*
X022161Y003177D01*
X022161Y003335D02*
X022133Y003335D01*
X022621Y003323D02*
X022657Y003287D01*
X022657Y003021D01*
X022621Y003057D01*
X022621Y003323D01*
X022621Y003177D02*
X022657Y003177D01*
X023117Y003177D02*
X023161Y003177D01*
X023161Y003057D01*
X023117Y003013D01*
X023117Y003221D01*
X023161Y003177D01*
X023122Y003018D02*
X023117Y003018D01*
X023621Y003057D02*
X023621Y003189D01*
X023720Y003090D01*
X023720Y002958D01*
X023621Y003057D01*
X023660Y003018D02*
X023720Y003018D01*
X023633Y003177D02*
X023621Y003177D01*
X024244Y004128D02*
X024380Y004128D01*
X024366Y004286D02*
X024380Y004286D01*
X024380Y004762D02*
X024323Y004762D01*
X017584Y006982D02*
X017309Y006982D01*
X017294Y007140D02*
X017426Y007140D01*
X012595Y007010D02*
X012566Y006981D01*
X012566Y007010D01*
X012595Y007010D01*
X012566Y006982D02*
X012566Y006982D01*
X011942Y006847D02*
X011819Y006969D01*
X011315Y006506D02*
X010706Y006506D01*
X010604Y006348D02*
X010548Y006348D01*
X010056Y006506D02*
X009526Y006506D01*
X009684Y006665D02*
X010214Y006665D01*
X010373Y006823D02*
X009843Y006823D01*
X010001Y006982D02*
X010531Y006982D01*
X010604Y007140D02*
X010160Y007140D01*
X009940Y006348D02*
X009367Y006348D01*
X009336Y006189D02*
X009940Y006189D01*
X008170Y006189D02*
X007961Y006189D01*
X005761Y006030D02*
X005546Y006030D01*
X005603Y005872D02*
X005387Y005872D01*
X005704Y006189D02*
X005749Y006189D01*
X004659Y006256D02*
X004265Y005862D01*
X002021Y005862D01*
X004228Y007299D02*
X004304Y007299D01*
X005119Y007616D02*
X005851Y007616D01*
X006077Y007616D02*
X006114Y007616D01*
X006341Y007616D02*
X006815Y007616D01*
X006974Y007774D02*
X005082Y007774D01*
X004971Y007933D02*
X007132Y007933D01*
X007372Y007522D02*
X007398Y007522D01*
X007261Y007385D01*
X007261Y007216D01*
X007131Y007086D01*
X007131Y007282D01*
X007372Y007522D01*
X007333Y007457D02*
X007307Y007457D01*
X007261Y007299D02*
X007149Y007299D01*
X007131Y007140D02*
X007186Y007140D01*
X004496Y008025D02*
X004398Y007985D01*
X004269Y007855D01*
X004228Y007757D01*
X004228Y008025D01*
X004496Y008025D01*
X004346Y007933D02*
X004228Y007933D01*
X004228Y007774D02*
X004235Y007774D01*
X011707Y005555D02*
X011712Y005555D01*
X009659Y004878D02*
X006765Y004878D01*
X005335Y003177D02*
X005205Y003177D01*
X005335Y003018D02*
X005065Y003018D01*
X004837Y002860D02*
X005335Y002860D01*
X004855Y002516D02*
X005859Y002516D01*
X005335Y002225D02*
X004191Y002225D01*
X004068Y002384D02*
X004662Y002384D01*
X004504Y002542D02*
X004068Y002542D01*
X004068Y002701D02*
X004345Y002701D01*
X004186Y002860D02*
X004068Y002860D01*
X004265Y003106D02*
X004855Y002516D01*
X005335Y002067D02*
X004228Y002067D01*
X004228Y001908D02*
X005335Y001908D01*
X005370Y001750D02*
X004933Y001750D01*
X005067Y001591D02*
X006636Y001591D01*
X005169Y001433D02*
X005119Y001433D01*
X005115Y001274D02*
X005169Y001274D01*
X005169Y001116D02*
X005049Y001116D01*
X005169Y000957D02*
X004853Y000957D01*
X004496Y000944D02*
X004228Y000944D01*
X004228Y001212D01*
X004269Y001114D01*
X004398Y000984D01*
X004496Y000944D01*
X004464Y000957D02*
X004228Y000957D01*
X004228Y001116D02*
X004268Y001116D01*
X004251Y001591D02*
X004228Y001591D01*
X004228Y001750D02*
X004384Y001750D01*
X007494Y000957D02*
X010420Y000957D01*
X012519Y000957D02*
X013569Y000957D01*
X011553Y001750D02*
X011542Y001750D01*
X004265Y003106D02*
X002021Y003106D01*
X019764Y000957D02*
X024380Y000957D01*
D24*
X018241Y002122D03*
X017257Y001256D03*
X014147Y001610D03*
X013241Y001610D03*
X011903Y001650D03*
X010761Y001729D03*
X008399Y001729D03*
X008281Y003028D03*
X004855Y003303D03*
X004855Y004799D03*
X007611Y006059D03*
X004659Y006256D03*
X007611Y007240D03*
X011942Y006847D03*
X012887Y006807D03*
X013281Y007752D03*
X012493Y005744D03*
X014107Y005429D03*
X014974Y005547D03*
X015643Y005547D03*
X016312Y005547D03*
X016273Y004484D03*
X015485Y004484D03*
X014698Y004484D03*
X014068Y004091D03*
X012336Y003854D03*
X014068Y003461D03*
X014855Y003343D03*
X012336Y002910D03*
X011981Y004799D03*
X009659Y004878D03*
M02*
