G75*
G70*
%OFA0B0*%
%FSLAX24Y24*%
%IPPOS*%
%LPD*%
%AMOC8*
5,1,8,0,0,1.08239X$1,22.5*
%
%ADD10C,0.0060*%
%ADD11C,0.0030*%
%ADD12C,0.0080*%
%ADD13C,0.0050*%
%ADD14R,0.0098X0.0098*%
%ADD15C,0.0100*%
D10*
X018502Y001172D02*
X018546Y001129D01*
X018719Y001129D01*
X018762Y001172D01*
X018762Y001259D01*
X018719Y001302D01*
X018632Y001302D01*
X018632Y001215D01*
X018546Y001302D02*
X018502Y001259D01*
X018502Y001172D01*
X018891Y001372D02*
X018891Y002872D01*
X019141Y003122D01*
X019641Y003122D01*
X019891Y002872D01*
X019891Y001372D01*
X019641Y001122D01*
X019141Y001122D01*
X018891Y001372D01*
X018762Y001423D02*
X018502Y001423D01*
X018762Y001597D01*
X018502Y001597D01*
X018502Y001718D02*
X018502Y001848D01*
X018546Y001891D01*
X018719Y001891D01*
X018762Y001848D01*
X018762Y001718D01*
X018502Y001718D01*
X018632Y002152D02*
X018632Y002326D01*
X018546Y002239D02*
X018719Y002239D01*
X018719Y002447D02*
X018762Y002490D01*
X018762Y002577D01*
X018719Y002620D01*
X018676Y002620D01*
X018632Y002577D01*
X018632Y002534D01*
X018632Y002577D02*
X018589Y002620D01*
X018546Y002620D01*
X018502Y002577D01*
X018502Y002490D01*
X018546Y002447D01*
X018502Y002741D02*
X018676Y002741D01*
X018762Y002828D01*
X018676Y002915D01*
X018502Y002915D01*
X018546Y003036D02*
X018502Y003079D01*
X018502Y003166D01*
X018546Y003210D01*
X018589Y003210D01*
X018632Y003166D01*
X018676Y003210D01*
X018719Y003210D01*
X018762Y003166D01*
X018762Y003079D01*
X018719Y003036D01*
X018632Y003123D02*
X018632Y003166D01*
X019891Y002872D02*
X020141Y003122D01*
X020641Y003122D01*
X020891Y002872D01*
X020891Y001372D01*
X020641Y001122D01*
X020141Y001122D01*
X019891Y001372D01*
X020891Y001372D02*
X021141Y001122D01*
X021641Y001122D01*
X021891Y001372D01*
X021891Y002872D01*
X021641Y003122D01*
X021141Y003122D01*
X020891Y002872D01*
X021891Y002872D02*
X022141Y003122D01*
X022641Y003122D01*
X022891Y002872D01*
X022891Y001372D01*
X022641Y001122D01*
X022141Y001122D01*
X021891Y001372D01*
X022891Y001372D02*
X023141Y001122D01*
X023641Y001122D01*
X023891Y001372D01*
X023891Y002872D01*
X023641Y003122D01*
X023141Y003122D01*
X022891Y002872D01*
X022641Y005847D02*
X022141Y005847D01*
X021891Y006097D01*
X021891Y007597D01*
X022141Y007847D01*
X022641Y007847D01*
X022891Y007597D01*
X023141Y007847D01*
X023641Y007847D01*
X023891Y007597D01*
X023891Y006097D01*
X023641Y005847D01*
X023141Y005847D01*
X022891Y006097D01*
X022891Y007597D01*
X021891Y007597D02*
X021641Y007847D01*
X021141Y007847D01*
X020891Y007597D01*
X020891Y006097D01*
X021141Y005847D01*
X021641Y005847D01*
X021891Y006097D01*
X022641Y005847D02*
X022891Y006097D01*
X024014Y006148D02*
X024144Y006148D01*
X024101Y006234D01*
X024101Y006278D01*
X024144Y006321D01*
X024231Y006321D01*
X024274Y006278D01*
X024274Y006191D01*
X024231Y006148D01*
X024014Y006148D02*
X024014Y006321D01*
X024014Y006442D02*
X024188Y006442D01*
X024274Y006529D01*
X024188Y006616D01*
X024014Y006616D01*
X024057Y006916D02*
X024231Y006916D01*
X024274Y006959D01*
X024274Y007046D01*
X024231Y007089D01*
X024144Y007089D01*
X024144Y007003D01*
X024057Y007089D02*
X024014Y007046D01*
X024014Y006959D01*
X024057Y006916D01*
X024014Y007211D02*
X024274Y007384D01*
X024014Y007384D01*
X024014Y007505D02*
X024014Y007635D01*
X024057Y007679D01*
X024231Y007679D01*
X024274Y007635D01*
X024274Y007505D01*
X024014Y007505D01*
X024014Y007211D02*
X024274Y007211D01*
X024144Y006026D02*
X024144Y005853D01*
X024057Y005940D02*
X024231Y005940D01*
X020891Y006097D02*
X020641Y005847D01*
X020141Y005847D01*
X019891Y006097D01*
X019891Y007597D01*
X020141Y007847D01*
X020641Y007847D01*
X020891Y007597D01*
X019891Y007597D02*
X019641Y007847D01*
X019141Y007847D01*
X018891Y007597D01*
X018891Y006097D01*
X019141Y005847D01*
X019641Y005847D01*
X019891Y006097D01*
D11*
X019600Y005732D02*
X019622Y005710D01*
X019535Y005623D01*
X019557Y005602D01*
X019600Y005602D01*
X019622Y005623D01*
X019622Y005710D01*
X019600Y005732D02*
X019557Y005732D01*
X019535Y005710D01*
X019535Y005623D01*
X019431Y005667D02*
X019388Y005667D01*
X019327Y005667D02*
X019306Y005645D01*
X019241Y005645D01*
X019241Y005602D02*
X019241Y005732D01*
X019306Y005732D01*
X019327Y005710D01*
X019327Y005667D01*
X019388Y005602D02*
X019388Y005732D01*
X019475Y005732D01*
X020225Y005732D02*
X020225Y005602D01*
X020225Y005645D02*
X020290Y005645D01*
X020311Y005667D01*
X020311Y005710D01*
X020290Y005732D01*
X020225Y005732D01*
X020372Y005732D02*
X020372Y005602D01*
X020372Y005667D02*
X020415Y005667D01*
X020372Y005732D02*
X020459Y005732D01*
X020519Y005667D02*
X020606Y005667D01*
X020584Y005732D02*
X020519Y005667D01*
X020584Y005602D02*
X020584Y005732D01*
X021209Y005732D02*
X021209Y005602D01*
X021209Y005645D02*
X021274Y005645D01*
X021296Y005667D01*
X021296Y005710D01*
X021274Y005732D01*
X021209Y005732D01*
X021356Y005732D02*
X021356Y005602D01*
X021356Y005667D02*
X021400Y005667D01*
X021443Y005732D02*
X021356Y005732D01*
X021504Y005667D02*
X021569Y005667D01*
X021590Y005645D01*
X021590Y005623D01*
X021569Y005602D01*
X021525Y005602D01*
X021504Y005623D01*
X021504Y005667D01*
X021547Y005710D01*
X021590Y005732D01*
X022193Y005732D02*
X022193Y005602D01*
X022193Y005645D02*
X022258Y005645D01*
X022280Y005667D01*
X022280Y005710D01*
X022258Y005732D01*
X022193Y005732D01*
X022341Y005710D02*
X022341Y005623D01*
X022362Y005602D01*
X022406Y005602D01*
X022427Y005623D01*
X022488Y005623D02*
X022510Y005602D01*
X022553Y005602D01*
X022575Y005623D01*
X022575Y005645D01*
X022553Y005667D01*
X022488Y005667D01*
X022488Y005623D01*
X022488Y005667D02*
X022531Y005710D01*
X022575Y005732D01*
X022427Y005710D02*
X022406Y005732D01*
X022362Y005732D01*
X022341Y005710D01*
X022362Y007964D02*
X022406Y007964D01*
X022427Y007986D01*
X022488Y007986D02*
X022488Y007964D01*
X022488Y007986D02*
X022575Y008072D01*
X022575Y008094D01*
X022488Y008094D01*
X022427Y008072D02*
X022406Y008094D01*
X022362Y008094D01*
X022341Y008072D01*
X022341Y007986D01*
X022362Y007964D01*
X022280Y008029D02*
X022258Y008007D01*
X022193Y008007D01*
X022193Y007964D02*
X022193Y008094D01*
X022258Y008094D01*
X022280Y008072D01*
X022280Y008029D01*
X021590Y008072D02*
X021504Y007986D01*
X021504Y007964D01*
X021400Y008029D02*
X021356Y008029D01*
X021296Y008029D02*
X021274Y008007D01*
X021209Y008007D01*
X021209Y007964D02*
X021209Y008094D01*
X021274Y008094D01*
X021296Y008072D01*
X021296Y008029D01*
X021356Y007964D02*
X021356Y008094D01*
X021443Y008094D01*
X021504Y008094D02*
X021590Y008094D01*
X021590Y008072D01*
X020606Y008094D02*
X020519Y008094D01*
X020519Y008029D01*
X020563Y008051D01*
X020584Y008051D01*
X020606Y008029D01*
X020606Y007986D01*
X020584Y007964D01*
X020541Y007964D01*
X020519Y007986D01*
X020415Y008029D02*
X020372Y008029D01*
X020311Y008029D02*
X020290Y008007D01*
X020225Y008007D01*
X020225Y007964D02*
X020225Y008094D01*
X020290Y008094D01*
X020311Y008072D01*
X020311Y008029D01*
X020372Y007964D02*
X020372Y008094D01*
X020459Y008094D01*
X019622Y007964D02*
X019535Y007964D01*
X019579Y007964D02*
X019579Y008094D01*
X019535Y008051D01*
X019475Y008094D02*
X019388Y008094D01*
X019388Y007964D01*
X019388Y008029D02*
X019431Y008029D01*
X019327Y008029D02*
X019306Y008007D01*
X019241Y008007D01*
X019241Y007964D02*
X019241Y008094D01*
X019306Y008094D01*
X019327Y008072D01*
X019327Y008029D01*
X020225Y003409D02*
X020290Y003409D01*
X020311Y003387D01*
X020311Y003344D01*
X020290Y003322D01*
X020225Y003322D01*
X020225Y003279D02*
X020225Y003409D01*
X020372Y003409D02*
X020437Y003409D01*
X020459Y003387D01*
X020459Y003301D01*
X020437Y003279D01*
X020372Y003279D01*
X020372Y003409D01*
X020519Y003387D02*
X020541Y003409D01*
X020584Y003409D01*
X020606Y003387D01*
X020606Y003366D01*
X020584Y003344D01*
X020606Y003322D01*
X020606Y003301D01*
X020584Y003279D01*
X020541Y003279D01*
X020519Y003301D01*
X020563Y003344D02*
X020584Y003344D01*
X021248Y003322D02*
X021313Y003322D01*
X021335Y003344D01*
X021335Y003387D01*
X021313Y003409D01*
X021248Y003409D01*
X021248Y003279D01*
X021396Y003279D02*
X021461Y003279D01*
X021482Y003301D01*
X021482Y003387D01*
X021461Y003409D01*
X021396Y003409D01*
X021396Y003279D01*
X021543Y003344D02*
X021630Y003344D01*
X021608Y003409D02*
X021543Y003344D01*
X021608Y003279D02*
X021608Y003409D01*
X022233Y003409D02*
X022233Y003279D01*
X022233Y003322D02*
X022298Y003322D01*
X022319Y003344D01*
X022319Y003387D01*
X022298Y003409D01*
X022233Y003409D01*
X022380Y003409D02*
X022445Y003409D01*
X022467Y003387D01*
X022467Y003301D01*
X022445Y003279D01*
X022380Y003279D01*
X022380Y003409D01*
X022527Y003409D02*
X022614Y003409D01*
X022614Y003387D01*
X022527Y003301D01*
X022527Y003279D01*
X023217Y003279D02*
X023217Y003409D01*
X023282Y003409D01*
X023304Y003387D01*
X023304Y003344D01*
X023282Y003322D01*
X023217Y003322D01*
X023364Y003344D02*
X023429Y003344D01*
X023451Y003322D01*
X023451Y003301D01*
X023429Y003279D01*
X023364Y003279D01*
X023364Y003409D01*
X023429Y003409D01*
X023451Y003387D01*
X023451Y003366D01*
X023429Y003344D01*
X023512Y003344D02*
X023512Y003409D01*
X023598Y003409D01*
X023577Y003366D02*
X023598Y003344D01*
X023598Y003301D01*
X023577Y003279D01*
X023533Y003279D01*
X023512Y003301D01*
X023512Y003344D02*
X023555Y003366D01*
X023577Y003366D01*
X023598Y001007D02*
X023512Y001007D01*
X023512Y000942D01*
X023555Y000964D01*
X023577Y000964D01*
X023598Y000942D01*
X023598Y000899D01*
X023577Y000877D01*
X023533Y000877D01*
X023512Y000899D01*
X023451Y000899D02*
X023429Y000877D01*
X023364Y000877D01*
X023364Y001007D01*
X023429Y001007D01*
X023451Y000986D01*
X023451Y000964D01*
X023429Y000942D01*
X023364Y000942D01*
X023304Y000942D02*
X023282Y000921D01*
X023217Y000921D01*
X023217Y000877D02*
X023217Y001007D01*
X023282Y001007D01*
X023304Y000986D01*
X023304Y000942D01*
X023429Y000942D02*
X023451Y000921D01*
X023451Y000899D01*
X022614Y000942D02*
X022527Y000942D01*
X022592Y001007D01*
X022592Y000877D01*
X022467Y000899D02*
X022445Y000877D01*
X022380Y000877D01*
X022380Y001007D01*
X022445Y001007D01*
X022467Y000986D01*
X022467Y000964D01*
X022445Y000942D01*
X022380Y000942D01*
X022319Y000942D02*
X022298Y000921D01*
X022233Y000921D01*
X022233Y000877D02*
X022233Y001007D01*
X022298Y001007D01*
X022319Y000986D01*
X022319Y000942D01*
X022445Y000942D02*
X022467Y000921D01*
X022467Y000899D01*
X021590Y000899D02*
X021569Y000877D01*
X021525Y000877D01*
X021504Y000899D01*
X021504Y000942D01*
X021569Y000942D01*
X021590Y000921D01*
X021590Y000899D01*
X021504Y000942D02*
X021547Y000986D01*
X021590Y001007D01*
X021443Y000986D02*
X021443Y000899D01*
X021421Y000877D01*
X021356Y000877D01*
X021356Y001007D01*
X021421Y001007D01*
X021443Y000986D01*
X021296Y000986D02*
X021296Y000942D01*
X021274Y000921D01*
X021209Y000921D01*
X021209Y000877D02*
X021209Y001007D01*
X021274Y001007D01*
X021296Y000986D01*
X020606Y000986D02*
X020519Y000899D01*
X020541Y000877D01*
X020584Y000877D01*
X020606Y000899D01*
X020606Y000986D01*
X020584Y001007D01*
X020541Y001007D01*
X020519Y000986D01*
X020519Y000899D01*
X020459Y000899D02*
X020437Y000877D01*
X020372Y000877D01*
X020372Y001007D01*
X020437Y001007D01*
X020459Y000986D01*
X020459Y000899D01*
X020311Y000942D02*
X020290Y000921D01*
X020225Y000921D01*
X020225Y000877D02*
X020225Y001007D01*
X020290Y001007D01*
X020311Y000986D01*
X020311Y000942D01*
D12*
X017375Y002752D02*
X017218Y002595D01*
X013753Y002595D01*
X013596Y002752D01*
X013596Y006217D01*
X013753Y006374D01*
X017218Y006374D01*
X017375Y006217D01*
X017375Y002752D01*
X020053Y004775D02*
X020106Y004721D01*
X020213Y004721D01*
X020266Y004775D01*
X020421Y004775D02*
X020475Y004721D01*
X020581Y004721D01*
X020635Y004775D01*
X020635Y004828D01*
X020581Y004881D01*
X020475Y004881D01*
X020421Y004935D01*
X020421Y004988D01*
X020475Y005041D01*
X020581Y005041D01*
X020635Y004988D01*
X020790Y005041D02*
X020950Y005041D01*
X021003Y004988D01*
X021003Y004935D01*
X020950Y004881D01*
X020790Y004881D01*
X020950Y004881D02*
X021003Y004828D01*
X021003Y004775D01*
X020950Y004721D01*
X020790Y004721D01*
X020790Y005041D01*
X020266Y004988D02*
X020213Y005041D01*
X020106Y005041D01*
X020053Y004988D01*
X020053Y004775D01*
X021526Y004935D02*
X021633Y004721D01*
X021740Y004935D01*
X021894Y004988D02*
X021948Y005041D01*
X022055Y005041D01*
X022108Y004988D01*
X021894Y004775D01*
X021948Y004721D01*
X022055Y004721D01*
X022108Y004775D01*
X022108Y004988D01*
X022263Y004935D02*
X022369Y005041D01*
X022369Y004721D01*
X022263Y004721D02*
X022476Y004721D01*
X021894Y004775D02*
X021894Y004988D01*
X010624Y004769D02*
X009324Y004769D01*
X009324Y007349D01*
X010624Y007349D01*
X010624Y004769D01*
D13*
X020038Y004471D02*
X020038Y004439D01*
X020070Y004408D01*
X020133Y004408D01*
X020165Y004376D01*
X020165Y004344D01*
X020133Y004313D01*
X020070Y004313D01*
X020038Y004344D01*
X020259Y004344D02*
X020259Y004408D01*
X020291Y004439D01*
X020354Y004439D01*
X020386Y004408D01*
X020386Y004376D01*
X020259Y004376D01*
X020259Y004344D02*
X020291Y004313D01*
X020354Y004313D01*
X020480Y004439D02*
X020543Y004313D01*
X020607Y004439D01*
X020701Y004408D02*
X020733Y004439D01*
X020796Y004439D01*
X020828Y004408D01*
X020828Y004376D01*
X020701Y004376D01*
X020701Y004344D02*
X020701Y004408D01*
X020701Y004344D02*
X020733Y004313D01*
X020796Y004313D01*
X020922Y004313D02*
X020922Y004439D01*
X020922Y004376D02*
X020985Y004439D01*
X021017Y004439D01*
X021106Y004439D02*
X021138Y004439D01*
X021138Y004313D01*
X021169Y004313D02*
X021106Y004313D01*
X021253Y004313D02*
X021253Y004439D01*
X021348Y004439D01*
X021380Y004408D01*
X021380Y004313D01*
X021695Y004344D02*
X021727Y004313D01*
X021790Y004313D01*
X021822Y004344D01*
X021822Y004376D01*
X021790Y004408D01*
X021727Y004408D01*
X021695Y004439D01*
X021695Y004471D01*
X021727Y004503D01*
X021790Y004503D01*
X021822Y004471D01*
X021916Y004439D02*
X021948Y004439D01*
X021980Y004408D01*
X022011Y004439D01*
X022043Y004408D01*
X022043Y004313D01*
X021980Y004313D02*
X021980Y004408D01*
X021916Y004439D02*
X021916Y004313D01*
X022137Y004313D02*
X022201Y004313D01*
X022169Y004313D02*
X022169Y004439D01*
X022137Y004439D01*
X022169Y004503D02*
X022169Y004534D01*
X022285Y004439D02*
X022348Y004439D01*
X022316Y004471D02*
X022316Y004344D01*
X022348Y004313D01*
X022432Y004313D02*
X022432Y004503D01*
X022464Y004439D02*
X022527Y004439D01*
X022559Y004408D01*
X022559Y004313D01*
X022464Y004439D02*
X022432Y004408D01*
X021270Y004014D02*
X021238Y004046D01*
X021143Y004046D01*
X021143Y004109D02*
X021143Y003919D01*
X021238Y003919D01*
X021270Y003951D01*
X021270Y004014D01*
X021049Y004046D02*
X020954Y004046D01*
X020922Y004014D01*
X020922Y003951D01*
X020954Y003919D01*
X021049Y003919D01*
X021049Y004109D01*
X020828Y004077D02*
X020701Y003951D01*
X020733Y003919D01*
X020796Y003919D01*
X020828Y003951D01*
X020828Y004077D01*
X020796Y004109D01*
X020733Y004109D01*
X020701Y004077D01*
X020701Y003951D01*
X020607Y003951D02*
X020575Y003919D01*
X020512Y003919D01*
X020480Y003951D01*
X020607Y004077D01*
X020607Y003951D01*
X020607Y004077D02*
X020575Y004109D01*
X020512Y004109D01*
X020480Y004077D01*
X020480Y003951D01*
X020386Y003951D02*
X020354Y003919D01*
X020291Y003919D01*
X020259Y003951D01*
X020386Y004077D01*
X020386Y003951D01*
X020386Y004077D02*
X020354Y004109D01*
X020291Y004109D01*
X020259Y004077D01*
X020259Y003951D01*
X020165Y003919D02*
X020038Y003919D01*
X020165Y004046D01*
X020165Y004077D01*
X020133Y004109D01*
X020070Y004109D01*
X020038Y004077D01*
X020038Y004471D02*
X020070Y004503D01*
X020133Y004503D01*
X020165Y004471D01*
X021138Y004503D02*
X021138Y004534D01*
D14*
X010810Y004091D03*
D15*
X013800Y006059D02*
X013802Y006079D01*
X013807Y006099D01*
X013817Y006117D01*
X013829Y006134D01*
X013844Y006148D01*
X013862Y006158D01*
X013881Y006166D01*
X013901Y006170D01*
X013921Y006170D01*
X013941Y006166D01*
X013960Y006158D01*
X013978Y006148D01*
X013993Y006134D01*
X014005Y006117D01*
X014015Y006099D01*
X014020Y006079D01*
X014022Y006059D01*
X014020Y006039D01*
X014015Y006019D01*
X014005Y006001D01*
X013993Y005984D01*
X013978Y005970D01*
X013960Y005960D01*
X013941Y005952D01*
X013921Y005948D01*
X013901Y005948D01*
X013881Y005952D01*
X013862Y005960D01*
X013844Y005970D01*
X013829Y005984D01*
X013817Y006001D01*
X013807Y006019D01*
X013802Y006039D01*
X013800Y006059D01*
M02*
