%
M48
M72
T01C0.0200
T02C0.0420
T03C0.0600
%
T01
X8399Y1729
X10761Y1729
X11903Y1650
X13241Y1610
X14147Y1610
X17257Y1256
X18241Y2122
X14855Y3343
X14068Y3461
X12336Y3854
X14068Y4091
X14698Y4484
X15485Y4484
X16273Y4484
X14107Y5429
X14974Y5547
X15643Y5547
X16312Y5547
X12887Y6807
X11942Y6847
X13281Y7752
X12493Y5744
X11981Y4799
X9659Y4878
X7611Y6059
X4659Y6256
X7611Y7240
X4855Y4799
X4855Y3303
X8281Y3028
X12336Y2910
T02
X19391Y2622
X20391Y2622
X21391Y2622
X22391Y2622
X23391Y2622
X23391Y1622
X22391Y1622
X21391Y1622
X20391Y1622
X19391Y1622
X19391Y6347
X20391Y6347
X21391Y6347
X22391Y6347
X23391Y6347
X23391Y7347
X22391Y7347
X21391Y7347
X20391Y7347
X19391Y7347
T03
X4659Y1374
X4659Y7595
X23950Y4484
M30
