G75*
G70*
%OFA0B0*%
%FSLAX24Y24*%
%IPPOS*%
%LPD*%
%AMOC8*
5,1,8,0,0,1.08239X$1,22.5*
%
%ADD10C,0.0070*%
%ADD11OC8,0.0640*%
%ADD12R,0.0748X0.0551*%
%ADD13R,0.0551X0.0709*%
%ADD14R,0.0591X0.0276*%
%ADD15R,0.0236X0.0787*%
%ADD16R,0.0276X0.1654*%
%ADD17C,0.0160*%
%ADD18OC8,0.0400*%
D10*
X005503Y001094D02*
X005670Y001094D01*
X005587Y001094D02*
X005587Y001344D01*
X005670Y001261D01*
X005798Y001178D02*
X005798Y001344D01*
X005965Y001344D02*
X005965Y001178D01*
X005881Y001094D01*
X005798Y001178D01*
X006387Y001178D02*
X006387Y001136D01*
X006429Y001094D01*
X006554Y001094D01*
X006554Y001344D01*
X006429Y001344D01*
X006387Y001303D01*
X006387Y001261D01*
X006429Y001219D01*
X006554Y001219D01*
X006429Y001219D02*
X006387Y001178D01*
X006682Y001178D02*
X006682Y001136D01*
X006724Y001094D01*
X006807Y001094D01*
X006849Y001136D01*
X006807Y001219D02*
X006724Y001219D01*
X006682Y001178D01*
X006682Y001303D02*
X006724Y001344D01*
X006807Y001344D01*
X006849Y001303D01*
X006849Y001261D01*
X006807Y001219D01*
X006976Y001136D02*
X007018Y001094D01*
X007102Y001094D01*
X007143Y001136D01*
X007143Y001303D01*
X007102Y001344D01*
X007018Y001344D01*
X006976Y001303D01*
D11*
X019391Y001622D03*
X020391Y001622D03*
X021391Y001622D03*
X022391Y001622D03*
X023391Y001622D03*
X023391Y002622D03*
X022391Y002622D03*
X021391Y002622D03*
X020391Y002622D03*
X019391Y002622D03*
X019391Y006347D03*
X020391Y006347D03*
X021391Y006347D03*
X022391Y006347D03*
X023391Y006347D03*
X023391Y007347D03*
X022391Y007347D03*
X021391Y007347D03*
X020391Y007347D03*
X019391Y007347D03*
D12*
X006001Y007089D03*
X006355Y001892D03*
D13*
X011513Y002522D03*
X011513Y004884D03*
D14*
X007655Y004845D03*
X007497Y005278D03*
X007497Y004412D03*
X007340Y003979D03*
X007497Y003545D03*
X007340Y003112D03*
X007497Y002679D03*
X007497Y002246D03*
D15*
X015289Y003461D03*
X015682Y003461D03*
X016076Y003461D03*
X016470Y003461D03*
X016863Y003461D03*
X017257Y003461D03*
D16*
X017651Y002673D03*
X014895Y002673D03*
D17*
X004496Y000944D02*
X004228Y000944D01*
X004228Y001212D01*
X004269Y001114D01*
X004398Y000984D01*
X004496Y000944D01*
X004464Y000957D02*
X004228Y000957D01*
X004228Y001116D02*
X004268Y001116D01*
X004821Y000944D02*
X004919Y000984D01*
X005049Y001114D01*
X005119Y001283D01*
X005119Y001466D01*
X005049Y001635D01*
X004919Y001764D01*
X004750Y001834D01*
X004567Y001834D01*
X004398Y001764D01*
X004269Y001635D01*
X004228Y001537D01*
X004228Y002056D01*
X004228Y002188D01*
X004134Y002282D01*
X004068Y002282D01*
X004068Y006687D01*
X004134Y006687D01*
X004228Y006780D01*
X004228Y007432D01*
X004269Y007334D01*
X004398Y007205D01*
X004567Y007135D01*
X004750Y007135D01*
X004919Y007205D01*
X005049Y007334D01*
X005119Y007503D01*
X005119Y007686D01*
X005049Y007855D01*
X004919Y007985D01*
X004821Y008025D01*
X013059Y008025D01*
X012931Y007897D01*
X012931Y007758D01*
X012707Y007982D01*
X012516Y007982D01*
X008028Y007982D01*
X007893Y007847D01*
X007636Y007590D01*
X007466Y007590D01*
X007261Y007385D01*
X007261Y007095D01*
X007466Y006890D01*
X007756Y006890D01*
X007961Y007095D01*
X007961Y007265D01*
X008218Y007522D01*
X011623Y007522D01*
X011515Y007414D01*
X011318Y007217D01*
X011318Y007027D01*
X011318Y006154D01*
X011318Y005964D01*
X012303Y004980D01*
X012303Y004776D01*
X012083Y004557D01*
X011968Y004557D01*
X011968Y004826D01*
X011571Y004826D01*
X011571Y004942D01*
X011968Y004942D01*
X011968Y005262D01*
X011956Y005308D01*
X011933Y005349D01*
X011899Y005382D01*
X011858Y005406D01*
X011812Y005418D01*
X011571Y005418D01*
X011571Y004942D01*
X011455Y004942D01*
X011455Y005418D01*
X011214Y005418D01*
X011168Y005406D01*
X011127Y005382D01*
X011093Y005349D01*
X011070Y005308D01*
X011057Y005262D01*
X011057Y004942D01*
X011455Y004942D01*
X011455Y004826D01*
X011057Y004826D01*
X011057Y004557D01*
X011014Y004557D01*
X010462Y005108D01*
X010272Y005108D01*
X009923Y005108D01*
X009804Y005228D01*
X009514Y005228D01*
X009309Y005023D01*
X009309Y004733D01*
X009514Y004528D01*
X009804Y004528D01*
X009923Y004648D01*
X010272Y004648D01*
X010688Y004232D01*
X010823Y004097D01*
X012083Y004097D01*
X012083Y004097D01*
X011986Y003999D01*
X011986Y003927D01*
X009281Y003927D01*
X008134Y005075D01*
X008070Y005075D01*
X008012Y005132D01*
X007942Y005132D01*
X007942Y005478D01*
X007855Y005565D01*
X007727Y005565D01*
X007727Y005709D01*
X007756Y005709D01*
X007961Y005914D01*
X007961Y006204D01*
X007756Y006409D01*
X007466Y006409D01*
X007261Y006204D01*
X007261Y005914D01*
X007267Y005908D01*
X007267Y005565D01*
X007140Y005565D01*
X007052Y005478D01*
X007052Y005078D01*
X007140Y004990D01*
X007209Y004990D01*
X007209Y004699D01*
X007140Y004699D01*
X007052Y004611D01*
X007052Y004266D01*
X006982Y004266D01*
X006924Y004208D01*
X005232Y004208D01*
X005085Y004208D01*
X005085Y004534D01*
X005205Y004654D01*
X005205Y004944D01*
X005000Y005149D01*
X004710Y005149D01*
X004505Y004944D01*
X004505Y004654D01*
X004625Y004534D01*
X004625Y003792D01*
X004625Y003602D01*
X004625Y003568D01*
X004505Y003448D01*
X004505Y003158D01*
X004710Y002953D01*
X005000Y002953D01*
X005205Y003158D01*
X005205Y003448D01*
X005085Y003568D01*
X005085Y003602D01*
X005232Y003749D01*
X006924Y003749D01*
X006982Y003691D01*
X007052Y003691D01*
X007052Y003430D01*
X007021Y003430D01*
X006975Y003418D01*
X006934Y003394D01*
X006900Y003361D01*
X006877Y003320D01*
X006864Y003274D01*
X006864Y003113D01*
X007339Y003113D01*
X007339Y003112D01*
X006864Y003112D01*
X006864Y002951D01*
X006877Y002905D01*
X006900Y002864D01*
X006934Y002831D01*
X006975Y002807D01*
X007021Y002795D01*
X007052Y002795D01*
X007052Y002479D01*
X007069Y002463D01*
X007052Y002446D01*
X007052Y002046D01*
X007140Y001958D01*
X007844Y001958D01*
X008049Y001753D01*
X008049Y001584D01*
X008254Y001379D01*
X008544Y001379D01*
X008749Y001584D01*
X008749Y001644D01*
X009153Y001240D01*
X009288Y001105D01*
X010863Y001105D01*
X011024Y000944D01*
X007494Y000944D01*
X007494Y001486D01*
X007448Y001533D01*
X006889Y001533D01*
X006897Y001547D01*
X006909Y001593D01*
X006909Y001834D01*
X006413Y001834D01*
X006413Y001950D01*
X006298Y001950D01*
X006298Y002347D01*
X005958Y002347D01*
X005912Y002335D01*
X005871Y002311D01*
X005837Y002278D01*
X005814Y002237D01*
X005801Y002191D01*
X005801Y001950D01*
X006297Y001950D01*
X006297Y001834D01*
X005801Y001834D01*
X005801Y001593D01*
X005814Y001547D01*
X005822Y001533D01*
X005216Y001533D01*
X005169Y001486D01*
X005169Y000944D01*
X004821Y000944D01*
X004853Y000957D02*
X005169Y000957D01*
X005169Y001116D02*
X005049Y001116D01*
X005115Y001274D02*
X005169Y001274D01*
X005169Y001433D02*
X005119Y001433D01*
X005067Y001591D02*
X005802Y001591D01*
X005801Y001750D02*
X004933Y001750D01*
X004384Y001750D02*
X004228Y001750D01*
X004228Y001908D02*
X006297Y001908D01*
X006355Y001892D02*
X005479Y001892D01*
X004462Y002910D01*
X005249Y002910D01*
X005452Y003112D01*
X007340Y003112D01*
X007340Y003113D01*
X007815Y003113D01*
X007815Y003258D01*
X007855Y003258D01*
X007912Y003315D01*
X008455Y003315D01*
X008681Y003090D01*
X008815Y002955D01*
X011104Y002955D01*
X011087Y002938D01*
X011087Y002380D01*
X010786Y002078D01*
X010616Y002078D01*
X010411Y001873D01*
X010411Y001584D01*
X010430Y001565D01*
X009478Y001565D01*
X008134Y002909D01*
X007943Y002909D01*
X007912Y002909D01*
X007855Y002967D01*
X007815Y002967D01*
X007815Y003112D01*
X007340Y003112D01*
X008196Y003112D01*
X008281Y003028D01*
X008594Y003177D02*
X007815Y003177D01*
X007815Y003018D02*
X008752Y003018D01*
X008911Y003185D02*
X012060Y003185D01*
X012336Y002910D01*
X012729Y002516D01*
X012729Y001335D01*
X012848Y001217D01*
X016312Y001217D01*
X016470Y001374D01*
X016470Y003461D01*
X016076Y003461D02*
X016076Y001886D01*
X015800Y001610D01*
X014147Y001610D01*
X013797Y001591D02*
X013591Y001591D01*
X013591Y001465D02*
X013572Y001447D01*
X013816Y001447D01*
X013797Y001465D01*
X013797Y001755D01*
X014002Y001960D01*
X014292Y001960D01*
X014412Y001840D01*
X014577Y001840D01*
X014577Y002673D01*
X014894Y002673D01*
X014894Y002674D01*
X014577Y002674D01*
X014577Y003524D01*
X014589Y003570D01*
X014613Y003611D01*
X014646Y003644D01*
X014688Y003668D01*
X014733Y003680D01*
X014895Y003680D01*
X014895Y002674D01*
X014895Y002674D01*
X014895Y003680D01*
X014990Y003680D01*
X014990Y003861D01*
X014333Y003861D01*
X014248Y003776D01*
X014418Y003606D01*
X014418Y003316D01*
X014213Y003111D01*
X013923Y003111D01*
X013803Y003231D01*
X013285Y003231D01*
X013471Y003044D01*
X013471Y002854D01*
X013471Y001875D01*
X013591Y001755D01*
X013591Y001465D01*
X013241Y001610D02*
X013241Y002949D01*
X012729Y003461D01*
X014068Y003461D01*
X014418Y003494D02*
X014577Y003494D01*
X014577Y003335D02*
X014418Y003335D01*
X014279Y003177D02*
X014577Y003177D01*
X014577Y003018D02*
X013471Y003018D01*
X013471Y002860D02*
X014577Y002860D01*
X014577Y002701D02*
X013471Y002701D01*
X013471Y002542D02*
X014577Y002542D01*
X014577Y002384D02*
X013471Y002384D01*
X013471Y002225D02*
X014577Y002225D01*
X014577Y002067D02*
X013471Y002067D01*
X013471Y001908D02*
X013950Y001908D01*
X013797Y001750D02*
X013591Y001750D01*
X013011Y001875D02*
X012959Y001823D01*
X012959Y002421D01*
X012959Y002611D01*
X012686Y002885D01*
X012686Y003055D01*
X012509Y003231D01*
X012634Y003231D01*
X013011Y002854D01*
X013011Y001875D01*
X013011Y001908D02*
X012959Y001908D01*
X012959Y002067D02*
X013011Y002067D01*
X013011Y002225D02*
X012959Y002225D01*
X012959Y002384D02*
X013011Y002384D01*
X013011Y002542D02*
X012959Y002542D01*
X013011Y002701D02*
X012870Y002701D01*
X013005Y002860D02*
X012711Y002860D01*
X012686Y003018D02*
X012847Y003018D01*
X012688Y003177D02*
X012564Y003177D01*
X011986Y002934D02*
X011986Y002765D01*
X012191Y002560D01*
X012361Y002560D01*
X012499Y002421D01*
X012499Y001240D01*
X012529Y001210D01*
X011789Y001210D01*
X011878Y001300D01*
X012048Y001300D01*
X012253Y001505D01*
X012253Y001795D01*
X012048Y002000D01*
X011758Y002000D01*
X011553Y001795D01*
X011553Y001625D01*
X011492Y001565D01*
X011092Y001565D01*
X011111Y001584D01*
X011111Y001753D01*
X011375Y002017D01*
X011851Y002017D01*
X011938Y002105D01*
X011938Y002938D01*
X011921Y002955D01*
X011965Y002955D01*
X011986Y002934D01*
X011986Y002860D02*
X011938Y002860D01*
X011938Y002701D02*
X012049Y002701D01*
X011938Y002542D02*
X012378Y002542D01*
X012499Y002384D02*
X011938Y002384D01*
X011938Y002225D02*
X012499Y002225D01*
X012499Y002067D02*
X011900Y002067D01*
X011666Y001908D02*
X011266Y001908D01*
X011111Y001750D02*
X011553Y001750D01*
X011519Y001591D02*
X011111Y001591D01*
X010958Y001335D02*
X011588Y001335D01*
X011903Y001650D01*
X012253Y001591D02*
X012499Y001591D01*
X012499Y001433D02*
X012181Y001433D01*
X012499Y001274D02*
X011852Y001274D01*
X011312Y000980D02*
X010958Y001335D01*
X009383Y001335D01*
X008039Y002679D01*
X007497Y002679D01*
X007052Y002701D02*
X004068Y002701D01*
X004068Y002542D02*
X007052Y002542D01*
X007052Y002384D02*
X004068Y002384D01*
X004191Y002225D02*
X005811Y002225D01*
X005801Y002067D02*
X004228Y002067D01*
X004228Y001591D02*
X004251Y001591D01*
X006298Y002067D02*
X006413Y002067D01*
X006413Y001950D02*
X006413Y002347D01*
X006753Y002347D01*
X006799Y002335D01*
X006840Y002311D01*
X006873Y002278D01*
X006897Y002237D01*
X006909Y002191D01*
X006909Y001950D01*
X006413Y001950D01*
X006413Y001908D02*
X007894Y001908D01*
X008049Y001750D02*
X006909Y001750D01*
X006909Y001591D02*
X008049Y001591D01*
X008200Y001433D02*
X007494Y001433D01*
X007494Y001274D02*
X009118Y001274D01*
X008960Y001433D02*
X008598Y001433D01*
X008749Y001591D02*
X008801Y001591D01*
X008399Y001729D02*
X007881Y002246D01*
X007497Y002246D01*
X007052Y002225D02*
X006900Y002225D01*
X006909Y002067D02*
X007052Y002067D01*
X006413Y002225D02*
X006298Y002225D01*
X006905Y002860D02*
X004068Y002860D01*
X004068Y003018D02*
X004646Y003018D01*
X004462Y002910D02*
X004462Y006059D01*
X004659Y006256D01*
X005491Y007089D01*
X006001Y007089D01*
X006637Y006453D01*
X009186Y006453D01*
X010720Y004919D01*
X011548Y004919D01*
X011513Y004884D01*
X011598Y004799D01*
X011981Y004799D01*
X011968Y004762D02*
X012288Y004762D01*
X012533Y004681D02*
X012178Y004327D01*
X010918Y004327D01*
X010367Y004878D01*
X009659Y004878D01*
X009309Y004921D02*
X008288Y004921D01*
X008039Y004845D02*
X009186Y003697D01*
X012178Y003697D01*
X012336Y003854D01*
X011986Y003969D02*
X009239Y003969D01*
X009080Y004128D02*
X010792Y004128D01*
X010634Y004286D02*
X008922Y004286D01*
X008763Y004445D02*
X010475Y004445D01*
X010317Y004604D02*
X009879Y004604D01*
X009438Y004604D02*
X008605Y004604D01*
X008446Y004762D02*
X009309Y004762D01*
X009365Y005079D02*
X008065Y005079D01*
X007942Y005238D02*
X011057Y005238D01*
X011151Y005396D02*
X007942Y005396D01*
X007865Y005555D02*
X011727Y005555D01*
X011875Y005396D02*
X011886Y005396D01*
X011968Y005238D02*
X012045Y005238D01*
X011968Y005079D02*
X012203Y005079D01*
X012533Y005075D02*
X012533Y004681D01*
X012763Y004604D02*
X013309Y004604D01*
X013467Y004445D02*
X012622Y004445D01*
X012763Y004586D02*
X012381Y004204D01*
X012481Y004204D01*
X012686Y003999D01*
X012686Y003710D01*
X012667Y003691D01*
X012825Y003691D01*
X013803Y003691D01*
X013888Y003776D01*
X013718Y003946D01*
X013718Y004194D01*
X012763Y005150D01*
X012763Y004776D01*
X012763Y004586D01*
X012763Y004762D02*
X013150Y004762D01*
X012992Y004921D02*
X012763Y004921D01*
X012763Y005079D02*
X012833Y005079D01*
X012533Y005075D02*
X011548Y006059D01*
X011548Y007122D01*
X011745Y007319D01*
X012139Y007319D01*
X012336Y007122D01*
X012336Y006729D01*
X013635Y005429D01*
X014107Y005429D01*
X013842Y005659D02*
X013730Y005659D01*
X012932Y006457D01*
X013032Y006457D01*
X013208Y006633D01*
X014062Y005779D01*
X013962Y005779D01*
X013842Y005659D01*
X013897Y005713D02*
X013676Y005713D01*
X013518Y005872D02*
X013969Y005872D01*
X013811Y006030D02*
X013359Y006030D01*
X013200Y006189D02*
X013652Y006189D01*
X013494Y006348D02*
X013042Y006348D01*
X013081Y006506D02*
X013335Y006506D01*
X013827Y006665D02*
X017104Y006665D01*
X017263Y006823D02*
X013669Y006823D01*
X013511Y006981D02*
X013511Y007487D01*
X013631Y007607D01*
X013631Y007897D01*
X013502Y008025D01*
X018465Y008025D01*
X016337Y005897D01*
X016167Y005897D01*
X015977Y005708D01*
X015788Y005897D01*
X015498Y005897D01*
X015308Y005708D01*
X015118Y005897D01*
X014829Y005897D01*
X014712Y005780D01*
X014636Y005856D01*
X013511Y006981D01*
X013511Y006982D02*
X017421Y006982D01*
X017580Y007140D02*
X013511Y007140D01*
X013511Y007299D02*
X017738Y007299D01*
X017897Y007457D02*
X013511Y007457D01*
X013631Y007616D02*
X018055Y007616D01*
X018214Y007774D02*
X013631Y007774D01*
X013595Y007933D02*
X018372Y007933D01*
X018635Y007870D02*
X016312Y005547D01*
X015983Y005713D02*
X015972Y005713D01*
X015813Y005872D02*
X016142Y005872D01*
X016470Y006030D02*
X014461Y006030D01*
X014620Y005872D02*
X014803Y005872D01*
X015144Y005872D02*
X015472Y005872D01*
X015314Y005713D02*
X015302Y005713D01*
X014974Y005547D02*
X015603Y004917D01*
X016706Y004917D01*
X018135Y006347D01*
X019391Y006347D01*
X019861Y006348D02*
X019921Y006348D01*
X019921Y006491D02*
X019921Y006152D01*
X020177Y005895D01*
X019604Y005895D01*
X019861Y006152D01*
X019861Y006541D01*
X019785Y006617D01*
X019796Y006617D01*
X019921Y006491D01*
X019906Y006506D02*
X019861Y006506D01*
X019891Y006847D02*
X020391Y006347D01*
X020861Y006348D02*
X020921Y006348D01*
X020921Y006506D02*
X020861Y006506D01*
X020861Y006541D02*
X020586Y006817D01*
X020246Y006817D01*
X020121Y006942D01*
X019986Y007077D01*
X019785Y007077D01*
X019861Y007152D01*
X019861Y007541D01*
X019762Y007640D01*
X020020Y007640D01*
X019921Y007541D01*
X019921Y007152D01*
X020196Y006877D01*
X020586Y006877D01*
X020861Y007152D01*
X020861Y007541D01*
X020762Y007640D01*
X020823Y007640D01*
X020922Y007542D01*
X020921Y007541D01*
X020921Y007152D01*
X021196Y006877D01*
X021586Y006877D01*
X021861Y007152D01*
X021861Y007541D01*
X021586Y007817D01*
X021297Y007817D01*
X021148Y007965D01*
X021089Y008025D01*
X024380Y008025D01*
X024380Y004647D01*
X024340Y004745D01*
X024210Y004874D01*
X024041Y004944D01*
X023858Y004944D01*
X023689Y004874D01*
X023560Y004745D01*
X023490Y004576D01*
X023490Y004393D01*
X023560Y004224D01*
X023689Y004094D01*
X023858Y004024D01*
X024041Y004024D01*
X024210Y004094D01*
X024340Y004224D01*
X024380Y004322D01*
X024380Y000944D01*
X017439Y000944D01*
X017607Y001111D01*
X017607Y001401D01*
X017487Y001521D01*
X017487Y001667D01*
X017489Y001667D01*
X017650Y001667D01*
X017650Y002673D01*
X017651Y002673D01*
X017651Y001667D01*
X017812Y001667D01*
X017858Y001679D01*
X017899Y001703D01*
X017933Y001736D01*
X017956Y001777D01*
X017968Y001823D01*
X017968Y001900D01*
X018096Y001772D01*
X018386Y001772D01*
X018506Y001892D01*
X018954Y001892D01*
X018891Y001829D01*
X018891Y001642D01*
X019371Y001642D01*
X019371Y001602D01*
X019411Y001602D01*
X019411Y001122D01*
X019598Y001122D01*
X019891Y001415D01*
X019891Y001602D01*
X019411Y001602D01*
X019411Y001642D01*
X019891Y001642D01*
X019891Y001797D01*
X019921Y001767D01*
X019921Y001428D01*
X020196Y001152D01*
X020586Y001152D01*
X020861Y001428D01*
X020861Y001817D01*
X020586Y002092D01*
X020246Y002092D01*
X019986Y002352D01*
X019796Y002352D01*
X019785Y002352D01*
X019861Y002428D01*
X019861Y002817D01*
X019586Y003092D01*
X019196Y003092D01*
X018921Y002817D01*
X018921Y002428D01*
X018996Y002352D01*
X018506Y002352D01*
X018386Y002472D01*
X018096Y002472D01*
X017968Y002344D01*
X017968Y002673D01*
X017651Y002673D01*
X017651Y002674D01*
X017650Y002674D01*
X017650Y003680D01*
X017525Y003680D01*
X017525Y003917D01*
X017437Y004004D01*
X017077Y004004D01*
X017060Y003988D01*
X017044Y004004D01*
X016905Y004004D01*
X018336Y005436D01*
X023061Y005436D01*
X023196Y005570D01*
X023486Y005861D01*
X023502Y005877D01*
X023586Y005877D01*
X023861Y006152D01*
X023861Y006541D01*
X023586Y006817D01*
X023196Y006817D01*
X022921Y006541D01*
X022921Y006152D01*
X023024Y006049D01*
X022870Y005895D01*
X022604Y005895D01*
X022861Y006152D01*
X022861Y006541D01*
X022586Y006817D01*
X022196Y006817D01*
X021921Y006541D01*
X021921Y006152D01*
X022177Y005895D01*
X021604Y005895D01*
X021861Y006152D01*
X021861Y006541D01*
X021586Y006817D01*
X021196Y006817D01*
X020921Y006541D01*
X020921Y006152D01*
X021177Y005895D01*
X020604Y005895D01*
X020861Y006152D01*
X020861Y006541D01*
X020737Y006665D02*
X021044Y006665D01*
X021737Y006665D02*
X022044Y006665D01*
X021921Y006506D02*
X021861Y006506D01*
X021861Y006348D02*
X021921Y006348D01*
X021921Y006189D02*
X021861Y006189D01*
X021739Y006030D02*
X022042Y006030D01*
X022739Y006030D02*
X023005Y006030D01*
X022966Y005666D02*
X023391Y006091D01*
X023391Y006347D01*
X023861Y006348D02*
X024380Y006348D01*
X024380Y006506D02*
X023861Y006506D01*
X023737Y006665D02*
X024380Y006665D01*
X024380Y006823D02*
X020240Y006823D01*
X019891Y006847D02*
X018241Y006847D01*
X016548Y005154D01*
X016037Y005154D01*
X015643Y005547D01*
X015649Y005197D02*
X015699Y005147D01*
X015718Y005147D01*
X015668Y005197D01*
X015649Y005197D01*
X015116Y005079D02*
X014770Y005079D01*
X014829Y005197D02*
X014998Y005197D01*
X015361Y004834D01*
X015340Y004834D01*
X015135Y004629D01*
X015135Y004339D01*
X015154Y004321D01*
X015029Y004321D01*
X015048Y004339D01*
X015048Y004629D01*
X014843Y004834D01*
X014770Y004834D01*
X014770Y005256D01*
X014829Y005197D01*
X014788Y005238D02*
X014770Y005238D01*
X014310Y005137D02*
X014310Y004737D01*
X014310Y004547D01*
X014348Y004509D01*
X014348Y004339D01*
X014367Y004321D01*
X014333Y004321D01*
X014213Y004441D01*
X014122Y004441D01*
X012843Y005719D01*
X012843Y005889D01*
X012638Y006094D01*
X012468Y006094D01*
X012172Y006391D01*
X012172Y006567D01*
X013405Y005334D01*
X013540Y005199D01*
X013842Y005199D01*
X013962Y005079D01*
X014252Y005079D01*
X014310Y005137D01*
X014310Y005079D02*
X013484Y005079D01*
X013501Y005238D02*
X013325Y005238D01*
X013343Y005396D02*
X013166Y005396D01*
X013184Y005555D02*
X013008Y005555D01*
X013026Y005713D02*
X012849Y005713D01*
X012493Y005744D02*
X014068Y004169D01*
X014068Y004091D01*
X015682Y004091D01*
X015682Y003461D01*
X015289Y003460D02*
X015289Y002887D01*
X015430Y002887D01*
X015476Y002899D01*
X015507Y002917D01*
X015846Y002917D01*
X015846Y001981D01*
X015705Y001840D01*
X015213Y001840D01*
X015213Y002673D01*
X014895Y002673D01*
X014895Y001840D01*
X014895Y001840D01*
X014895Y002673D01*
X014895Y002673D01*
X014895Y002674D01*
X015213Y002674D01*
X015213Y002887D01*
X015288Y002887D01*
X015288Y003460D01*
X015289Y003460D01*
X015289Y003461D02*
X015170Y003343D01*
X014855Y003343D01*
X014895Y003303D01*
X014895Y002673D01*
X014895Y002319D01*
X014895Y002384D02*
X014895Y002384D01*
X014895Y002225D02*
X014895Y002225D01*
X015213Y002225D02*
X015846Y002225D01*
X015846Y002384D02*
X015213Y002384D01*
X015213Y002542D02*
X015846Y002542D01*
X015846Y002701D02*
X015213Y002701D01*
X014895Y002701D02*
X014895Y002701D01*
X014895Y002542D02*
X014895Y002542D01*
X014895Y002860D02*
X014895Y002860D01*
X014895Y003018D02*
X014895Y003018D01*
X015213Y002860D02*
X015846Y002860D01*
X015289Y003018D02*
X015288Y003018D01*
X015288Y003177D02*
X015289Y003177D01*
X014895Y003177D02*
X014895Y003177D01*
X014895Y003335D02*
X014895Y003335D01*
X015288Y003335D02*
X015289Y003335D01*
X014895Y003494D02*
X014895Y003494D01*
X014895Y003652D02*
X014895Y003652D01*
X014990Y003811D02*
X014283Y003811D01*
X014371Y003652D02*
X014661Y003652D01*
X013853Y003811D02*
X012686Y003811D01*
X012686Y003969D02*
X013718Y003969D01*
X013718Y004128D02*
X012557Y004128D01*
X012463Y004286D02*
X013626Y004286D01*
X014118Y004445D02*
X014348Y004445D01*
X014310Y004604D02*
X013959Y004604D01*
X013801Y004762D02*
X014310Y004762D01*
X014540Y004642D02*
X014698Y004484D01*
X015048Y004445D02*
X015135Y004445D01*
X015135Y004604D02*
X015048Y004604D01*
X014915Y004762D02*
X015268Y004762D01*
X015275Y004921D02*
X014770Y004921D01*
X014310Y004921D02*
X013642Y004921D01*
X014540Y004642D02*
X014540Y005626D01*
X013281Y006886D01*
X013281Y007752D01*
X012931Y007774D02*
X012914Y007774D01*
X012887Y007477D02*
X012611Y007752D01*
X008123Y007752D01*
X007611Y007240D01*
X007261Y007299D02*
X006555Y007299D01*
X006555Y007388D02*
X006543Y007434D01*
X006519Y007475D01*
X006486Y007508D01*
X006445Y007532D01*
X006399Y007544D01*
X006059Y007544D01*
X006059Y007147D01*
X005943Y007147D01*
X005943Y007544D01*
X005603Y007544D01*
X005558Y007532D01*
X005517Y007508D01*
X005483Y007475D01*
X005459Y007434D01*
X005447Y007388D01*
X005447Y007147D01*
X005943Y007147D01*
X005943Y007031D01*
X005447Y007031D01*
X005447Y006789D01*
X005459Y006744D01*
X005483Y006703D01*
X005517Y006669D01*
X005558Y006645D01*
X005603Y006633D01*
X005943Y006633D01*
X005943Y007031D01*
X006059Y007031D01*
X006059Y007147D01*
X006555Y007147D01*
X006555Y007388D01*
X006529Y007457D02*
X007333Y007457D01*
X007662Y007616D02*
X005119Y007616D01*
X005100Y007457D02*
X005473Y007457D01*
X005447Y007299D02*
X005013Y007299D01*
X004764Y007140D02*
X005943Y007140D01*
X006059Y007140D02*
X007261Y007140D01*
X007375Y006982D02*
X006555Y006982D01*
X006555Y007031D02*
X006059Y007031D01*
X006059Y006633D01*
X006399Y006633D01*
X006445Y006645D01*
X006486Y006669D01*
X006519Y006703D01*
X006543Y006744D01*
X006555Y006789D01*
X006555Y007031D01*
X006059Y006982D02*
X005943Y006982D01*
X005943Y006823D02*
X006059Y006823D01*
X006059Y006665D02*
X005943Y006665D01*
X005524Y006665D02*
X004068Y006665D01*
X004228Y006823D02*
X005447Y006823D01*
X005447Y006982D02*
X004228Y006982D01*
X004228Y007140D02*
X004554Y007140D01*
X004304Y007299D02*
X004228Y007299D01*
X004228Y007757D02*
X004228Y008025D01*
X004496Y008025D01*
X004398Y007985D01*
X004269Y007855D01*
X004228Y007757D01*
X004228Y007774D02*
X004235Y007774D01*
X004228Y007933D02*
X004346Y007933D01*
X004971Y007933D02*
X007979Y007933D01*
X007820Y007774D02*
X005082Y007774D01*
X005943Y007457D02*
X006059Y007457D01*
X006059Y007299D02*
X005943Y007299D01*
X006555Y006823D02*
X011318Y006823D01*
X011318Y006665D02*
X006478Y006665D01*
X007405Y006348D02*
X004068Y006348D01*
X004068Y006506D02*
X011318Y006506D01*
X011318Y006348D02*
X007818Y006348D01*
X007961Y006189D02*
X011318Y006189D01*
X011318Y006030D02*
X007961Y006030D01*
X007919Y005872D02*
X011410Y005872D01*
X011569Y005713D02*
X007760Y005713D01*
X007497Y005945D02*
X007497Y005278D01*
X007052Y005238D02*
X004068Y005238D01*
X004068Y005396D02*
X007052Y005396D01*
X007129Y005555D02*
X004068Y005555D01*
X004068Y005713D02*
X007267Y005713D01*
X007267Y005872D02*
X004068Y005872D01*
X004068Y006030D02*
X007261Y006030D01*
X007497Y005945D02*
X007611Y006059D01*
X007261Y006189D02*
X004068Y006189D01*
X004068Y005079D02*
X004640Y005079D01*
X004505Y004921D02*
X004068Y004921D01*
X004068Y004762D02*
X004505Y004762D01*
X004855Y004799D02*
X004855Y003697D01*
X005137Y003979D01*
X007340Y003979D01*
X007785Y003969D02*
X008195Y003969D01*
X008353Y003811D02*
X007877Y003811D01*
X007855Y003833D02*
X007912Y003775D01*
X008389Y003775D01*
X007983Y004182D01*
X007912Y004182D01*
X007855Y004124D01*
X007785Y004124D01*
X007785Y003833D01*
X007855Y003833D01*
X007859Y004128D02*
X008036Y004128D01*
X008078Y004412D02*
X007497Y004412D01*
X007052Y004445D02*
X005085Y004445D01*
X005155Y004604D02*
X007052Y004604D01*
X007209Y004762D02*
X005205Y004762D01*
X005205Y004921D02*
X007209Y004921D01*
X007655Y004845D02*
X008039Y004845D01*
X007052Y005079D02*
X005071Y005079D01*
X004556Y004604D02*
X004068Y004604D01*
X004068Y004445D02*
X004625Y004445D01*
X004625Y004286D02*
X004068Y004286D01*
X004068Y004128D02*
X004625Y004128D01*
X004625Y003969D02*
X004068Y003969D01*
X004068Y003811D02*
X004625Y003811D01*
X004625Y003652D02*
X004068Y003652D01*
X004068Y003494D02*
X004551Y003494D01*
X004505Y003335D02*
X004068Y003335D01*
X004068Y003177D02*
X004505Y003177D01*
X004855Y003303D02*
X004855Y003697D01*
X005136Y003652D02*
X007052Y003652D01*
X007052Y003494D02*
X005160Y003494D01*
X005205Y003335D02*
X006886Y003335D01*
X006864Y003177D02*
X005205Y003177D01*
X005065Y003018D02*
X006864Y003018D01*
X007497Y003545D02*
X008550Y003545D01*
X008911Y003185D01*
X009029Y003461D02*
X012729Y003461D01*
X013339Y003177D02*
X013857Y003177D01*
X011513Y002522D02*
X011513Y002480D01*
X010761Y001729D01*
X010411Y001750D02*
X009293Y001750D01*
X009135Y001908D02*
X010446Y001908D01*
X010604Y002067D02*
X008976Y002067D01*
X008818Y002225D02*
X010933Y002225D01*
X011087Y002384D02*
X008659Y002384D01*
X008501Y002542D02*
X011087Y002542D01*
X011087Y002701D02*
X008342Y002701D01*
X008183Y002860D02*
X011087Y002860D01*
X009029Y003461D02*
X008078Y004412D01*
X007052Y004286D02*
X005085Y004286D01*
X010491Y005079D02*
X011057Y005079D01*
X011455Y005079D02*
X011571Y005079D01*
X011571Y005238D02*
X011455Y005238D01*
X011455Y005396D02*
X011571Y005396D01*
X011942Y006295D02*
X012493Y005744D01*
X012843Y005872D02*
X012867Y005872D01*
X012709Y006030D02*
X012702Y006030D01*
X012550Y006189D02*
X012374Y006189D01*
X012391Y006348D02*
X012215Y006348D01*
X011942Y006295D02*
X011942Y006847D01*
X012566Y006981D02*
X012566Y007217D01*
X012431Y007352D01*
X012261Y007522D01*
X012516Y007522D01*
X012657Y007381D01*
X012657Y007072D01*
X012566Y006981D01*
X012566Y006982D02*
X012566Y006982D01*
X012566Y007140D02*
X012657Y007140D01*
X012657Y007299D02*
X012484Y007299D01*
X012581Y007457D02*
X012326Y007457D01*
X012887Y007477D02*
X012887Y006807D01*
X012233Y006506D02*
X012172Y006506D01*
X011318Y006982D02*
X007848Y006982D01*
X007961Y007140D02*
X011318Y007140D01*
X011400Y007299D02*
X007995Y007299D01*
X008154Y007457D02*
X011558Y007457D01*
X012756Y007933D02*
X012967Y007933D01*
X013986Y006506D02*
X016946Y006506D01*
X016787Y006348D02*
X014144Y006348D01*
X014303Y006189D02*
X016629Y006189D01*
X017827Y005713D02*
X017964Y005713D01*
X018241Y005666D02*
X016666Y004091D01*
X015682Y004091D01*
X015485Y004484D02*
X016273Y004484D01*
X016623Y004445D02*
X016696Y004445D01*
X016623Y004372D02*
X016623Y004629D01*
X016565Y004687D01*
X016611Y004687D01*
X016801Y004687D01*
X018230Y006117D01*
X018956Y006117D01*
X019177Y005895D01*
X018336Y005895D01*
X018146Y005895D01*
X016623Y004372D01*
X016623Y004604D02*
X016854Y004604D01*
X016876Y004762D02*
X017013Y004762D01*
X017034Y004921D02*
X017171Y004921D01*
X017193Y005079D02*
X017330Y005079D01*
X017351Y005238D02*
X017488Y005238D01*
X017510Y005396D02*
X017647Y005396D01*
X017668Y005555D02*
X017805Y005555D01*
X018241Y005666D02*
X022966Y005666D01*
X023180Y005555D02*
X024380Y005555D01*
X024380Y005713D02*
X023339Y005713D01*
X023497Y005872D02*
X024380Y005872D01*
X024380Y006030D02*
X023739Y006030D01*
X023989Y005902D02*
X023359Y005272D01*
X019029Y005272D01*
X017651Y003894D01*
X017651Y002673D01*
X017651Y001925D01*
X017954Y001622D01*
X019391Y001622D01*
X019371Y001602D02*
X019371Y001122D01*
X019184Y001122D01*
X018891Y001415D01*
X018891Y001602D01*
X019371Y001602D01*
X019371Y001591D02*
X019411Y001591D01*
X019411Y001433D02*
X019371Y001433D01*
X019371Y001274D02*
X019411Y001274D01*
X019750Y001274D02*
X020074Y001274D01*
X019921Y001433D02*
X019891Y001433D01*
X019891Y001591D02*
X019921Y001591D01*
X019921Y001750D02*
X019891Y001750D01*
X019891Y002122D02*
X020391Y001622D01*
X020861Y001591D02*
X020921Y001591D01*
X020921Y001433D02*
X020861Y001433D01*
X020921Y001428D02*
X021196Y001152D01*
X021586Y001152D01*
X021861Y001428D01*
X021861Y001817D01*
X021586Y002092D01*
X021196Y002092D01*
X020921Y001817D01*
X020921Y001428D01*
X021074Y001274D02*
X020707Y001274D01*
X021707Y001274D02*
X022074Y001274D01*
X022196Y001152D02*
X021921Y001428D01*
X021921Y001817D01*
X022196Y002092D01*
X022586Y002092D01*
X022861Y001817D01*
X022861Y001428D01*
X022586Y001152D01*
X022196Y001152D01*
X022707Y001274D02*
X023074Y001274D01*
X023196Y001152D02*
X022921Y001428D01*
X022921Y001817D01*
X023196Y002092D01*
X023586Y002092D01*
X023861Y001817D01*
X023861Y001428D01*
X023586Y001152D01*
X023196Y001152D01*
X023707Y001274D02*
X024380Y001274D01*
X024380Y001116D02*
X017607Y001116D01*
X017607Y001274D02*
X019032Y001274D01*
X018891Y001433D02*
X017575Y001433D01*
X017487Y001591D02*
X018891Y001591D01*
X018891Y001750D02*
X017940Y001750D01*
X017651Y001750D02*
X017650Y001750D01*
X017650Y001908D02*
X017651Y001908D01*
X017650Y002067D02*
X017651Y002067D01*
X017650Y002225D02*
X017651Y002225D01*
X017650Y002384D02*
X017651Y002384D01*
X017968Y002384D02*
X018008Y002384D01*
X017968Y002542D02*
X018921Y002542D01*
X018921Y002701D02*
X017968Y002701D01*
X017968Y002674D02*
X017968Y003524D01*
X017956Y003570D01*
X017933Y003611D01*
X017899Y003644D01*
X017858Y003668D01*
X017812Y003680D01*
X017651Y003680D01*
X017651Y002674D01*
X017968Y002674D01*
X017651Y002701D02*
X017650Y002701D01*
X017650Y002542D02*
X017651Y002542D01*
X018474Y002384D02*
X018964Y002384D01*
X018241Y002122D02*
X019891Y002122D01*
X020196Y002152D02*
X020586Y002152D01*
X020861Y002428D01*
X020861Y002817D01*
X020586Y003092D01*
X020196Y003092D01*
X019921Y002817D01*
X019921Y002428D01*
X020196Y002152D01*
X020123Y002225D02*
X020113Y002225D01*
X019964Y002384D02*
X019817Y002384D01*
X019861Y002542D02*
X019921Y002542D01*
X019921Y002701D02*
X019861Y002701D01*
X019818Y002860D02*
X019964Y002860D01*
X020122Y003018D02*
X019660Y003018D01*
X019122Y003018D02*
X017968Y003018D01*
X017968Y002860D02*
X018964Y002860D01*
X017968Y003177D02*
X024380Y003177D01*
X024380Y003335D02*
X017968Y003335D01*
X017651Y003335D02*
X017650Y003335D01*
X017650Y003177D02*
X017651Y003177D01*
X017650Y003018D02*
X017651Y003018D01*
X017650Y002860D02*
X017651Y002860D01*
X017257Y003461D02*
X017257Y001256D01*
X016863Y001217D02*
X016627Y000980D01*
X011312Y000980D01*
X011010Y000957D02*
X007494Y000957D01*
X007494Y001116D02*
X009277Y001116D01*
X009452Y001591D02*
X010411Y001591D01*
X012139Y001908D02*
X012499Y001908D01*
X012499Y001750D02*
X012253Y001750D01*
X014344Y001908D02*
X014577Y001908D01*
X014895Y001908D02*
X014895Y001908D01*
X015213Y001908D02*
X015773Y001908D01*
X015846Y002067D02*
X015213Y002067D01*
X014895Y002067D02*
X014895Y002067D01*
X016030Y001515D02*
X016171Y001656D01*
X016171Y001656D01*
X016240Y001724D01*
X016240Y001469D01*
X016217Y001447D01*
X015962Y001447D01*
X016030Y001515D01*
X016030Y001515D01*
X016106Y001591D02*
X016240Y001591D01*
X016863Y001217D02*
X016863Y003461D01*
X017650Y003494D02*
X017651Y003494D01*
X017968Y003494D02*
X024380Y003494D01*
X024380Y003652D02*
X017885Y003652D01*
X017651Y003652D02*
X017650Y003652D01*
X017525Y003811D02*
X024380Y003811D01*
X024380Y003969D02*
X017472Y003969D01*
X017029Y004128D02*
X023656Y004128D01*
X023534Y004286D02*
X017187Y004286D01*
X017346Y004445D02*
X023490Y004445D01*
X023501Y004604D02*
X017504Y004604D01*
X017663Y004762D02*
X023577Y004762D01*
X023801Y004921D02*
X017822Y004921D01*
X017980Y005079D02*
X024380Y005079D01*
X024380Y005238D02*
X018139Y005238D01*
X018297Y005396D02*
X024380Y005396D01*
X024380Y004921D02*
X024099Y004921D01*
X024323Y004762D02*
X024380Y004762D01*
X024366Y004286D02*
X024380Y004286D01*
X024380Y004128D02*
X024244Y004128D01*
X023586Y003092D02*
X023196Y003092D01*
X022921Y002817D01*
X022921Y002428D01*
X023196Y002152D01*
X023586Y002152D01*
X023861Y002428D01*
X023861Y002817D01*
X023586Y003092D01*
X023660Y003018D02*
X024380Y003018D01*
X024380Y002860D02*
X023818Y002860D01*
X023861Y002701D02*
X024380Y002701D01*
X024380Y002542D02*
X023861Y002542D01*
X023817Y002384D02*
X024380Y002384D01*
X024380Y002225D02*
X023659Y002225D01*
X023611Y002067D02*
X024380Y002067D01*
X024380Y001908D02*
X023769Y001908D01*
X023861Y001750D02*
X024380Y001750D01*
X024380Y001591D02*
X023861Y001591D01*
X023861Y001433D02*
X024380Y001433D01*
X023012Y001908D02*
X022769Y001908D01*
X022861Y001750D02*
X022921Y001750D01*
X022921Y001591D02*
X022861Y001591D01*
X022861Y001433D02*
X022921Y001433D01*
X021921Y001433D02*
X021861Y001433D01*
X021861Y001591D02*
X021921Y001591D01*
X021921Y001750D02*
X021861Y001750D01*
X021769Y001908D02*
X022012Y001908D01*
X022171Y002067D02*
X021611Y002067D01*
X021586Y002152D02*
X021861Y002428D01*
X021861Y002817D01*
X021586Y003092D01*
X021196Y003092D01*
X020921Y002817D01*
X020921Y002428D01*
X021196Y002152D01*
X021586Y002152D01*
X021659Y002225D02*
X022123Y002225D01*
X022196Y002152D02*
X022586Y002152D01*
X022861Y002428D01*
X022861Y002817D01*
X022586Y003092D01*
X022196Y003092D01*
X021921Y002817D01*
X021921Y002428D01*
X022196Y002152D01*
X021964Y002384D02*
X021817Y002384D01*
X021861Y002542D02*
X021921Y002542D01*
X021921Y002701D02*
X021861Y002701D01*
X021818Y002860D02*
X021964Y002860D01*
X022122Y003018D02*
X021660Y003018D01*
X021122Y003018D02*
X020660Y003018D01*
X020818Y002860D02*
X020964Y002860D01*
X020921Y002701D02*
X020861Y002701D01*
X020861Y002542D02*
X020921Y002542D01*
X020964Y002384D02*
X020817Y002384D01*
X020659Y002225D02*
X021123Y002225D01*
X021171Y002067D02*
X020611Y002067D01*
X020769Y001908D02*
X021012Y001908D01*
X020921Y001750D02*
X020861Y001750D01*
X022611Y002067D02*
X023171Y002067D01*
X023123Y002225D02*
X022659Y002225D01*
X022817Y002384D02*
X022964Y002384D01*
X022921Y002542D02*
X022861Y002542D01*
X022861Y002701D02*
X022921Y002701D01*
X022964Y002860D02*
X022818Y002860D01*
X022660Y003018D02*
X023122Y003018D01*
X024380Y000957D02*
X017453Y000957D01*
X017075Y000944D02*
X016915Y000944D01*
X016995Y001023D01*
X017075Y000944D01*
X017061Y000957D02*
X016929Y000957D01*
X012130Y004604D02*
X011968Y004604D01*
X012303Y004921D02*
X011571Y004921D01*
X011455Y004921D02*
X010650Y004921D01*
X010808Y004762D02*
X011057Y004762D01*
X011057Y004604D02*
X010967Y004604D01*
X017985Y005872D02*
X018122Y005872D01*
X018144Y006030D02*
X019042Y006030D01*
X019739Y006030D02*
X020042Y006030D01*
X019921Y006189D02*
X019861Y006189D01*
X020739Y006030D02*
X021042Y006030D01*
X020921Y006189D02*
X020861Y006189D01*
X022737Y006665D02*
X023044Y006665D01*
X022921Y006506D02*
X022861Y006506D01*
X022861Y006348D02*
X022921Y006348D01*
X022921Y006189D02*
X022861Y006189D01*
X023861Y006189D02*
X024380Y006189D01*
X023989Y005902D02*
X023989Y006748D01*
X023391Y007347D01*
X023411Y007367D02*
X023891Y007367D01*
X023891Y007554D01*
X023598Y007847D01*
X023411Y007847D01*
X023411Y007367D01*
X023371Y007367D01*
X023371Y007847D01*
X023184Y007847D01*
X022891Y007554D01*
X022891Y007367D01*
X023371Y007367D01*
X023371Y007327D01*
X022891Y007327D01*
X022891Y007139D01*
X023184Y006847D01*
X023371Y006847D01*
X023371Y007326D01*
X023411Y007326D01*
X023411Y006847D01*
X023598Y006847D01*
X023891Y007139D01*
X023891Y007327D01*
X023411Y007327D01*
X023411Y007367D01*
X023411Y007299D02*
X023371Y007299D01*
X023371Y007457D02*
X023411Y007457D01*
X023411Y007616D02*
X023371Y007616D01*
X023371Y007774D02*
X023411Y007774D01*
X023670Y007774D02*
X024380Y007774D01*
X024380Y007616D02*
X023829Y007616D01*
X023891Y007457D02*
X024380Y007457D01*
X024380Y007299D02*
X023891Y007299D01*
X023891Y007140D02*
X024380Y007140D01*
X024380Y006982D02*
X023733Y006982D01*
X023411Y006982D02*
X023371Y006982D01*
X023049Y006982D02*
X022691Y006982D01*
X022586Y006877D02*
X022861Y007152D01*
X022861Y007541D01*
X022586Y007817D01*
X022196Y007817D01*
X021921Y007541D01*
X021921Y007152D01*
X022196Y006877D01*
X022586Y006877D01*
X022091Y006982D02*
X021691Y006982D01*
X021849Y007140D02*
X021933Y007140D01*
X021921Y007299D02*
X021861Y007299D01*
X021861Y007457D02*
X021921Y007457D01*
X021995Y007616D02*
X021786Y007616D01*
X021628Y007774D02*
X022154Y007774D01*
X022628Y007774D02*
X023112Y007774D01*
X022953Y007616D02*
X022786Y007616D01*
X022861Y007457D02*
X022891Y007457D01*
X022891Y007299D02*
X022861Y007299D01*
X022849Y007140D02*
X022891Y007140D01*
X023371Y007140D02*
X023411Y007140D01*
X021391Y007347D02*
X021391Y007398D01*
X020918Y007870D01*
X018635Y007870D01*
X018730Y007640D02*
X018166Y007077D01*
X018336Y007077D01*
X018996Y007077D01*
X018921Y007152D01*
X018921Y007541D01*
X019020Y007640D01*
X018730Y007640D01*
X018706Y007616D02*
X018996Y007616D01*
X018921Y007457D02*
X018547Y007457D01*
X018389Y007299D02*
X018921Y007299D01*
X018933Y007140D02*
X018230Y007140D01*
X018336Y006617D02*
X018296Y006577D01*
X018956Y006577D01*
X018996Y006617D01*
X018336Y006617D01*
X019849Y007140D02*
X019933Y007140D01*
X019921Y007299D02*
X019861Y007299D01*
X019861Y007457D02*
X019921Y007457D01*
X019996Y007616D02*
X019786Y007616D01*
X020786Y007616D02*
X020848Y007616D01*
X020861Y007457D02*
X020921Y007457D01*
X020921Y007299D02*
X020861Y007299D01*
X020849Y007140D02*
X020933Y007140D01*
X021091Y006982D02*
X020691Y006982D01*
X020091Y006982D02*
X020081Y006982D01*
X021181Y007933D02*
X024380Y007933D01*
D18*
X016312Y005547D03*
X015643Y005547D03*
X014974Y005547D03*
X014107Y005429D03*
X012493Y005744D03*
X011981Y004799D03*
X014068Y004091D03*
X014698Y004484D03*
X015485Y004484D03*
X016273Y004484D03*
X014068Y003461D03*
X014855Y003343D03*
X012336Y002910D03*
X012336Y003854D03*
X009659Y004878D03*
X007611Y006059D03*
X004659Y006256D03*
X007611Y007240D03*
X011942Y006847D03*
X012887Y006807D03*
X013281Y007752D03*
X004855Y004799D03*
X004855Y003303D03*
X008281Y003028D03*
X008399Y001729D03*
X010761Y001729D03*
X011903Y001650D03*
X013241Y001610D03*
X014147Y001610D03*
X017257Y001256D03*
X018241Y002122D03*
M02*
