G75*
G70*
%OFA0B0*%
%FSLAX24Y24*%
%IPPOS*%
%LPD*%
%AMOC8*
5,1,8,0,0,1.08239X$1,22.5*
%
%ADD10C,0.0631*%
%ADD11R,0.0474X0.0513*%
%ADD12R,0.0395X0.0395*%
%ADD13R,0.0828X0.1419*%
%ADD14OC8,0.0720*%
%ADD15R,0.0513X0.0474*%
%ADD16R,0.3033X0.0671*%
%ADD17R,0.2639X0.0474*%
%ADD18R,0.0960X0.0560*%
%ADD19R,0.0946X0.1497*%
%ADD20R,0.0671X0.0277*%
%ADD21R,0.0277X0.0671*%
D10*
X004659Y001374D03*
X004659Y007595D03*
X023950Y004484D03*
D11*
X011096Y003303D03*
X010426Y003303D03*
X010426Y002516D03*
X011096Y002516D03*
X009521Y002516D03*
X008851Y002516D03*
X006765Y004091D03*
X006096Y004091D03*
X006096Y004878D03*
X006765Y004878D03*
X006765Y005666D03*
X006096Y005666D03*
X006096Y006453D03*
X006765Y006453D03*
D12*
X010466Y004091D03*
X011056Y004091D03*
D13*
X007395Y002516D03*
X005859Y002516D03*
D14*
X019391Y002622D03*
X020391Y002622D03*
X021391Y002622D03*
X022391Y002622D03*
X023391Y002622D03*
X023391Y001622D03*
X022391Y001622D03*
X021391Y001622D03*
X020391Y001622D03*
X019391Y001622D03*
X019391Y006347D03*
X020391Y006347D03*
X021391Y006347D03*
X022391Y006347D03*
X023391Y006347D03*
X023391Y007347D03*
X022391Y007347D03*
X021391Y007347D03*
X020391Y007347D03*
X019391Y007347D03*
D15*
X015033Y007634D03*
X014363Y007634D03*
X006765Y007240D03*
X006096Y007240D03*
X008851Y004091D03*
X009521Y004091D03*
X009521Y003303D03*
X008851Y003303D03*
X015151Y001335D03*
X015820Y001335D03*
D16*
X002021Y003106D03*
X002021Y005862D03*
D17*
X002218Y004878D03*
X002218Y004091D03*
D18*
X011194Y005149D03*
X011194Y006059D03*
X011194Y006969D03*
D19*
X008753Y006059D03*
D20*
X013202Y006059D03*
X013202Y005744D03*
X013202Y005429D03*
X013202Y005114D03*
X013202Y004799D03*
X013202Y004484D03*
X013202Y004169D03*
X013202Y003854D03*
X013202Y003540D03*
X013202Y003225D03*
X013202Y002910D03*
X017769Y002910D03*
X017769Y003225D03*
X017769Y003540D03*
X017769Y003854D03*
X017769Y004169D03*
X017769Y004484D03*
X017769Y004799D03*
X017769Y005114D03*
X017769Y005429D03*
X017769Y005744D03*
X017769Y006059D03*
D21*
X017060Y006768D03*
X016745Y006768D03*
X016430Y006768D03*
X016115Y006768D03*
X015800Y006768D03*
X015485Y006768D03*
X015170Y006768D03*
X014855Y006768D03*
X014540Y006768D03*
X014226Y006768D03*
X013911Y006768D03*
X013911Y002201D03*
X014226Y002201D03*
X014540Y002201D03*
X014855Y002201D03*
X015170Y002201D03*
X015485Y002201D03*
X015800Y002201D03*
X016115Y002201D03*
X016430Y002201D03*
X016745Y002201D03*
X017060Y002201D03*
M02*
